<svg width="200" height="200" viewBox="0 0 200 200" fill="none" xmlns="http://www.w3.org/2000/svg">
<path d="M20.8594 92.1599L74.2394 115.52L164.319 25.4399L20.8594 92.1599Z" fill="#F83A42"/>
<path d="M141.5 92.3201L169.96 31.1001L79.9004 121.18L103.24 174.56L108.46 163.32C102.62 155.86 99.1404 146.46 99.1404 136.28C99.1404 112.56 118 93.1801 141.5 92.3201Z" fill="#1D5A78"/>
<path d="M143.141 100.28C123.281 100.28 107.141 116.42 107.141 136.28C107.141 156.12 123.281 172.28 143.141 172.28C162.981 172.28 179.141 156.12 179.141 136.28C179.141 116.42 162.981 100.28 143.141 100.28ZM163.961 127.1L139.961 151.1C139.181 151.88 138.161 152.28 137.141 152.28C136.121 152.28 135.081 151.88 134.301 151.1L122.301 139.1C120.741 137.54 120.741 135 122.301 133.44C123.881 131.88 126.401 131.88 127.961 133.44L129.381 134.86L137.141 142.62L152.661 127.1L158.301 121.44C159.881 119.88 162.401 119.88 163.961 121.44C165.521 123 165.521 125.54 163.961 127.1Z" fill="#F83A42"/>
</svg>
