<svg width="32" height="33" viewBox="0 0 32 33" fill="none" xmlns="http://www.w3.org/2000/svg">
<path d="M24.5863 15.3671C24.0682 14.2028 23.3172 13.1568 22.3796 12.2938L21.5996 11.5871C21.5736 11.563 21.5419 11.5457 21.5076 11.5369C21.4732 11.5281 21.4372 11.528 21.4028 11.5366C21.3684 11.5452 21.3366 11.5622 21.3105 11.5862C21.2843 11.6102 21.2645 11.6403 21.2529 11.6738L20.9062 12.6671C20.6444 13.3678 20.2455 14.0091 19.7329 14.5538C19.7056 14.5847 19.6673 14.6038 19.6262 14.6071C19.6045 14.6109 19.5821 14.6092 19.5612 14.6023C19.5403 14.5953 19.5214 14.5832 19.5062 14.5671C19.4724 14.5336 19.4532 14.4881 19.4529 14.4405C19.4722 12.5455 18.9694 10.6819 17.9996 9.05379C17.1814 7.47597 15.9393 6.15767 14.4129 5.24713L13.3329 4.60046C13.2999 4.58133 13.2623 4.57143 13.2241 4.57179C13.1859 4.57215 13.1485 4.58276 13.1158 4.60252C13.0831 4.62227 13.0563 4.65044 13.0382 4.68409C13.0201 4.71774 13.0114 4.75562 13.0129 4.79379L13.0729 6.07379C13.1266 6.85059 13.0246 7.63029 12.7729 8.36713C12.267 9.71359 11.394 10.8914 10.2529 11.7671C9.1322 12.6334 8.2208 13.7407 7.58625 15.0071C6.95178 16.2856 6.62098 17.6932 6.61958 19.1205C6.60733 20.3654 6.85009 21.5996 7.33292 22.7471C8.3232 25.0264 10.1711 26.824 12.4768 27.751C14.7825 28.678 17.3605 28.6599 19.6529 27.7005C21.9015 26.763 23.6988 24.9897 24.6662 22.7538C25.1644 21.5845 25.4162 20.3251 25.4059 19.0542C25.3956 17.7833 25.1234 16.5281 24.6062 15.3671H24.5863ZM21.3329 24.4138C19.9054 25.8241 17.9796 26.6149 15.9729 26.6149C13.9663 26.6149 12.0404 25.8241 10.6129 24.4138C9.50641 23.3131 8.77444 21.892 8.52076 20.352C8.26709 18.812 8.50458 17.2313 9.19958 15.8338C9.70542 14.8098 10.4344 13.9122 11.3329 13.2071C11.9103 12.7654 12.4339 12.2575 12.8929 11.6938C13.5519 10.895 14.0765 9.99438 14.4462 9.02713C14.5935 8.62535 14.7007 8.21 14.7662 7.78713C15.4275 8.40577 15.9797 9.1315 16.3996 9.93379C17.2029 11.2653 17.625 12.792 17.6196 14.3471C17.6055 14.6243 17.6493 14.9015 17.7481 15.1608C17.847 15.4202 17.9988 15.6562 18.1938 15.8537C18.3888 16.0512 18.6228 16.206 18.8809 16.3082C19.139 16.4103 19.4155 16.4577 19.6929 16.4471C19.9482 16.4298 20.1975 16.3619 20.4264 16.2475C20.6553 16.133 20.8592 15.9743 21.0262 15.7805C21.39 15.4044 21.716 14.9935 21.9996 14.5538C22.3751 15.03 22.6887 15.552 22.9329 16.1071C23.5433 17.49 23.7171 19.0262 23.4312 20.5105C23.1453 21.9948 22.4133 23.3566 21.3329 24.4138Z" fill="black"/>
<path d="M17.7076 22.4394C17.6034 22.2095 17.4537 22.0032 17.2676 21.8328L17.1142 21.6928C17.1106 21.6873 17.1056 21.6827 17.0998 21.6796C17.094 21.6765 17.0875 21.6749 17.0809 21.6749C17.0743 21.6749 17.0678 21.6765 17.062 21.6796C17.0562 21.6827 17.0512 21.6873 17.0476 21.6928L16.9742 21.8928C16.9253 22.0331 16.8456 22.1607 16.7409 22.2661C16.7378 21.874 16.6196 21.4915 16.4009 21.1661C16.2397 20.8522 15.9922 20.5908 15.6876 20.4128L15.4742 20.2794C15.4673 20.2761 15.4596 20.2746 15.4519 20.275C15.4442 20.2753 15.4368 20.2776 15.4302 20.2816C15.4236 20.2855 15.418 20.291 15.4141 20.2977C15.4102 20.3043 15.4079 20.3117 15.4076 20.3194V20.5728C15.4167 20.7285 15.3963 20.8846 15.3476 21.0328C15.2867 21.1877 15.2012 21.3318 15.0942 21.4594C15.0223 21.5513 14.9395 21.6342 14.8476 21.7061C14.6185 21.882 14.4355 22.1107 14.3142 22.3728C14.1956 22.6108 14.13 22.8718 14.1219 23.1376C14.1139 23.4035 14.1636 23.6679 14.2676 23.9128C14.3623 24.132 14.498 24.3312 14.6676 24.4994C14.8397 24.6657 15.0408 24.799 15.2609 24.8928C15.4909 24.9896 15.738 25.0394 15.9876 25.0394C16.2371 25.0394 16.4842 24.9896 16.7142 24.8928C16.9451 24.8045 17.156 24.6707 17.3342 24.4994C17.5037 24.3312 17.6395 24.132 17.7342 23.9128C17.831 23.6761 17.8764 23.4216 17.8676 23.1661C17.868 22.9065 17.8134 22.6498 17.7076 22.4128V22.4394Z" fill="black"/>
</svg>
