<svg width="200" height="201" viewBox="0 0 200 201" fill="none" xmlns="http://www.w3.org/2000/svg">
<path d="M100 40.5C66.9 40.5 40 67.4 40 100.5C40 133.567 66.9 160.5 100 160.5C133.067 160.5 160 133.567 160 100.5C160 67.4 133.067 40.5 100 40.5ZM134.7 85.2L94.7 125.2C93.4 126.5 91.7 127.167 90 127.167C88.3 127.167 86.5667 126.5 85.2667 125.2L65.2667 105.2C62.6667 102.6 62.6667 98.3667 65.2667 95.7667C67.9 93.1667 72.1 93.1667 74.7 95.7667L77.0667 98.1333L90 111.067L115.867 85.2L125.267 75.7667C127.9 73.1667 132.1 73.1667 134.7 75.7667C137.3 78.3667 137.3 82.6 134.7 85.2Z" fill="#F83A42"/>
</svg>
