<svg width="171" height="64" viewBox="0 0 171 64" fill="none" xmlns="http://www.w3.org/2000/svg">
<path d="M45.1468 32.2544C44.9195 31.716 44.5797 31.3814 44.1131 31.0525C43.4224 30.5306 42.7741 29.9564 42.168 29.3301C41.6638 28.8052 41.1652 28.2814 40.6201 27.8015C40.2506 27.476 39.903 27.1335 39.5599 26.7787C39.1517 26.3529 38.749 25.9214 38.3121 25.526C37.8366 25.1081 37.3854 24.6767 36.9441 24.2205C36.4167 23.6719 35.896 23.121 35.3245 22.6198C34.9406 22.2818 34.5809 21.9259 34.2246 21.5575C33.7226 21.0337 33.225 20.511 32.68 20.0323C32.295 19.6932 31.9342 19.3361 31.5767 18.9666C31.1443 18.516 30.7195 18.0576 30.2572 17.6397C29.9461 17.3682 29.6405 17.0978 29.3515 16.8027C29.2676 16.7137 29.1871 16.6281 29.1054 16.5425C28.9389 16.3656 28.7712 16.1888 28.6057 16.0119C28.2107 15.585 27.8367 15.158 27.338 14.8584C26.3297 14.3842 25.3996 14.4281 24.5788 15.2729C24.3901 15.4768 24.2059 15.6774 23.9985 15.8621C23.5417 16.2541 23.1159 16.6698 22.6955 17.1023C22.2697 17.5405 21.8515 17.9855 21.4025 18.3989C20.8873 18.8427 20.4118 19.317 19.9374 19.807C19.5976 20.1618 19.2589 20.5166 18.8948 20.8467C18.3332 21.3401 17.8092 21.8583 17.2896 22.3978C16.8405 22.8642 16.3926 23.3261 15.9072 23.753C15.4438 24.1608 15.0157 24.599 14.5866 25.045C14.2258 25.4202 13.8684 25.7964 13.4833 26.1467C12.9438 26.621 12.4374 27.1166 11.9388 27.6359C11.5063 28.0865 11.0738 28.5281 10.606 28.9404C10.1956 29.3008 9.81389 29.6827 9.43657 30.0792C9.11222 30.4239 8.8 30.7765 8.41937 31.057C8.07736 31.2879 7.7508 31.5188 7.46174 31.8174C7.12415 32.2642 7.02338 33.2942 7.15945 34.9073C7.17159 35.0402 7.18372 35.1675 7.19476 35.2959C7.36135 37.3652 7.74418 39.4244 8.52528 41.3495C8.56059 41.4351 8.59516 41.52 8.62899 41.6041C9.33066 43.429 10.2949 45.0477 11.4655 46.5977C11.514 46.6619 11.5614 46.7239 11.6078 46.7858C12.2642 47.6566 12.9758 48.444 13.7503 49.2055C13.8099 49.2641 13.8673 49.3204 13.9246 49.3767C16.8747 52.2762 20.3621 54.5652 24.0945 56.2707C24.2092 56.3236 24.3217 56.3732 24.4332 56.4239C24.9506 56.6593 25.4603 56.8756 26.0042 57.0401C27.3671 57.0288 30.0142 55.7097 33.9454 53.0828C34.0635 53.0028 34.1782 52.9251 34.2941 52.8474C35.063 52.3292 35.7901 51.7828 36.4973 51.1802C36.6495 51.0506 36.8018 50.9211 36.9551 50.7949C37.8278 50.0898 38.6221 49.3373 39.3547 48.4823C39.4827 48.3291 39.6118 48.177 39.7408 48.0249C42.2276 45.3406 43.9178 42.1087 44.7496 38.5176C44.7717 38.4192 44.7938 38.3216 44.8158 38.2247C45.2527 36.3559 45.4723 34.1604 45.1468 32.2544ZM25.1779 45.4341C23.3398 45.059 21.6331 43.3141 20.6137 41.7798C19.5777 40.1645 19.4409 38.7023 19.4409 36.7603H25.1779V45.4341ZM25.1779 33.9441H19.4409V30.2268C21.0436 29.5134 22.1527 29.059 22.7683 28.8638C23.2791 28.6982 23.78 28.4999 24.2809 28.3062C24.5111 28.2348 24.8101 28.1991 25.1779 28.1991V33.9441ZM31.5767 42.9558C31.5172 43.0257 31.4576 43.0967 31.3958 43.1688C30.5264 44.1263 29.2908 44.9587 28.1566 45.5467H27.936V36.7603H33.6729C33.6729 39.4041 33.2824 40.989 31.5767 42.9558ZM33.6729 33.9441H27.936V28.1991C28.5163 28.284 28.9458 28.3734 29.2246 28.4672C29.3173 28.4988 29.41 28.5303 29.5048 28.5619C29.6019 28.5957 29.699 28.6295 29.7983 28.6632C29.8987 28.6982 30.0002 28.7331 30.1039 28.7691C31.0538 29.1003 31.9794 29.4833 32.9007 29.8888C33.1555 30.0004 33.4104 30.1119 33.6729 30.2268V33.9441Z" fill="white"/>
<path d="M51.9903 10.4967C51.2445 8.55134 49.6669 7.64904 47.9116 6.79405C47.7638 6.72196 47.617 6.64986 47.4703 6.57777C46.4126 6.05659 44.7798 5.36982 42.5718 4.51746C42.2508 4.39355 41.9286 4.26964 41.6065 4.1446C39.4728 3.31778 37.3269 2.54164 35.1513 1.83309C35.0476 1.7993 34.9461 1.76663 34.8457 1.73396C29.3515 -0.0514852 25.5441 -0.709341 19.9628 0.973599C19.6638 1.06372 19.3659 1.15383 19.0658 1.2417C17.9681 1.55936 16.8902 1.9187 15.8145 2.30959C15.3412 2.48194 14.8668 2.65316 14.3924 2.82326C14.2964 2.85705 14.2038 2.89084 14.1111 2.92351C13.6135 3.10262 13.116 3.28173 12.614 3.44732C11.8262 3.70753 11.0584 3.99478 10.2916 4.31132C9.70137 4.55576 9.11333 4.79795 8.51537 5.02099C7.00391 5.58535 5.52333 6.22518 4.08579 6.96753C3.97399 7.0261 3.86367 7.08393 3.75481 7.141C2.91082 7.57582 2.1595 8.0602 1.45783 8.7113C0.469311 9.90535 -0.0164897 12.019 0.000426937 15.0522C0.00263345 15.3079 0.00373671 15.5625 0.00483997 15.8182C0.009253 17.6273 0.0335247 19.4353 0.0721387 21.2432C0.112959 23.1075 0.141644 24.9707 0.159296 26.835C0.160399 26.9589 0.161503 27.0795 0.162606 27.2C0.173638 28.4301 0.185774 29.6602 0.195704 30.8903C0.199013 31.3634 0.203426 31.8365 0.207839 32.3096C0.210046 32.5338 0.211149 32.758 0.213356 32.9821C0.222182 34.1796 0.233214 35.3714 0.328094 36.5654C0.33692 36.6702 0.345747 36.7716 0.354573 36.8729C0.434007 37.862 0.595083 38.8172 0.805805 39.786C0.835593 39.9178 0.864278 40.0462 0.892962 40.1746C1.0739 40.9947 1.28352 41.7843 1.57588 42.5706C1.61118 42.663 1.64428 42.7531 1.67848 42.8432C2.64824 45.5828 4.10344 48.1173 5.86203 50.4018C5.97567 50.5482 6.0882 50.6947 6.20184 50.8411C7.62283 52.7189 9.38363 54.465 11.2206 55.9192C11.3154 55.9936 11.407 56.0645 11.4975 56.1355C11.9123 56.4656 12.3271 56.7956 12.7464 57.1189C12.8092 57.1674 12.871 57.2147 12.9317 57.262C15.3754 59.1409 18.0552 60.6763 20.8299 61.9807C20.9204 62.0235 21.0087 62.0641 21.0958 62.1058C22.0402 62.5507 22.9978 62.9574 23.9632 63.3505C24.0945 63.4035 24.2224 63.4553 24.3504 63.5071C24.7046 63.6536 25.0587 63.7944 25.4173 63.9273C26.5602 64.269 29.0451 63.4065 32.872 61.3398C32.9569 61.2936 33.0397 61.2497 33.1213 61.2046C34.389 60.5186 35.6632 59.8416 36.8757 59.0576C36.9871 58.9832 37.0953 58.9111 37.2034 58.839C38.6365 57.8939 40.1182 56.9353 41.3891 55.7694C41.6318 55.5385 41.8735 55.3166 42.1305 55.1026C42.531 54.777 42.9271 54.4503 43.3022 54.0955C49.1505 48.1894 52.2022 41.2741 52.2518 32.8312C52.2518 32.5958 52.2551 32.3603 52.2562 32.126C52.2628 31.4828 52.2672 30.8385 52.2717 30.1953C52.2739 29.7909 52.2772 29.3865 52.2794 28.9809C52.2948 27.0197 52.307 25.0574 52.3158 23.0951C52.3169 22.9543 52.318 22.8169 52.318 22.6795C52.3268 20.8771 52.3345 19.0737 52.3379 17.2713C52.3379 16.9165 52.339 16.5616 52.3401 16.2068C52.3423 15.6436 52.3434 15.0792 52.3434 14.516V13.8942C52.3489 12.7091 52.3357 11.6401 51.9903 10.4967ZM49.5852 14.8629C49.583 15.1558 49.5808 15.4487 49.5808 15.7404C49.5808 16.832 49.5665 17.9235 49.5422 19.014C49.54 19.1176 49.5378 19.2205 49.5356 19.3226C49.5334 19.4247 49.5312 19.5302 49.529 19.6391C49.4793 21.8786 49.4407 24.1157 49.4286 26.3563C49.4275 26.6255 49.4253 26.8958 49.4242 27.1651C49.4175 28.2577 49.4109 29.3493 49.4065 30.4408C49.4043 31.1325 49.4021 31.8241 49.3977 32.5158C49.3955 32.7805 49.3933 33.0441 49.3922 33.3077C49.3888 35.5888 49.2609 37.8102 48.6364 40.0124C48.6133 40.0946 48.5901 40.1735 48.5669 40.2523C47.9557 42.396 47.104 44.4665 45.9136 46.3465C45.8408 46.458 45.7702 46.5651 45.6985 46.6732C44.8368 48.0002 43.9266 49.3317 42.7958 50.4367C42.6715 50.5561 42.4255 50.8036 42.0577 51.1791C41.5315 51.7254 41.0041 52.265 40.4337 52.764C40.3477 52.8372 40.2649 52.9093 40.1822 52.9814C39.2974 53.7688 38.3993 54.5089 37.4306 55.1882C37.3534 55.2422 37.2784 55.294 37.2034 55.347C35.0939 56.8384 32.915 58.1857 30.5695 59.257C30.4625 59.3065 30.3577 59.3538 30.2528 59.4023C29.8292 59.5983 29.4066 59.7954 28.9819 59.988C28.833 60.0556 28.684 60.1232 28.5362 60.1908C27.5598 60.6436 26.6033 61.146 25.5077 60.9061C25.4073 60.8622 25.3103 60.8182 25.2132 60.7754C25.0863 60.7202 24.9649 60.6673 24.8425 60.6132C24.6108 60.5085 24.3791 60.4048 24.1452 60.3057C21.7589 59.3031 19.3847 58.1294 17.2057 56.7111C17.0689 56.6222 16.9321 56.5332 16.7942 56.4453C13.6047 54.4098 10.6722 51.9304 8.3245 48.9137C8.24066 48.8034 8.15902 48.6952 8.07738 48.5882C7.3415 47.6307 6.64866 46.6777 6.07607 45.6076C6.00656 45.4713 5.93926 45.3406 5.87086 45.2088C4.99267 43.5281 4.259 41.8159 3.78019 39.9696C3.74599 39.831 3.71178 39.697 3.67869 39.5618C3.16898 37.55 3.07962 35.5674 3.073 33.4992C3.0719 33.2311 3.07079 32.963 3.06859 32.6949C3.06307 31.9796 3.05866 31.2643 3.05535 30.549C3.04873 29.2558 3.041 27.9637 3.03218 26.6717C3.03218 26.5286 3.03108 26.3912 3.02997 26.2526C3.01784 24.4097 2.99687 22.5691 2.9373 20.7273C2.89317 19.3541 2.87662 17.9821 2.87772 16.6078C2.87772 16.1955 2.87883 15.7821 2.87772 15.3698V14.1318C2.87662 13.2363 2.85455 12.3295 3.07852 11.4565C3.447 10.7761 3.92251 10.3278 4.59329 9.96505C4.68817 9.91661 4.77974 9.87043 4.87131 9.82312C7.05796 8.68313 9.36488 7.76957 11.6685 6.90782C11.9653 6.79743 12.2631 6.68591 12.5599 6.57326C12.7453 6.50229 12.9317 6.43133 13.1182 6.36036C13.2064 6.32657 13.2936 6.2939 13.3807 6.26123C14.1078 5.98299 14.8414 5.73067 15.5784 5.48172C15.9403 5.35893 16.3022 5.23615 16.6629 5.11111C24.4398 2.43688 29.2831 2.70836 36.9772 5.53691C37.2883 5.65181 37.5994 5.76671 37.9128 5.87598C41.2512 7.03286 46.2755 8.26859 48.9211 10.7412C49.4183 12.0404 49.6397 13.4143 49.5852 14.8629Z" fill="white"/>
<path d="M31.9077 8.26068C32.1648 8.34742 32.4219 8.43416 32.6789 8.51977C33.4159 8.76872 34.1518 9.01992 34.8865 9.2745C34.9781 9.30604 35.0697 9.33758 35.1646 9.37025C36.2766 9.75663 37.3678 10.1903 38.4567 10.6409C38.8671 10.811 39.2786 10.9732 39.6934 11.1332C40.9721 11.6333 42.2375 12.1684 43.4655 12.7879C43.535 12.8229 43.6045 12.8578 43.6762 12.8927C44.0204 13.0707 44.3558 13.2633 44.6802 13.4762C44.7408 13.5156 44.8015 13.5551 44.8644 13.5956C45.5021 14.2771 45.4138 15.1524 45.405 16.0322C45.405 16.1764 45.405 16.3194 45.405 16.4681C45.405 16.8556 45.4017 17.2431 45.3984 17.6318C45.3962 17.9517 45.3951 18.2727 45.394 18.5926C45.3851 21.1948 45.341 23.7969 45.2594 26.3979C44.7706 25.9744 44.2896 25.5463 43.8185 25.1025C43.7578 25.045 43.6972 24.9887 43.6354 24.9301C43.097 24.4198 42.5762 23.8915 42.0632 23.3553C41.7466 23.0264 41.4233 22.7132 41.0802 22.4125C40.5065 21.9067 39.9825 21.3536 39.4518 20.8016C39.0105 20.3465 38.5593 19.914 38.0838 19.4961C37.6469 19.1007 37.2442 18.6692 36.836 18.2434C36.494 17.8897 36.1476 17.5495 35.7791 17.2251C35.2076 16.7216 34.6857 16.1696 34.1562 15.6199C33.7149 15.1637 33.2625 14.7322 32.7859 14.3132C32.4285 13.9888 32.0986 13.6384 31.7654 13.2892C30.1911 11.6694 28.5616 10.3852 26.2359 10.3604C24.0823 10.3875 22.5764 11.3765 21.0991 12.8814C21.0098 12.9727 20.9193 13.0639 20.8277 13.1586C20.6722 13.3185 20.5166 13.4785 20.3633 13.6407C20.1459 13.857 19.9242 14.0586 19.6947 14.2602C19.2015 14.6973 18.7437 15.1659 18.2858 15.6424C17.839 16.1065 17.3944 16.5661 16.9101 16.9908C16.4048 17.4346 15.9403 17.9168 15.4725 18.4023C14.933 18.9621 14.3902 19.5039 13.8066 20.0154C13.4635 20.3251 13.1446 20.6586 12.8247 20.9931C12.4352 21.3998 12.0436 21.794 11.621 22.1658C11.1334 22.5961 10.6833 23.0591 10.232 23.5277C9.7091 24.0718 9.17953 24.5956 8.61356 25.0935C8.33223 25.3458 8.07297 25.6128 7.8126 25.8865C7.64711 26.06 7.47941 26.2323 7.30951 26.4002H7.19919C7.09769 24.0064 7.06459 21.6149 7.06238 19.2178C7.06238 18.7244 7.05907 18.231 7.05576 17.7376C7.05356 17.3524 7.05356 16.9683 7.05245 16.583C7.05245 16.4005 7.05135 16.2192 7.05025 16.0367C7.04804 15.7844 7.04804 15.532 7.05025 15.2797C7.05025 15.1366 7.05025 14.9947 7.04914 14.8471C7.1021 14.3447 7.24552 13.9527 7.6085 13.6001C9.98933 12.0625 12.7066 11.1208 15.3247 10.0979C15.6137 9.98418 15.9028 9.8704 16.1907 9.7555C17.5654 9.2148 18.9687 8.75408 20.3688 8.28434C20.6203 8.19985 20.8708 8.11537 21.1223 8.03088C25.2507 6.6397 27.7981 6.86387 31.9133 8.26181L31.9077 8.26068Z" fill="white"/>
<path d="M63.6407 37.3711V15.7867H67.5809V27.028L66.509 26.6513L75.6932 15.7867H80.6475L72.0427 25.985L72.2745 23.2036L80.9082 37.3711H76.2726L70.4782 27.8682L67.5809 31.3159V37.3711H63.6407ZM90.7402 37.7205C89.1872 37.7205 87.7702 37.3614 86.489 36.6431C85.2272 35.9249 84.2177 34.9446 83.4606 33.7022C82.723 32.4598 82.3542 31.0427 82.3542 29.4509C82.3542 27.8591 82.723 26.442 83.4606 25.1996C84.2177 23.9573 85.2272 22.9769 86.489 22.2587C87.7507 21.5404 89.1678 21.1813 90.7402 21.1813C92.2932 21.1813 93.7006 21.5404 94.9624 22.2587C96.2242 22.9769 97.2239 23.9573 97.9616 25.1996C98.7186 26.4226 99.0972 27.8397 99.0972 29.4509C99.0972 31.0427 98.7186 32.4598 97.9616 33.7022C97.2045 34.9446 96.1951 35.9249 94.9333 36.6431C93.6715 37.3614 92.2738 37.7205 90.7402 37.7205ZM90.7402 34.2263C91.5944 34.2263 92.3417 34.0225 92.9823 33.6148C93.6423 33.2072 94.1568 32.6442 94.5256 31.926C94.9138 31.1883 95.108 30.3633 95.108 29.4509C95.108 28.5191 94.9138 27.7038 94.5256 27.005C94.1568 26.2867 93.6423 25.7238 92.9823 25.3161C92.3417 24.889 91.5944 24.6755 90.7402 24.6755C89.8667 24.6755 89.0999 24.889 88.4399 25.3161C87.7799 25.7238 87.2557 26.2867 86.8675 27.005C86.4987 27.7038 86.3142 28.5191 86.3142 29.4509C86.3142 30.3633 86.4987 31.1883 86.8675 31.926C87.2557 32.6442 87.7799 33.2072 88.4399 33.6148C89.0999 34.0225 89.8667 34.2263 90.7402 34.2263ZM101.99 37.3711V15.3285H105.804V37.3711H101.99ZM114.131 37.7205C113.024 37.7205 112.063 37.5361 111.248 37.1673C110.433 36.7984 109.802 36.2743 109.355 35.5949C108.909 34.896 108.686 34.0904 108.686 33.1781C108.686 32.3045 108.88 31.528 109.268 30.8486C109.656 30.1498 110.258 29.5674 111.073 29.1015C111.889 28.6356 112.918 28.3056 114.16 28.1115L119.343 27.267V30.1789L114.888 30.9359C114.131 31.0718 113.568 31.3145 113.199 31.6639C112.83 32.0133 112.646 32.4695 112.646 33.0325C112.646 33.576 112.85 34.0128 113.257 34.3428C113.684 34.6534 114.209 34.8087 114.83 34.8087C115.626 34.8087 116.324 34.6437 116.926 34.3137C117.547 33.9643 118.023 33.4887 118.353 32.8869C118.702 32.2851 118.877 31.6251 118.877 30.9068V26.8303C118.877 26.1508 118.605 25.5879 118.062 25.1414C117.538 24.6755 116.839 24.4426 115.965 24.4426C115.15 24.4426 114.422 24.6658 113.781 25.1123C113.16 25.5394 112.704 26.112 112.413 26.8303L109.297 25.3161C109.608 24.4814 110.093 23.7631 110.753 23.1614C111.433 22.5402 112.228 22.0549 113.141 21.7054C114.053 21.356 115.043 21.1813 116.111 21.1813C117.412 21.1813 118.557 21.424 119.547 21.9093C120.537 22.3752 121.304 23.0352 121.847 23.8893C122.41 24.724 122.692 25.7044 122.692 26.8303V37.3711H119.081V34.6631L119.896 34.6049C119.489 35.2843 119.003 35.8569 118.44 36.3228C117.877 36.7693 117.237 37.1187 116.519 37.3711C115.8 37.604 115.004 37.7205 114.131 37.7205ZM126.217 37.3711V21.5307H129.799V24.6464L129.508 24.0931C129.876 23.1419 130.478 22.4237 131.313 21.9384C132.167 21.4337 133.157 21.1813 134.283 21.1813C135.448 21.1813 136.477 21.4337 137.37 21.9384C138.282 22.4431 138.99 23.1517 139.495 24.064C140 24.957 140.252 25.9955 140.252 27.1797V37.3711H136.438V28.0824C136.438 27.3835 136.302 26.7817 136.03 26.277C135.758 25.7723 135.38 25.3841 134.894 25.1123C134.429 24.8211 133.875 24.6755 133.235 24.6755C132.614 24.6755 132.06 24.8211 131.575 25.1123C131.09 25.3841 130.711 25.7723 130.439 26.277C130.168 26.7817 130.032 27.3835 130.032 28.0824V37.3711H126.217ZM149.127 37.7205C147.904 37.7205 146.836 37.4487 145.924 36.9052C145.031 36.3617 144.342 35.6046 143.856 34.634C143.39 33.6634 143.157 32.5277 143.157 31.2271V21.5307H146.972V30.9068C146.972 31.5668 147.098 32.1492 147.351 32.6539C147.622 33.1392 148.001 33.5275 148.486 33.8187C148.991 34.0904 149.554 34.2263 150.175 34.2263C150.796 34.2263 151.349 34.0904 151.835 33.8187C152.32 33.5275 152.699 33.1295 152.97 32.6248C153.242 32.1201 153.378 31.5183 153.378 30.8195V21.5307H157.193V37.3711H153.582V34.2554L153.902 34.8087C153.533 35.7793 152.922 36.5073 152.068 36.9926C151.233 37.4779 150.253 37.7205 149.127 37.7205ZM167.96 37.5458C166.174 37.5458 164.786 37.0605 163.796 36.0899C162.825 35.0999 162.34 33.7119 162.34 31.926V24.9376H159.603V21.5307H159.894C160.67 21.5307 161.272 21.3269 161.699 20.9193C162.126 20.5116 162.34 19.9195 162.34 19.143V17.9201H166.154V21.5307H169.794V24.9376H166.154V31.7221C166.154 32.2463 166.242 32.6928 166.416 33.0616C166.611 33.4304 166.902 33.7119 167.29 33.906C167.698 34.1001 168.212 34.1972 168.833 34.1972C168.969 34.1972 169.124 34.1875 169.299 34.1681C169.493 34.1487 169.678 34.1293 169.852 34.1098V37.3711C169.581 37.4099 169.27 37.4487 168.921 37.4876C168.571 37.5264 168.251 37.5458 167.96 37.5458Z" fill="white"/>
<path d="M125.572 47.2485L127.423 42.0853H128.227L130.077 47.2485H129.349L128.927 46.0357H126.723L126.3 47.2485H125.572ZM126.938 45.4119H128.712L127.728 42.5773H127.922L126.938 45.4119ZM134.609 47.2485V42.0853H137.88V42.709H135.288V44.3793H137.638V45.003H135.288V47.2485H134.609ZM142.531 47.2485V42.0853H144.353C144.695 42.0853 144.996 42.1499 145.254 42.2793C145.513 42.4087 145.714 42.5935 145.857 42.8338C146.005 43.074 146.079 43.3559 146.079 43.6793C146.079 44.0443 145.987 44.3539 145.802 44.608C145.617 44.8621 145.368 45.0446 145.053 45.1555L146.252 47.2485H145.462L144.201 45.01L144.651 45.2733H143.21V47.2485H142.531ZM143.21 44.6496H144.374C144.577 44.6496 144.755 44.6103 144.908 44.5317C145.06 44.4532 145.178 44.34 145.261 44.1921C145.349 44.0443 145.393 43.8733 145.393 43.6793C145.393 43.4806 145.349 43.3097 145.261 43.1664C145.178 43.0186 145.06 42.9054 144.908 42.8268C144.755 42.7483 144.577 42.709 144.374 42.709H143.21V44.6496ZM150.906 47.2485V42.0853H151.585V47.2485H150.906ZM158.992 47.3317C158.627 47.3317 158.289 47.267 157.98 47.1376C157.675 47.0037 157.407 46.8165 157.176 46.5763C156.949 46.336 156.774 46.0542 156.649 45.7307C156.524 45.4073 156.462 45.0539 156.462 44.6704C156.462 44.2822 156.524 43.9265 156.649 43.603C156.774 43.2796 156.949 42.9978 157.176 42.7575C157.402 42.5173 157.67 42.3324 157.98 42.2031C158.289 42.0691 158.627 42.0021 158.992 42.0021C159.347 42.0021 159.666 42.0645 159.948 42.1892C160.234 42.314 160.475 42.4757 160.669 42.6744C160.867 42.873 161.008 43.0856 161.092 43.312L160.468 43.5961C160.348 43.3097 160.16 43.0786 159.906 42.9031C159.652 42.7229 159.347 42.6328 158.992 42.6328C158.631 42.6328 158.31 42.7182 158.028 42.8892C157.751 43.0602 157.534 43.2981 157.377 43.603C157.22 43.908 157.141 44.2638 157.141 44.6704C157.141 45.0723 157.22 45.4258 157.377 45.7307C157.534 46.0357 157.751 46.2736 158.028 46.4446C158.31 46.6155 158.631 46.701 158.992 46.701C159.347 46.701 159.652 46.6132 159.906 46.4377C160.16 46.2575 160.348 46.0241 160.468 45.7377L161.092 46.0218C161.008 46.2482 160.867 46.4608 160.669 46.6594C160.475 46.8581 160.234 47.0198 159.948 47.1446C159.666 47.2693 159.347 47.3317 158.992 47.3317ZM165.397 47.2485L167.248 42.0853H168.052L169.902 47.2485H169.175L168.752 46.0357H166.548L166.125 47.2485H165.397ZM166.763 45.4119H168.537L167.553 42.5773H167.747L166.763 45.4119Z" fill="white"/>
</svg>
