<svg width="147" height="46" viewBox="0 0 147 46" fill="none" xmlns="http://www.w3.org/2000/svg">
<path d="M20.0083 10.6497C20.3735 10.8642 20.6475 11.17 20.9359 11.4762C21.0577 11.6031 21.1798 11.7298 21.302 11.8563C21.3615 11.9178 21.4209 11.9794 21.4821 12.0428C21.6939 12.2544 21.9173 12.4485 22.1445 12.643C22.4835 12.9421 22.7943 13.2711 23.1107 13.5937C23.3723 13.8583 23.6361 14.1146 23.9181 14.3575C24.3165 14.7007 24.6804 15.0755 25.0484 15.4506C25.3092 15.7144 25.572 15.97 25.8532 16.2119C26.271 16.5718 26.652 16.9665 27.0381 17.3596C27.3611 17.6862 27.6915 17.9956 28.0396 18.2952C28.3594 18.5785 28.6537 18.8881 28.9525 19.1932C29.2036 19.4475 29.4577 19.6925 29.7286 19.9258C30.1277 20.27 30.4927 20.6455 30.8615 21.0215C31.5264 21.6948 31.5264 21.6948 32.2844 22.2562C32.6259 22.492 32.8748 22.7314 33.0413 23.1175C33.279 24.484 33.119 26.0572 32.7991 27.3965C32.7751 27.5006 32.7751 27.5006 32.7505 27.6067C32.1418 30.1804 30.9046 32.4969 29.0852 34.4206C28.9906 34.5295 28.8964 34.6389 28.8027 34.7486C28.266 35.3616 27.685 35.9003 27.0466 36.4059C26.9339 36.4967 26.8224 36.5892 26.7114 36.6821C26.1935 37.1137 25.6615 37.5059 25.0989 37.8772C25.0146 37.9328 24.9304 37.9885 24.8437 38.0458C20.5285 40.8701 20.5285 40.8701 19.0323 40.8818C18.6347 40.7645 18.2613 40.6092 17.883 40.4405C17.8011 40.4044 17.7192 40.3682 17.6349 40.3309C14.9035 39.108 12.3512 37.4677 10.1928 35.3895C10.1506 35.3489 10.1083 35.3084 10.0647 35.2667C9.49829 34.7213 8.97743 34.1569 8.49736 33.5325C8.46294 33.4881 8.42852 33.4437 8.39305 33.398C7.53644 32.2869 6.83111 31.1265 6.31747 29.8186C6.27974 29.7284 6.27974 29.7284 6.24125 29.6363C5.67011 28.2567 5.38933 26.7804 5.26789 25.2974C5.25923 25.2056 5.25057 25.1138 5.24164 25.0192C5.09267 23.2844 5.09267 23.2844 5.4628 22.804C5.67433 22.5904 5.91376 22.4251 6.16376 22.2596C6.44241 22.0584 6.67094 21.8059 6.90786 21.5582C7.18427 21.2746 7.46393 21.001 7.76411 20.7424C8.10632 20.4468 8.42308 20.1299 8.73957 19.8073C9.10448 19.4352 9.47503 19.0798 9.86989 18.7397C10.1516 18.4893 10.4134 18.2193 10.6773 17.9503C10.9907 17.6307 11.304 17.3165 11.6436 17.0244C11.9991 16.7182 12.3267 16.3876 12.6553 16.053C13.035 15.6663 13.4191 15.2946 13.8299 14.9411C14.0965 14.705 14.3438 14.4502 14.593 14.1961C14.9401 13.8452 15.2876 13.5049 15.6653 13.1868C15.9937 12.8908 16.2999 12.5714 16.6109 12.2573C16.9186 11.9477 17.2301 11.6495 17.5648 11.369C17.7161 11.2362 17.8511 11.093 17.989 10.9464C18.5903 10.341 19.2704 10.3094 20.0083 10.6497Z" fill="white"/>
<path d="M25.5035 1.24269C25.5774 1.2662 25.6513 1.2897 25.7275 1.31392C27.3191 1.82149 28.8896 2.37772 30.4515 2.97039C30.6869 3.05971 30.9225 3.14868 31.158 3.23761C33.5813 4.15392 33.5813 4.15392 34.7422 4.71429C34.8497 4.76616 34.9573 4.81771 35.065 4.86898C36.35 5.48184 37.5046 6.12874 38.0501 7.52281C38.303 8.34249 38.3124 9.10891 38.3087 9.95816C38.3087 10.1066 38.3087 10.2551 38.3087 10.4036C38.3087 10.8077 38.3075 11.2118 38.3061 11.616C38.3053 11.8702 38.3047 12.1245 38.3043 12.3788C38.302 13.6707 38.2966 14.9627 38.2901 16.2547C38.2897 16.3531 38.2892 16.4516 38.2887 16.553C38.2818 17.9592 38.2728 19.3654 38.262 20.7715C38.2599 21.0616 38.258 21.3517 38.2561 21.6418C38.2532 22.1029 38.2494 22.564 38.2451 23.0251C38.2436 23.1936 38.2424 23.3621 38.2414 23.5306C38.2054 29.5823 35.9716 34.5381 31.6921 38.7711C31.4175 39.0259 31.1274 39.2595 30.8349 39.4933C30.6467 39.6467 30.4695 39.8056 30.2922 39.9711C29.3619 40.8065 28.2776 41.4937 27.2292 42.1712C27.1499 42.2228 27.0706 42.2744 26.9889 42.3276C26.1016 42.8895 25.1695 43.3755 24.2419 43.8667C24.1816 43.8988 24.1213 43.9308 24.0592 43.9639C19.8588 46.1857 19.8588 46.1857 18.6042 45.8182C18.3415 45.7232 18.0824 45.6216 17.8234 45.5167C17.7298 45.4797 17.6362 45.4426 17.5398 45.4044C16.8331 45.1228 16.1321 44.8318 15.4416 44.5126C15.3773 44.483 15.313 44.4535 15.2467 44.4231C13.2164 43.4878 11.2555 42.3876 9.46711 41.0409C9.4222 41.0071 9.3773 40.9733 9.33103 40.9384C9.02421 40.7064 8.72059 40.4704 8.41753 40.2335C8.35072 40.1825 8.2839 40.1315 8.21506 40.079C6.87068 39.0363 5.58209 37.7849 4.54217 36.4389C4.45915 36.3339 4.3761 36.229 4.29302 36.1241C3.00631 34.4864 1.94119 32.6699 1.23196 30.7066C1.2071 30.6421 1.18224 30.5777 1.15663 30.5112C0.942805 29.9475 0.789168 29.3819 0.656712 28.7941C0.635774 28.702 0.614835 28.61 0.593262 28.5151C0.439158 27.8208 0.321269 27.1365 0.263121 26.4275C0.256712 26.3549 0.250305 26.2822 0.243703 26.2074C0.174355 25.3511 0.165905 24.4975 0.159677 23.6389C0.158237 23.4782 0.156759 23.3175 0.155249 23.1568C0.152114 22.8176 0.14917 22.4785 0.146389 22.1393C0.139136 21.2578 0.13068 20.3764 0.122147 19.4949C0.12132 19.4085 0.120495 19.3221 0.119643 19.2331C0.106752 17.8969 0.0862248 16.5612 0.0562328 15.2253C0.0281003 13.9293 0.010507 12.6335 0.00668146 11.3372C0.00608695 11.1541 0.00523525 10.9711 0.00409438 10.788C-0.0146257 7.5272 -0.0146257 7.5272 1.07049 6.24332C1.58344 5.77659 2.13382 5.42941 2.75082 5.11805C2.87104 5.05645 2.87104 5.05645 2.99368 4.9936C4.04575 4.46168 5.12853 4.00316 6.23539 3.59831C6.67247 3.43836 7.10329 3.26466 7.53448 3.08954C8.09589 2.86271 8.65778 2.65673 9.23405 2.47046C9.60153 2.35166 9.96565 2.22355 10.33 2.09547C10.398 2.07165 10.466 2.04782 10.536 2.02327C10.8831 1.90151 11.2299 1.77889 11.5764 1.6552C12.3636 1.37509 13.1523 1.11759 13.9561 0.889466C14.1752 0.826706 14.3937 0.762309 14.6122 0.697716C18.6964 -0.508226 21.4829 -0.0370806 25.5035 1.24269ZM12.1975 3.6633C11.9332 3.75232 11.6688 3.8409 11.4041 3.92857C10.8648 4.10718 10.3272 4.28822 9.7951 4.4873C9.7317 4.51091 9.66829 4.53452 9.60296 4.55885C9.46678 4.60959 9.33063 4.66041 9.19451 4.7113C8.97736 4.79205 8.75977 4.87155 8.54211 4.9509C6.85706 5.56876 5.16809 6.22338 3.56828 7.0406C3.50113 7.07415 3.43399 7.1077 3.3648 7.14227C2.87428 7.40212 2.52617 7.72297 2.25631 8.21128C2.09259 8.8364 2.10815 9.48681 2.10934 10.1281C2.10927 10.2226 2.10919 10.317 2.10911 10.4143C2.10905 10.6147 2.1092 10.8152 2.10954 11.0156C2.10996 11.3115 2.10955 11.6073 2.10903 11.9031C2.10875 12.8879 2.12093 13.8711 2.15332 14.8554C2.19672 16.1755 2.21212 17.4951 2.22067 18.8159C2.22134 18.9149 2.22202 19.0138 2.22271 19.1158C2.22898 20.0422 2.23469 20.9685 2.2393 21.8948C2.24188 22.4075 2.24522 22.9201 2.249 23.4327C2.25028 23.6251 2.25128 23.8174 2.25198 24.0098C2.25747 25.4921 2.32222 26.9131 2.69532 28.3551C2.71994 28.4515 2.74456 28.5479 2.76992 28.6472C3.11986 29.9703 3.65699 31.1973 4.29996 32.402C4.3495 32.4963 4.39904 32.5906 4.45008 32.6878C4.86918 33.455 5.37599 34.1378 5.91469 34.8241C5.97443 34.9013 6.03417 34.9784 6.09572 35.0578C7.81339 37.2195 9.95933 38.9971 12.2934 40.4558C12.3942 40.5188 12.4947 40.5822 12.5948 40.6461C14.1892 41.6628 15.9263 42.5041 17.673 43.2223C17.8443 43.2934 18.0139 43.3675 18.1832 43.4431C18.2726 43.4813 18.362 43.5195 18.4541 43.5588C18.5254 43.59 18.5967 43.6211 18.6702 43.6531C19.472 43.8247 20.1717 43.4643 20.8863 43.14C20.9949 43.0917 21.1035 43.0433 21.2121 42.9951C21.523 42.8566 21.8329 42.7158 22.1428 42.5749C22.2193 42.5406 22.2958 42.5064 22.3746 42.4711C24.0907 41.7027 25.6852 40.7373 27.2292 39.6683C27.284 39.6308 27.3389 39.5932 27.3954 39.5545C28.104 39.0682 28.7615 38.5375 29.4091 37.9729C29.4697 37.9214 29.5302 37.8698 29.5926 37.8168C30.0105 37.4592 30.3963 37.0731 30.7816 36.6811C31.1853 36.2774 31.1853 36.2774 31.3219 36.1494C32.1493 35.357 32.8151 34.4032 33.4459 33.4516C33.4979 33.3745 33.5498 33.2974 33.6033 33.2179C34.4742 31.8701 35.0976 30.3864 35.5451 28.8496C35.5618 28.793 35.5785 28.7364 35.5957 28.678C36.0525 27.0993 36.1464 25.5072 36.1487 23.8726C36.1499 23.6834 36.1512 23.4942 36.1525 23.305C36.1559 22.8092 36.1579 22.3133 36.1596 21.8175C36.1625 21.035 36.1675 20.2525 36.1722 19.47C36.1734 19.2766 36.1745 19.0831 36.1755 18.8897C36.1844 17.2846 36.2122 15.6804 36.2486 14.0758C36.2511 13.9633 36.2511 13.9633 36.2537 13.8485C36.2562 13.7393 36.2562 13.7393 36.2588 13.6279C36.2763 12.8458 36.2868 12.0639 36.2867 11.2816C36.2869 11.072 36.2884 10.8624 36.2899 10.6528C36.3495 9.09469 36.3495 9.09469 35.8043 7.69848C33.8676 5.92604 30.1911 5.04062 27.7481 4.21134C27.519 4.13279 27.2912 4.05095 27.0634 3.96864C21.4332 1.94124 17.8883 1.74606 12.1975 3.6633Z" fill="white"/>
<path d="M21.1716 18.1926C21.2896 18.2297 21.2896 18.2297 21.41 18.2675C22.396 18.5801 23.3721 18.9129 24.3305 19.3027C24.4006 19.3311 24.4708 19.3596 24.543 19.3889C25.4384 19.7622 26.2509 20.1379 26.6568 21.064C26.8277 21.6173 26.8001 22.19 26.7961 22.7637C26.7963 22.9013 26.7967 23.039 26.7972 23.1767C26.7978 23.4645 26.797 23.7524 26.7951 24.0402C26.7928 24.4041 26.7941 24.7678 26.7965 25.1316C26.8122 28.0205 26.3816 30.3233 24.3405 32.4981C23.1485 33.6344 20.974 35.2219 19.2708 35.194C18.3335 35.0372 17.3732 34.5071 16.5696 34.017C16.4563 33.948 16.4563 33.948 16.3407 33.8776C14.753 32.865 13.4761 31.5365 12.7044 29.8086C12.6822 29.7595 12.6601 29.7104 12.6373 29.6598C12.2065 28.645 12.1715 27.6651 12.172 26.5807C12.1714 26.4245 12.1708 26.2684 12.1701 26.1122C12.1691 25.7865 12.1689 25.4609 12.1694 25.1353C12.1699 24.7194 12.1674 24.3035 12.1641 23.8877C12.162 23.5658 12.1618 23.2439 12.1621 22.922C12.162 22.7687 12.1612 22.6154 12.1598 22.4621C12.1466 20.8941 12.1466 20.8941 12.6135 20.3725C14.4906 18.5944 18.7729 17.433 21.1716 18.1926Z" fill="#141F37"/>
<path d="M23.3517 5.92079C23.5399 5.98284 23.728 6.04487 23.9162 6.10687C24.4554 6.28501 24.9937 6.46537 25.5316 6.64742C25.5986 6.6701 25.6656 6.69277 25.7346 6.71614C26.5487 6.99323 27.3469 7.30383 28.1439 7.62667C28.4441 7.74819 28.7457 7.86523 29.0487 7.97958C29.9842 8.3382 30.9104 8.72142 31.8089 9.1654C31.8598 9.19031 31.9107 9.21521 31.9632 9.24088C32.2154 9.36826 32.4604 9.50636 32.6982 9.65897C32.7426 9.6871 32.787 9.71523 32.8327 9.74422C33.2992 10.2328 33.2345 10.8598 33.2281 11.4907C33.2279 11.5937 33.2278 11.6968 33.2277 11.803C33.2273 12.0809 33.2253 12.3587 33.223 12.6366C33.2213 12.8662 33.2205 13.0958 33.2197 13.3254C33.2129 15.1906 33.1808 17.0552 33.1208 18.9194C32.7635 18.616 32.4108 18.3088 32.0662 17.9909C32.0219 17.9501 31.9776 17.9093 31.932 17.8673C31.5379 17.5013 31.1573 17.1226 30.7812 16.7383C30.5492 16.5026 30.3127 16.2782 30.062 16.0624C29.6424 15.6999 29.2588 15.3035 28.8705 14.9081C28.5475 14.5816 28.2171 14.2721 27.869 13.9726C27.5492 13.6892 27.2549 13.3796 26.9561 13.0745C26.7058 12.821 26.4526 12.5768 26.1825 12.3444C25.764 11.9836 25.3821 11.5882 24.9951 11.1942C24.6718 10.8673 24.3411 10.5577 23.9926 10.258C23.7309 10.0258 23.4898 9.77404 23.2457 9.52367C22.0939 8.36236 20.9012 7.44212 19.1988 7.42452C17.6227 7.44422 16.5208 8.15273 15.4395 9.231C15.3738 9.29646 15.3081 9.36193 15.2405 9.42937C15.1265 9.54374 15.0132 9.65873 14.9008 9.77471C14.7417 9.92954 14.5795 10.0741 14.4114 10.2188C14.0503 10.5322 13.7156 10.8681 13.3807 11.2091C13.0538 11.5419 12.7281 11.8711 12.374 12.1754C12.004 12.4937 11.664 12.8392 11.3219 13.1871C10.9274 13.5884 10.5298 13.9765 10.103 14.3433C9.85164 14.5652 9.61853 14.8044 9.38423 15.044C9.09938 15.3354 8.81271 15.6183 8.5037 15.8842C8.14672 16.1924 7.81719 16.5243 7.48692 16.8606C7.10393 17.2506 6.71661 17.6261 6.30216 17.9826C6.09652 18.1632 5.90687 18.3552 5.71576 18.5511C5.59446 18.6753 5.47211 18.7986 5.34739 18.9194C5.32075 18.9194 5.29411 18.9194 5.26666 18.9194C5.19235 17.2034 5.16839 15.4894 5.16652 13.772C5.16607 13.4184 5.16411 13.065 5.16184 12.7115C5.16034 12.4356 5.15992 12.1597 5.1598 11.8839C5.15955 11.7533 5.15891 11.6228 5.15784 11.4923C5.15647 11.3114 5.15662 11.1307 5.15714 10.9498C5.15685 10.8475 5.15655 10.7452 5.15625 10.6398C5.19462 10.2797 5.30007 9.99877 5.56532 9.74633C7.30734 8.6443 9.29642 7.96891 11.2119 7.23592C11.4236 7.15478 11.6349 7.07301 11.8461 6.99056C12.8522 6.60308 13.8791 6.27243 14.9033 5.93648C15.0872 5.87618 15.2709 5.81571 15.4546 5.75498C18.4761 4.75752 20.3396 4.91854 23.3517 5.92079Z" fill="white"/>
<path d="M20.4492 26.3467C21.8347 26.3467 23.2201 26.3467 24.6475 26.3467C24.6475 28.2415 24.3618 29.3774 23.1135 30.7872C23.0698 30.8377 23.0261 30.8882 22.9811 30.9402C22.3447 31.6263 21.4404 32.2225 20.6107 32.6441C20.5574 32.6441 20.5041 32.6441 20.4492 32.6441C20.4492 30.566 20.4492 28.4878 20.4492 26.3467Z" fill="white"/>
<path d="M14.2305 26.3467C15.6159 26.3467 17.0014 26.3467 18.4288 26.3467C18.4288 28.3982 18.4288 30.4497 18.4288 32.5634C17.0831 32.2943 15.8349 31.0439 15.0883 29.9445C14.3302 28.7865 14.2305 27.7385 14.2305 26.3467Z" fill="white"/>
<path d="M18.4288 20.2109C18.4288 21.5697 18.4288 22.9285 18.4288 24.3285C17.0433 24.3285 15.6579 24.3285 14.2305 24.3285C14.2305 23.4493 14.2305 22.5701 14.2305 21.6642C15.9892 20.8976 15.9892 20.8976 16.6652 20.6878C17.0392 20.5686 17.4053 20.4266 17.7725 20.2879C18.0251 20.2109 18.0251 20.2109 18.4288 20.2109Z" fill="white"/>
<path d="M20.4492 20.2109C21.0861 20.3019 21.0861 20.3019 21.3922 20.4033C21.4599 20.4257 21.5276 20.448 21.5973 20.471C21.668 20.4951 21.7388 20.5192 21.8117 20.544C21.8856 20.5689 21.9596 20.5938 22.0358 20.6194C22.7309 20.8572 23.4078 21.1315 24.0824 21.422C24.2689 21.5019 24.4554 21.5818 24.6475 21.6642C24.6475 22.5434 24.6475 23.4226 24.6475 24.3285C23.2621 24.3285 21.8766 24.3285 20.4492 24.3285C20.4492 22.9697 20.4492 21.6109 20.4492 20.2109Z" fill="white"/>
<path d="M23.2696 30.5449C23.2963 30.6249 23.3229 30.7048 23.3504 30.7871C23.0543 31.0832 22.7583 31.3792 22.4623 31.6752C22.409 31.5953 22.3557 31.5154 22.3008 31.433C22.3572 31.3824 22.4136 31.3319 22.4717 31.2798C22.5452 31.2138 22.6187 31.1478 22.6944 31.0798C22.804 30.9815 22.804 30.9815 22.9158 30.8811C23.0362 30.7717 23.1546 30.66 23.2696 30.5449Z" fill="#FCE7E5"/>
<path d="M31.75 30.3828C31.7767 30.3828 31.8033 30.3828 31.8308 30.3828C31.8308 30.516 31.8308 30.6492 31.8308 30.7865C31.7509 30.8131 31.6709 30.8398 31.5886 30.8672C31.5886 31.0271 31.5886 31.187 31.5886 31.3517C31.482 31.3783 31.3754 31.4049 31.2656 31.4324C31.4018 31.0692 31.5738 30.7277 31.75 30.3828Z" fill="#F9D7D9"/>
<path d="M73.6067 14.2348C73.7867 14.2361 73.7867 14.2361 73.9704 14.2375C76.1682 14.2831 77.9887 15.0764 79.5606 16.6305C80.5002 17.6311 81.0562 18.6968 81.4927 19.9931C81.52 20.0739 81.5473 20.1548 81.5755 20.238C82.0985 22.1289 81.6594 24.2908 80.7356 25.9711C80.4461 26.472 80.1249 26.9222 79.7357 27.3506C79.628 27.4733 79.628 27.4733 79.5182 27.5985C78.4861 28.7077 77.2215 29.3403 75.7824 29.7665C75.6461 29.807 75.6461 29.807 75.507 29.8484C73.4128 30.3631 71.0701 29.8479 69.2416 28.7713C67.5728 27.6482 66.327 25.9624 65.8867 23.9854C65.4944 21.9006 65.6878 19.5854 66.8875 17.7968C68.4669 15.5502 70.8465 14.2076 73.6067 14.2348Z" fill="white"/>
<path d="M48.8789 9.01032C50.1472 9.01032 51.4156 9.01032 52.7224 9.01032C52.7586 11.9456 52.7948 14.8809 52.8322 17.9052C53.6664 16.9426 54.4988 15.9803 55.3193 15.0063C55.4713 14.8261 55.6239 14.6463 55.7765 14.4667C56.253 13.9056 56.7264 13.3429 57.1904 12.7714C57.5552 12.3231 57.9328 11.8901 58.3194 11.4605C58.6441 11.0909 58.9518 10.7083 59.2597 10.3247C59.3492 10.2171 59.4386 10.1095 59.5308 9.99864C59.5775 9.91429 59.6242 9.82993 59.6723 9.74301C59.9318 9.34507 60.166 9.06237 60.6487 8.95911C61.3732 8.88508 62.0989 8.92059 62.8252 8.94855C63.0487 8.95352 63.2722 8.95803 63.4956 8.96207C64.0411 8.97291 64.5861 8.98994 65.1313 9.01032C65.0282 9.14894 64.925 9.28742 64.8217 9.42585C64.7642 9.50298 64.7068 9.58012 64.6476 9.65958C64.3896 9.99713 64.1134 10.317 63.8341 10.6369C63.4385 11.094 63.0476 11.5533 62.6673 12.0233C62.2169 12.578 61.7506 13.1175 61.2814 13.6563C60.8417 14.1616 60.4057 14.6697 59.9751 15.1828C59.717 15.4901 59.4564 15.7947 59.1911 16.0959C59.1354 16.1597 59.0797 16.2236 59.0223 16.2895C58.9159 16.4115 58.8086 16.5328 58.7005 16.6533C58.4045 16.9948 58.2546 17.2353 58.213 17.6856C58.293 17.9201 58.293 17.9201 58.4404 18.1385C58.4928 18.224 58.5453 18.3094 58.5993 18.3974C58.6576 18.4887 58.7158 18.5799 58.7758 18.6739C58.8355 18.7702 58.8952 18.8665 58.9566 18.9658C59.1466 19.272 59.3387 19.5769 59.5308 19.8818C59.7101 20.1704 59.8888 20.4594 60.0674 20.7484C60.1862 20.9404 60.3051 21.1323 60.4243 21.3241C60.8889 22.0723 61.3436 22.826 61.7955 23.5818C62.4745 24.7172 63.1643 25.8458 63.8616 26.9699C63.9255 27.073 63.9894 27.1761 64.0553 27.2822C64.179 27.4816 64.3029 27.6808 64.4269 27.8799C65.3509 29.3672 65.3509 29.3672 65.3509 29.6552C64.7435 29.6962 64.1369 29.7259 63.5285 29.7457C63.3221 29.7539 63.1157 29.7652 62.9096 29.7795C61.2513 29.8917 61.2513 29.8917 60.7756 29.5077C60.4537 29.1208 60.2542 28.6813 60.0619 28.2194C59.9328 27.9224 59.7651 27.6562 59.5913 27.3834C59.533 27.2878 59.4747 27.1922 59.4147 27.0936C59.3556 26.9967 59.2965 26.8999 59.2357 26.8001C59.1709 26.6938 59.1062 26.5875 59.0395 26.478C58.7713 26.0377 58.5029 25.5976 58.2345 25.1574C57.3429 23.6953 56.4563 22.2303 55.5775 20.7603C55.1079 20.9707 54.8366 21.2971 54.5137 21.6869C54.4611 21.7491 54.4085 21.8113 54.3543 21.8754C54.2399 22.0113 54.128 22.1494 54.0181 22.289C53.8205 22.5174 53.8205 22.5174 53.561 22.7318C52.8937 23.3516 52.7721 23.8609 52.7221 24.7499C52.7041 25.4222 52.7077 26.0933 52.7155 26.7658C52.7152 27.0459 52.7144 27.3261 52.7131 27.6063C52.7103 28.2895 52.7165 28.9718 52.7224 29.6552C51.454 29.6552 50.1857 29.6552 48.8789 29.6552C48.8789 22.8424 48.8789 16.0296 48.8789 9.01032Z" fill="white"/>
<path d="M96.679 14.235C96.8098 14.2358 96.9405 14.2366 97.0752 14.2375C98.9124 14.2719 100.43 14.8268 101.781 16.1031C102.681 17.0832 103.066 18.1754 103.051 19.4841C103.051 19.6498 103.051 19.6498 103.051 19.8188C103.051 20.1813 103.049 20.5437 103.046 20.9061C103.045 21.1585 103.045 21.4108 103.045 21.6631C103.043 22.3253 103.04 22.9875 103.037 23.6497C103.033 24.3261 103.032 25.0026 103.03 25.6791C103.026 27.0051 103.021 28.331 103.014 29.6569C101.89 29.6569 100.767 29.6569 99.6097 29.6569C99.5734 29.1858 99.5372 28.7147 99.4999 28.2293C99.3843 28.3425 99.2688 28.4558 99.1498 28.5725C97.7377 29.8006 95.8431 30.1186 94.0286 30.0095C92.6027 29.871 91.3753 29.2566 90.4613 28.1598C89.7002 27.0946 89.6173 25.8829 89.7265 24.6055C90.0146 23.4205 90.7612 22.4835 91.7786 21.8258C94.0435 20.5964 96.8638 20.3723 99.39 20.1031C99.3873 19.3467 99.3204 18.7869 98.8212 18.1985C98.0646 17.5101 97.1686 17.418 96.1836 17.4371C95.6287 17.4776 95.2445 17.6126 94.7779 17.9068C94.6613 17.9767 94.6613 17.9767 94.5424 18.048C93.9478 18.444 93.6473 18.9115 93.3503 19.554C92.7234 19.4484 92.1933 19.19 91.6208 18.9226C91.5142 18.8753 91.4076 18.8281 91.2978 18.7793C91.1965 18.7321 91.0953 18.6848 90.991 18.6361C90.8985 18.5936 90.806 18.5512 90.7106 18.5075C90.4952 18.3461 90.4952 18.3461 90.4011 18.0716C90.3644 17.4322 90.9494 16.8414 91.3342 16.3669C91.8506 15.8129 92.48 15.4304 93.1307 15.0517C93.2447 14.9852 93.2447 14.9852 93.361 14.9174C94.4127 14.3495 95.4993 14.2245 96.679 14.235Z" fill="white"/>
<path d="M113.544 14.2349C113.661 14.236 113.777 14.237 113.897 14.2381C115.503 14.2746 116.631 14.8547 117.83 15.8915C119.35 17.4839 119.3 19.5789 119.29 21.6246C119.289 21.8567 119.289 22.0889 119.289 22.3211C119.288 22.9285 119.286 23.536 119.283 24.1435C119.281 24.7648 119.28 25.3861 119.279 26.0074C119.277 27.2239 119.273 28.4403 119.268 29.6568C118.036 29.6568 116.804 29.6568 115.535 29.6568C115.533 29.3614 115.531 29.0661 115.53 28.7618C115.524 27.7848 115.517 26.8078 115.509 25.8308C115.504 25.2386 115.5 24.6464 115.497 24.0542C115.494 23.4824 115.489 22.9107 115.484 22.3389C115.482 22.121 115.481 21.9031 115.48 21.6852C115.479 21.3795 115.476 21.0738 115.472 20.7681C115.472 20.6785 115.473 20.5888 115.473 20.4964C115.458 19.6074 115.155 18.9751 114.545 18.3242C113.817 17.6654 113.036 17.6169 112.079 17.6447C111.569 17.7005 111.225 17.8278 110.813 18.1264C110.697 18.2034 110.582 18.2804 110.463 18.3598C109.817 18.9548 109.581 19.6621 109.54 20.5224C109.527 21.0293 109.526 21.5358 109.527 22.0428C109.526 22.2628 109.524 22.4828 109.522 22.7028C109.518 23.2787 109.517 23.8546 109.516 24.4305C109.515 25.0194 109.511 25.6083 109.507 26.1973C109.5 27.3504 109.497 28.5036 109.495 29.6568C108.299 29.6568 107.103 29.6568 105.871 29.6568C105.871 24.6921 105.871 19.7275 105.871 14.6124C106.994 14.6124 108.118 14.6124 109.275 14.6124C109.33 15.3734 109.33 15.3734 109.385 16.1498C109.492 16.0184 109.598 15.887 109.708 15.7517C110.759 14.5586 111.991 14.219 113.544 14.2349Z" fill="white"/>
<path d="M131.236 14.502C132.432 14.502 133.627 14.502 134.86 14.502C134.86 19.5028 134.86 24.5037 134.86 29.6562C133.7 29.6562 132.54 29.6562 131.345 29.6562C131.309 29.1488 131.273 28.6415 131.236 28.1188C131.141 28.2479 131.045 28.377 130.947 28.51C130.193 29.3711 128.964 29.8992 127.831 29.9856C126.111 30.0922 124.675 29.8207 123.309 28.6884C122.186 27.6341 121.521 26.1464 121.453 24.6018C121.449 24.3385 121.449 24.0754 121.45 23.8121C121.45 23.7124 121.45 23.6127 121.45 23.51C121.45 23.182 121.451 22.854 121.452 22.526C121.452 22.298 121.452 22.07 121.452 21.842C121.452 21.243 121.454 20.644 121.455 20.045C121.456 19.4333 121.456 18.8216 121.457 18.2099C121.458 17.0105 121.46 15.8111 121.462 14.6118C122.658 14.6118 123.854 14.6118 125.086 14.6118C125.087 14.8949 125.088 15.1779 125.089 15.4696C125.093 16.4085 125.099 17.3473 125.106 18.2861C125.111 18.855 125.114 19.4238 125.116 19.9926C125.118 20.5423 125.121 21.0919 125.127 21.6416C125.128 21.8506 125.129 22.0595 125.129 22.2685C125.108 24.0934 125.108 24.0934 125.896 25.696C126.82 26.4221 127.531 26.7166 128.71 26.5814C129.69 26.3167 130.294 25.9243 130.807 25.0606C131.279 24.0781 131.192 23.0088 131.193 21.9444C131.194 21.7293 131.196 21.5142 131.198 21.2991C131.203 20.7362 131.205 20.1734 131.207 19.6105C131.209 19.0348 131.214 18.4591 131.218 17.8834C131.226 16.7563 131.232 15.6291 131.236 14.502Z" fill="white"/>
<path d="M139.147 11.0977C140.343 11.0977 141.539 11.0977 142.771 11.0977C142.771 12.2573 142.771 13.4169 142.771 14.6117C143.93 14.6117 145.09 14.6117 146.285 14.6117C146.285 15.6626 146.285 16.7135 146.285 17.7963C145.125 17.7963 143.965 17.7963 142.771 17.7963C142.777 19.0435 142.777 19.0435 142.788 20.2907C142.794 20.7998 142.798 21.309 142.8 21.8182C142.802 22.2291 142.806 22.6399 142.811 23.0507C142.813 23.2069 142.814 23.3631 142.814 23.5193C142.815 24.5488 142.866 25.2568 143.532 26.0734C144.083 26.5075 144.657 26.5145 145.331 26.5401C145.645 26.5537 145.96 26.5673 146.285 26.5813C146.285 27.596 146.285 28.6107 146.285 29.6561C144.571 29.9417 142.777 29.9549 141.254 29.0315C140.29 28.3221 139.736 27.4955 139.366 26.3617C139.328 26.2462 139.29 26.1307 139.251 26.0117C139.068 25.2632 139.12 24.4815 139.125 23.7159C139.126 23.5448 139.126 23.3737 139.126 23.2026C139.127 22.7549 139.129 22.3072 139.132 21.8595C139.134 21.4016 139.135 20.9437 139.136 20.4858C139.138 19.5893 139.142 18.6928 139.147 17.7963C138.313 17.7963 137.48 17.7963 136.621 17.7963C136.621 16.7454 136.621 15.6944 136.621 14.6117C136.983 14.5392 137.346 14.4667 137.719 14.3921C138.297 14.1739 138.571 13.8924 138.927 13.4037C139.025 13.1117 139.057 12.9117 139.072 12.6097C139.076 12.5303 139.08 12.4509 139.084 12.369C139.092 12.2187 139.092 12.2187 139.099 12.0654C139.115 11.746 139.13 11.4267 139.147 11.0977Z" fill="white"/>
<path d="M83.9102 8.68164C85.106 8.68164 86.3019 8.68164 87.534 8.68164C87.534 15.6032 87.534 22.5247 87.534 29.656C86.3381 29.656 85.1423 29.656 83.9102 29.656C83.9102 22.7344 83.9102 15.8129 83.9102 8.68164Z" fill="white"/>
<path d="M75.4377 17.8772C76.5804 18.552 77.4737 19.4833 77.8274 20.7963C78.0394 22.3111 77.8926 23.8489 76.9695 25.1056C76.3355 25.8874 75.5601 26.4831 74.5348 26.6143C74.2588 26.6292 73.9858 26.6326 73.7094 26.6292C73.6122 26.6282 73.5151 26.6271 73.415 26.626C72.2527 26.5944 71.5066 26.2641 70.6578 25.4582C69.5685 24.1649 69.4217 22.7155 69.5228 21.0905C69.6914 19.9612 70.3874 18.936 71.2798 18.2354C72.5251 17.5026 74.0874 17.2239 75.4377 17.8772Z" fill="#141F37"/>
<path d="M99.3919 22.9575C99.4608 24.1785 99.3382 25.0488 98.5546 26.0117C97.7748 26.832 96.7247 27.2285 95.6033 27.2745C94.9322 27.256 94.4272 27.0774 93.915 26.6431C93.513 26.1583 93.4119 25.803 93.4272 25.1808C93.4983 24.6764 93.7959 24.3777 94.1483 24.035C94.9422 23.5118 95.8373 23.3947 96.7604 23.2471C96.983 23.2114 97.2052 23.1741 97.4275 23.1366C98.0916 23.0278 98.7173 22.9439 99.3919 22.9575Z" fill="#141F37"/>
<path d="M121.812 33.219C122.236 33.2099 122.66 33.2009 123.096 33.1915C123.295 33.1855 123.295 33.1855 123.498 33.1794C124.36 33.1705 124.36 33.1705 124.8 33.4137C125.095 33.7802 125.152 34.0717 125.107 34.5367C124.928 34.9142 124.928 34.9142 124.668 35.1956C124.377 35.2681 124.377 35.2681 124.119 35.3054C124.187 35.3967 124.256 35.488 124.327 35.5821C124.418 35.7026 124.508 35.8232 124.599 35.9437C124.644 36.0038 124.69 36.0639 124.736 36.1258C125.327 36.9112 125.327 36.9112 125.327 37.2821C125.025 37.3215 125.025 37.3215 124.668 37.2821C124.427 37.0093 124.427 37.0093 124.215 36.6506C123.8 35.8857 123.8 35.8857 123.091 35.4581C123.004 35.453 122.918 35.4479 122.828 35.4427C122.674 35.4336 122.52 35.4246 122.362 35.4152C122.362 36.0313 122.362 36.6474 122.362 37.2821C122.18 37.2821 121.999 37.2821 121.812 37.2821C121.812 35.9413 121.812 34.6004 121.812 33.219Z" fill="white"/>
<path d="M144.323 33.2188C144.576 33.2188 144.83 33.2188 145.091 33.2188C145.247 33.5985 145.402 33.9783 145.558 34.3581C145.601 34.4641 145.645 34.5701 145.69 34.6794C145.777 34.8927 145.864 35.1062 145.951 35.3197C146.036 35.5268 146.121 35.7336 146.206 35.9402C146.245 36.0355 146.285 36.1309 146.325 36.2292C146.377 36.3552 146.377 36.3552 146.43 36.4838C146.524 36.7478 146.58 37.0063 146.629 37.2818C146.411 37.2818 146.194 37.2818 145.97 37.2818C145.825 36.9195 145.68 36.5571 145.53 36.1837C144.951 36.1475 144.371 36.1112 143.773 36.0739C143.74 36.2528 143.706 36.4317 143.671 36.6161C143.568 37.1583 143.568 37.1583 143.444 37.2818C143.224 37.2863 143.005 37.2865 142.785 37.2818C142.85 36.9168 142.939 36.5885 143.079 36.245C143.115 36.1543 143.152 36.0636 143.189 35.9702C143.247 35.8279 143.247 35.8279 143.307 35.6827C143.346 35.5854 143.385 35.4881 143.426 35.3879C143.72 34.6628 144.018 33.9394 144.323 33.2188Z" fill="white"/>
<path d="M107.756 33.2188C108.009 33.2188 108.263 33.2188 108.524 33.2188C108.63 33.4554 108.735 33.692 108.84 33.9287C108.914 34.0951 108.988 34.2613 109.064 34.4271C109.325 35.0057 109.571 35.5906 109.815 36.1768C109.85 36.2601 109.885 36.3435 109.921 36.4293C110.172 37.0366 110.172 37.0366 110.172 37.2818C109.863 37.3162 109.863 37.3162 109.513 37.2818C109.173 36.8838 109.163 36.6128 109.073 36.0739C108.494 36.0739 107.914 36.0739 107.316 36.0739C107.208 36.4725 107.099 36.8711 106.987 37.2818C106.77 37.2818 106.552 37.2818 106.328 37.2818C106.407 36.7582 106.599 36.2944 106.795 35.8062C107.134 34.9497 107.452 34.0885 107.756 33.2188Z" fill="white"/>
<path d="M137.992 33.2874C138.311 33.576 138.502 33.8384 138.719 34.2071C138.683 34.2796 138.647 34.352 138.61 34.4267C138.356 34.461 138.356 34.461 138.061 34.4267C137.875 34.159 137.875 34.159 137.731 33.8776C137.349 33.6867 136.94 33.7031 136.523 33.7678C136.13 34.0625 135.953 34.2803 135.864 34.7561C135.805 35.3799 135.827 35.872 136.194 36.4033C136.53 36.6927 136.688 36.7337 137.134 36.7259C137.544 36.6142 137.696 36.5169 137.951 36.1837C137.987 36.075 138.023 35.9663 138.061 35.8543C138.278 35.8543 138.495 35.8543 138.719 35.8543C138.689 36.2889 138.638 36.4802 138.349 36.8151C137.766 37.3148 137.402 37.3303 136.652 37.3153C136.192 37.2711 135.968 37.1745 135.645 36.8426C135.153 36.2247 135.139 35.5547 135.163 34.7875C135.237 34.1548 135.456 33.8325 135.926 33.3972C136.551 32.9803 137.324 32.966 137.992 33.2874Z" fill="white"/>
<path d="M114.457 33.2188C115.363 33.2188 116.269 33.2188 117.202 33.2188C117.202 33.3637 117.202 33.5087 117.202 33.658C116.478 33.658 115.753 33.658 115.006 33.658C115.006 34.0566 115.006 34.4552 115.006 34.8659C115.658 34.8659 116.311 34.8659 116.983 34.8659C116.983 35.0471 116.983 35.2283 116.983 35.415C116.367 35.415 115.751 35.415 115.116 35.415C115.116 36.0311 115.116 36.6471 115.116 37.2818C114.898 37.2818 114.681 37.2818 114.457 37.2818C114.457 35.941 114.457 34.6002 114.457 33.2188Z" fill="white"/>
<path d="M122.359 33.6588C122.625 33.6499 122.89 33.6433 123.156 33.6382C123.23 33.6354 123.305 33.6327 123.382 33.6298C123.742 33.6246 123.969 33.6356 124.279 33.8248C124.334 33.8787 124.389 33.9327 124.446 33.9882C124.418 34.3588 124.418 34.3588 124.336 34.7569C123.96 35.0448 123.558 34.9987 123.101 34.9903C122.962 34.9883 122.823 34.9863 122.68 34.9843C122.574 34.9817 122.468 34.9792 122.359 34.9765C122.359 34.5417 122.359 34.1068 122.359 33.6588Z" fill="#141F37"/>
<path d="M129.938 33.2188C130.119 33.2188 130.3 33.2188 130.487 33.2188C130.487 34.5596 130.487 35.9004 130.487 37.2818C130.305 37.2818 130.124 37.2818 129.938 37.2818C129.938 35.941 129.938 34.6002 129.938 33.2188Z" fill="white"/>
</svg>
