<svg width="63" height="27" viewBox="0 0 63 27" fill="none" xmlns="http://www.w3.org/2000/svg">
<g clip-path="url(#clip0_1214_7292)">
<path d="M0.5625 21.0005H13.2465V17.4445H5.0985V0.980469H0.5625V21.0005Z" fill="white"/>
<path d="M21.5874 18.2275C19.2914 18.2275 18.0034 16.5475 18.0034 13.7475V13.5235C18.0034 10.7235 19.3474 9.09953 21.5874 9.09953C23.8554 9.09953 25.1714 10.7795 25.1714 13.5795V13.7755C25.1714 16.5475 23.8554 18.2275 21.5874 18.2275ZM21.5594 21.3075C25.9554 21.3075 29.2874 18.3675 29.2874 13.7475V13.5235C29.2874 8.95953 25.9834 6.01953 21.5874 6.01953C17.1914 6.01953 13.8594 9.01553 13.8594 13.6075V13.8315C13.8594 18.3955 17.1914 21.3075 21.5594 21.3075Z" fill="white"/>
<path d="M37.6654 26.4035C42.4814 26.4035 45.3654 24.1915 45.3934 19.8515V6.35553H41.3614V8.53953C40.5214 7.05553 39.0934 6.01953 36.7134 6.01953C33.0734 6.01953 30.2734 8.95953 30.2734 13.1595V13.3555C30.2734 17.6955 33.1014 20.3555 36.6574 20.3555C38.8134 20.3555 40.5494 19.0675 41.3614 17.6395V19.8515C41.3614 22.1475 40.1294 23.4355 37.6654 23.4355C35.5934 23.4355 34.6694 22.5955 34.4174 21.3075H30.3854C30.7774 24.3315 32.9334 26.4035 37.6654 26.4035ZM37.8614 17.3035C35.8454 17.3035 34.4174 15.7915 34.4174 13.3555V13.1315C34.4174 10.7235 35.6774 9.09953 37.9454 9.09953C40.1574 9.09953 41.4734 10.6115 41.4734 13.1035V13.2995C41.4734 15.7915 39.9894 17.3035 37.8614 17.3035Z" fill="white"/>
<path d="M54.9624 18.2275C52.6664 18.2275 51.3784 16.5475 51.3784 13.7475V13.5235C51.3784 10.7235 52.7224 9.09953 54.9624 9.09953C57.2304 9.09953 58.5464 10.7795 58.5464 13.5795V13.7755C58.5464 16.5475 57.2304 18.2275 54.9624 18.2275ZM54.9344 21.3075C59.3304 21.3075 62.6624 18.3675 62.6624 13.7475V13.5235C62.6624 8.95953 59.3584 6.01953 54.9624 6.01953C50.5664 6.01953 47.2344 9.01553 47.2344 13.6075V13.8315C47.2344 18.3955 50.5664 21.3075 54.9344 21.3075Z" fill="white"/>
</g>
<defs>
<clipPath id="clip0_1214_7292">
<rect width="63" height="27" fill="white"/>
</clipPath>
</defs>
</svg>
