<svg width="196" height="78" viewBox="0 0 196 78" fill="none" xmlns="http://www.w3.org/2000/svg">
<path d="M106.865 32.4829C107.086 32.4846 107.086 32.4846 107.311 32.4863C110.007 32.5418 112.24 33.5091 114.168 35.4041C115.32 36.6242 116.002 37.9236 116.537 39.5042C116.571 39.6027 116.604 39.7013 116.639 39.8028C117.28 42.1084 116.742 44.7445 115.609 46.7933C115.254 47.404 114.86 47.953 114.382 48.4754C114.25 48.625 114.25 48.625 114.116 48.7777C112.85 50.1301 111.299 50.9014 109.534 51.4211C109.367 51.4706 109.367 51.4706 109.196 51.521C106.628 52.1486 103.754 51.5204 101.512 50.2077C99.465 48.8382 97.937 46.7827 97.3971 44.3721C96.9159 41.8301 97.153 39.007 98.6245 36.8262C100.562 34.0869 103.48 32.4497 106.865 32.4829Z" fill="#252525"/>
<path d="M76.5352 26.1172C78.0908 26.1172 79.6463 26.1172 81.2491 26.1172C81.2935 29.6963 81.338 33.2753 81.3838 36.9629C82.407 35.7892 83.4278 34.6159 84.4341 33.4282C84.6206 33.2085 84.8077 32.9893 84.995 32.7702C85.5794 32.0861 86.1599 31.4 86.729 30.7032C87.1764 30.1565 87.6396 29.6285 88.1137 29.1048C88.5119 28.6541 88.8894 28.1875 89.267 27.7198C89.3767 27.5886 89.4864 27.4574 89.5995 27.3222C89.6568 27.2194 89.7141 27.1165 89.7731 27.0105C90.0913 26.5253 90.3786 26.1806 90.9705 26.0547C91.8591 25.9645 92.7492 26.0078 93.64 26.0418C93.9141 26.0479 94.1882 26.0534 94.4623 26.0583C95.1313 26.0715 95.7997 26.0923 96.4683 26.1172C96.3419 26.2862 96.2153 26.455 96.0887 26.6238C96.0182 26.7179 95.9477 26.8119 95.8751 26.9088C95.5587 27.3204 95.2199 27.7105 94.8774 28.1005C94.3922 28.6578 93.9127 29.2179 93.4464 29.791C92.894 30.4673 92.322 31.1251 91.7466 31.7821C91.2073 32.3982 90.6725 33.0178 90.1444 33.6434C89.8278 34.0182 89.5082 34.3895 89.1828 34.7567C89.1145 34.8346 89.0462 34.9125 88.9758 34.9928C88.8453 35.1416 88.7138 35.2895 88.5811 35.4365C88.2182 35.8528 88.0343 36.1461 87.9833 36.6951C88.0814 36.9811 88.0814 36.9811 88.2621 37.2474C88.3264 37.3516 88.3908 37.4558 88.457 37.5631C88.5285 37.6743 88.5999 37.7856 88.6735 37.9002C88.7467 38.0176 88.8199 38.1351 88.8953 38.2561C89.1283 38.6295 89.3639 39.0012 89.5995 39.3731C89.8194 39.7249 90.0385 40.0773 90.2576 40.4297C90.4033 40.6638 90.5492 40.8978 90.6954 41.1317C91.2652 42.0439 91.8229 42.9629 92.3771 43.8846C93.2099 45.2689 94.0559 46.645 94.9111 48.0158C94.9895 48.1414 95.0679 48.2671 95.1486 48.3966C95.3004 48.6396 95.4523 48.8825 95.6044 49.1254C96.7377 50.9389 96.7377 50.9389 96.7377 51.29C95.9928 51.3399 95.2488 51.3762 94.5026 51.4003C94.2494 51.4104 93.9963 51.424 93.7435 51.4415C91.7097 51.5784 91.7097 51.5784 91.1262 51.1101C90.7314 50.6384 90.4868 50.1025 90.2509 49.5393C90.0926 49.1771 89.8868 48.8525 89.6737 48.52C89.6022 48.4033 89.5307 48.2867 89.4571 48.1666C89.3846 48.0484 89.3122 47.9303 89.2375 47.8086C89.1581 47.679 89.0787 47.5494 88.9969 47.4159C88.6679 46.8791 88.3388 46.3424 88.0096 45.8057C86.9161 44.0229 85.8287 42.2366 84.7509 40.4442C84.1749 40.7008 83.8422 41.0987 83.4461 41.574C83.3816 41.6499 83.3171 41.7257 83.2507 41.8039C83.1103 41.9696 82.973 42.1379 82.8382 42.3081C82.5959 42.5866 82.5959 42.5866 82.2776 42.8481C81.4592 43.6038 81.3101 44.2249 81.2488 45.3088C81.2267 46.1286 81.2311 46.9469 81.2407 47.7668C81.2403 48.1084 81.2393 48.4501 81.2378 48.7917C81.2342 49.6248 81.2419 50.4567 81.2491 51.29C79.6935 51.29 78.1379 51.29 76.5352 51.29C76.5352 42.983 76.5352 34.6759 76.5352 26.1172Z" fill="#252525"/>
<path d="M135.165 32.4831C135.325 32.4842 135.485 32.4852 135.651 32.4862C137.904 32.5282 139.765 33.2047 141.422 34.761C142.526 35.9561 142.999 37.2878 142.98 38.8836C142.98 39.0856 142.98 39.0856 142.98 39.2917C142.98 39.7336 142.977 40.1755 142.974 40.6174C142.973 40.9251 142.973 41.2328 142.972 41.5405C142.971 42.3479 142.967 43.1553 142.962 43.9627C142.958 44.7876 142.956 45.6124 142.954 46.4373C142.95 48.054 142.943 49.6707 142.934 51.2874C141.557 51.2874 140.179 51.2874 138.759 51.2874C138.715 50.713 138.67 50.1386 138.625 49.5468C138.483 49.6849 138.341 49.8229 138.195 49.9652C136.463 51.4628 134.14 51.8505 131.914 51.7174C130.165 51.5485 128.66 50.7993 127.539 49.462C126.605 48.1632 126.504 46.6858 126.638 45.1281C126.991 43.6833 127.907 42.5407 129.155 41.7388C131.932 40.2398 135.391 39.9666 138.49 39.6383C138.486 38.716 138.404 38.0334 137.792 37.316C136.864 36.4766 135.765 36.3643 134.557 36.3876C133.877 36.437 133.405 36.6015 132.833 36.9604C132.69 37.0455 132.69 37.0455 132.544 37.1324C131.815 37.6153 131.446 38.1854 131.082 38.9688C130.313 38.84 129.663 38.5249 128.961 38.1989C128.83 38.1413 128.699 38.0836 128.565 38.0242C128.441 37.9666 128.317 37.9089 128.189 37.8495C128.075 37.7978 127.962 37.7461 127.845 37.6927C127.58 37.496 127.58 37.496 127.465 37.1613C127.42 36.3816 128.138 35.6613 128.61 35.0826C129.243 34.4071 130.015 33.9408 130.813 33.479C130.953 33.398 130.953 33.398 131.095 33.3153C132.385 32.6228 133.718 32.4703 135.165 32.4831Z" fill="#252525"/>
<path d="M155.849 32.4831C155.991 32.4844 156.134 32.4857 156.281 32.487C158.251 32.5315 159.635 33.2388 161.105 34.503C162.969 36.4446 162.908 38.9991 162.895 41.4935C162.895 41.7765 162.894 42.0596 162.894 42.3427C162.893 43.0834 162.89 43.8241 162.887 44.5648C162.885 45.3224 162.883 46.08 162.882 46.8376C162.879 48.3209 162.874 49.8041 162.869 51.2874C161.358 51.2874 159.847 51.2874 158.29 51.2874C158.288 50.9272 158.286 50.5671 158.284 50.196C158.277 49.0047 158.268 47.8135 158.258 46.6222C158.252 45.9001 158.247 45.178 158.243 44.4559C158.239 43.7587 158.234 43.0616 158.227 42.3645C158.225 42.0988 158.223 41.8331 158.223 41.5674C158.221 41.1946 158.218 40.8219 158.213 40.4492C158.213 40.3399 158.214 40.2306 158.214 40.1179C158.196 39.0339 157.824 38.2629 157.076 37.4692C156.183 36.6659 155.226 36.6068 154.051 36.6407C153.426 36.7088 153.004 36.864 152.498 37.2281C152.357 37.322 152.215 37.4159 152.069 37.5126C151.277 38.2382 150.988 39.1006 150.937 40.1496C150.921 40.7676 150.92 41.3852 150.922 42.0034C150.92 42.2717 150.918 42.54 150.915 42.8082C150.91 43.5104 150.909 44.2126 150.908 44.9148C150.907 45.6329 150.902 46.351 150.897 47.0691C150.888 48.4752 150.884 49.8812 150.882 51.2874C149.415 51.2874 147.949 51.2874 146.438 51.2874C146.438 45.2338 146.438 39.1803 146.438 32.9433C147.815 32.9433 149.193 32.9433 150.613 32.9433C150.679 33.8713 150.679 33.8713 150.747 34.8179C150.878 34.6577 151.008 34.4976 151.143 34.3325C152.433 32.8777 153.943 32.4636 155.849 32.4831Z" fill="#252525"/>
<path d="M177.548 32.8086C179.015 32.8086 180.481 32.8086 181.992 32.8086C181.992 38.9063 181.992 45.004 181.992 51.2865C180.57 51.2865 179.148 51.2865 177.683 51.2865C177.638 50.6679 177.594 50.0493 177.548 49.4119C177.431 49.5694 177.314 49.7268 177.194 49.889C176.269 50.939 174.762 51.5829 173.373 51.6882C171.263 51.8181 169.501 51.4872 167.825 50.1065C166.449 48.8209 165.632 47.007 165.549 45.1236C165.544 44.8025 165.544 44.4818 165.546 44.1607C165.546 44.0391 165.546 43.9175 165.546 43.7923C165.546 43.3924 165.547 42.9925 165.548 42.5926C165.548 42.3145 165.548 42.0365 165.548 41.7584C165.549 41.0281 165.55 40.2977 165.552 39.5673C165.553 38.8215 165.554 38.0756 165.554 37.3297C165.556 35.8673 165.558 34.4049 165.561 32.9425C167.028 32.9425 168.494 32.9425 170.006 32.9425C170.007 33.2877 170.008 33.6328 170.009 33.9885C170.014 35.1333 170.021 36.278 170.03 37.4227C170.036 38.1163 170.04 38.8099 170.042 39.5035C170.044 40.1737 170.049 40.8439 170.055 41.5142C170.057 41.7689 170.058 42.0237 170.058 42.2785C170.032 44.5037 170.032 44.5037 170.999 46.4578C172.132 47.3432 173.004 47.7023 174.45 47.5374C175.652 47.2146 176.393 46.7361 177.022 45.6831C177.601 44.485 177.495 43.1812 177.495 41.8833C177.497 41.6211 177.499 41.3588 177.502 41.0965C177.508 40.4102 177.511 39.7239 177.513 39.0375C177.515 38.3356 177.521 37.6336 177.526 36.9317C177.536 35.5573 177.543 34.183 177.548 32.8086Z" fill="#252525"/>
<path d="M187.246 28.6611C188.713 28.6611 190.18 28.6611 191.691 28.6611C191.691 30.0751 191.691 31.4891 191.691 32.9459C193.113 32.9459 194.535 32.9459 196.001 32.9459C196.001 34.2273 196.001 35.5087 196.001 36.8289C194.578 36.8289 193.156 36.8289 191.691 36.8289C191.699 38.3497 191.699 38.3497 191.712 39.8704C191.719 40.4913 191.725 41.1121 191.727 41.733C191.729 42.234 191.734 42.7349 191.74 43.2358C191.742 43.4263 191.743 43.6167 191.744 43.8072C191.745 45.0624 191.808 45.9258 192.625 46.9215C193.301 47.4507 194.005 47.4593 194.831 47.4905C195.217 47.5071 195.603 47.5237 196.001 47.5407C196.001 48.778 196.001 50.0152 196.001 51.2899C193.899 51.6381 191.698 51.6542 189.83 50.5283C188.648 49.6634 187.969 48.6554 187.516 47.273C187.469 47.1321 187.422 46.9913 187.374 46.8462C187.149 45.9335 187.213 44.9804 187.22 44.0468C187.22 43.8382 187.221 43.6296 187.221 43.421C187.222 42.8751 187.225 42.3292 187.228 41.7833C187.23 41.225 187.232 40.6667 187.233 40.1084C187.236 39.0152 187.241 37.9221 187.246 36.8289C186.224 36.8289 185.202 36.8289 184.148 36.8289C184.148 35.5475 184.148 34.2661 184.148 32.9459C184.593 32.8575 185.037 32.7691 185.495 32.6781C186.204 32.4121 186.54 32.0688 186.977 31.473C187.096 31.1169 187.136 30.873 187.154 30.5048C187.159 30.408 187.164 30.3111 187.17 30.2113C187.178 30.0281 187.178 30.0281 187.187 29.8411C187.207 29.4517 187.226 29.0623 187.246 28.6611Z" fill="#252525"/>
<path d="M119.5 25.7139C120.967 25.7139 122.433 25.7139 123.945 25.7139C123.945 34.1535 123.945 42.593 123.945 51.2884C122.478 51.2884 121.011 51.2884 119.5 51.2884C119.5 42.8488 119.5 34.4092 119.5 25.7139Z" fill="#252525"/>
<path d="M109.111 36.9266C110.513 37.7493 111.609 38.8848 112.042 40.4858C112.302 42.3329 112.122 44.208 110.99 45.7403C110.213 46.6936 109.262 47.42 108.004 47.5799C107.666 47.5981 107.331 47.6023 106.992 47.5981C106.873 47.5968 106.753 47.5955 106.631 47.5942C105.205 47.5556 104.29 47.1529 103.249 46.1702C101.913 44.5932 101.733 42.826 101.857 40.8446C102.064 39.4677 102.917 38.2176 104.012 37.3633C105.539 36.4698 107.455 36.1299 109.111 36.9266Z" fill="#FDFBFB"/>
<path d="M138.489 43.1209C138.574 44.6097 138.423 45.6708 137.462 46.8449C136.506 47.8452 135.218 48.3287 133.843 48.3848C133.019 48.3622 132.4 48.1444 131.772 47.6149C131.279 47.0237 131.155 46.5905 131.174 45.8318C131.261 45.2168 131.626 44.8526 132.058 44.4348C133.032 43.7968 134.13 43.654 135.262 43.4741C135.535 43.4305 135.807 43.385 136.08 43.3393C136.894 43.2067 137.662 43.1043 138.489 43.1209Z" fill="#FCF8F7"/>
<path d="M165.561 55.9782C166.08 55.9672 166.599 55.9561 167.135 55.9448C167.379 55.9375 167.379 55.9375 167.627 55.93C168.685 55.9191 168.685 55.9191 169.224 56.2157C169.587 56.6625 169.657 57.018 169.601 57.585C169.382 58.0453 169.382 58.0453 169.062 58.3884C168.706 58.4768 168.706 58.4768 168.389 58.5223C168.473 58.6336 168.558 58.745 168.645 58.8597C168.756 59.0066 168.867 59.1536 168.978 59.3006C169.034 59.3739 169.089 59.4471 169.146 59.5226C169.87 60.4803 169.87 60.4803 169.87 60.9325C169.501 60.9806 169.501 60.9806 169.062 60.9325C168.767 60.5998 168.767 60.5998 168.507 60.1626C167.998 59.2299 167.998 59.2299 167.128 58.7085C167.022 58.7023 166.916 58.6961 166.806 58.6897C166.617 58.6786 166.429 58.6676 166.234 58.6562C166.234 59.4074 166.234 60.1585 166.234 60.9325C166.012 60.9325 165.79 60.9325 165.561 60.9325C165.561 59.2976 165.561 57.6627 165.561 55.9782Z" fill="#252525"/>
<path d="M193.171 55.9775C193.482 55.9775 193.793 55.9775 194.114 55.9775C194.304 56.4406 194.495 56.9036 194.686 57.3667C194.739 57.496 194.793 57.6253 194.847 57.7585C194.955 58.0186 195.061 58.2789 195.168 58.5393C195.272 58.7917 195.376 59.044 195.481 59.2958C195.529 59.4121 195.577 59.5284 195.627 59.6482C195.691 59.8019 195.691 59.8019 195.756 59.9587C195.871 60.2805 195.94 60.5958 195.999 60.9318C195.732 60.9318 195.466 60.9318 195.191 60.9318C195.013 60.4899 194.835 60.048 194.652 59.5928C193.941 59.5486 193.23 59.5044 192.497 59.4589C192.456 59.6771 192.414 59.8952 192.371 60.12C192.245 60.7811 192.245 60.7811 192.093 60.9318C191.824 60.9372 191.554 60.9375 191.285 60.9318C191.365 60.4866 191.474 60.0863 191.645 59.6676C191.69 59.557 191.735 59.4464 191.781 59.3324C191.852 59.1589 191.852 59.1589 191.925 58.9819C191.973 58.8633 192.021 58.7446 192.071 58.6224C192.432 57.7383 192.797 56.8562 193.171 55.9775Z" fill="#323232"/>
<path d="M148.321 55.9775C148.632 55.9775 148.943 55.9775 149.264 55.9775C149.393 56.266 149.522 56.5546 149.651 56.8432C149.742 57.0461 149.833 57.2487 149.925 57.4509C150.246 58.1564 150.548 58.8696 150.847 59.5844C150.889 59.686 150.932 59.7876 150.976 59.8922C151.284 60.6327 151.284 60.6327 151.284 60.9318C150.905 60.9736 150.905 60.9736 150.476 60.9318C150.06 60.4464 150.048 60.1159 149.937 59.4589C149.226 59.4589 148.515 59.4589 147.782 59.4589C147.649 59.9449 147.516 60.431 147.378 60.9318C147.112 60.9318 146.845 60.9318 146.57 60.9318C146.667 60.2933 146.902 59.7278 147.143 59.1325C147.558 58.0882 147.949 57.038 148.321 55.9775Z" fill="#2D2D2D"/>
<path d="M185.41 56.0601C185.801 56.4121 186.035 56.732 186.302 57.1815C186.257 57.2699 186.213 57.3583 186.167 57.4493C185.856 57.4912 185.856 57.4912 185.494 57.4493C185.267 57.1229 185.267 57.1229 185.09 56.7798C184.621 56.547 184.119 56.567 183.608 56.6459C183.126 57.0053 182.909 57.2708 182.8 57.851C182.728 58.6115 182.754 59.2116 183.204 59.8595C183.616 60.2123 183.81 60.2624 184.357 60.2528C184.86 60.1166 185.047 59.998 185.359 59.5917C185.404 59.4591 185.448 59.3266 185.494 59.19C185.76 59.19 186.027 59.19 186.302 59.19C186.265 59.7199 186.202 59.9532 185.847 60.3616C185.132 60.9709 184.686 60.9898 183.766 60.9715C183.202 60.9176 182.928 60.7998 182.531 60.3951C181.927 59.6417 181.911 58.8248 181.94 57.8892C182.031 57.1178 182.3 56.7249 182.876 56.194C183.643 55.6857 184.591 55.6682 185.41 56.0601Z" fill="#2B2B2B"/>
<path d="M156.537 55.9775C157.648 55.9775 158.759 55.9775 159.904 55.9775C159.904 56.1543 159.904 56.331 159.904 56.5131C159.015 56.5131 158.126 56.5131 157.211 56.5131C157.211 56.9992 157.211 57.4852 157.211 57.986C158.011 57.986 158.811 57.986 159.635 57.986C159.635 58.2069 159.635 58.4279 159.635 58.6555C158.879 58.6555 158.124 58.6555 157.345 58.6555C157.345 59.4067 157.345 60.1578 157.345 60.9318C157.079 60.9318 156.812 60.9318 156.537 60.9318C156.537 59.2969 156.537 57.662 156.537 55.9775Z" fill="#2C2C2C"/>
<path d="M166.234 56.511C166.56 56.5002 166.885 56.4922 167.211 56.4859C167.303 56.4826 167.395 56.4792 167.489 56.4757C167.93 56.4693 168.208 56.4828 168.589 56.7135C168.657 56.7792 168.724 56.845 168.793 56.9127C168.76 57.3646 168.76 57.3646 168.659 57.85C168.197 58.2011 167.704 58.1449 167.143 58.1346C166.973 58.1321 166.803 58.1297 166.628 58.1272C166.498 58.1241 166.368 58.121 166.234 58.1178C166.234 57.5876 166.234 57.0573 166.234 56.511Z" fill="#F0F0F0"/>
<path d="M175.527 55.9775C175.75 55.9775 175.972 55.9775 176.201 55.9775C176.201 57.6124 176.201 59.2473 176.201 60.9318C175.979 60.9318 175.756 60.9318 175.527 60.9318C175.527 59.2969 175.527 57.662 175.527 55.9775Z" fill="#252525"/>
<path d="M193.576 56.7812C193.818 57.1428 193.971 57.4597 194.131 57.8608C194.179 57.9783 194.226 58.0959 194.275 58.217C194.384 58.5219 194.384 58.5219 194.384 58.7897C193.895 58.7897 193.406 58.7897 192.902 58.7897C193.049 58.0519 193.201 57.4426 193.576 56.7812Z" fill="#EDEDED"/>
<path d="M148.726 56.6455C149.117 56.8397 149.137 57.0881 149.282 57.4907C149.329 57.62 149.377 57.7493 149.426 57.8825C149.534 58.2523 149.534 58.2523 149.534 58.7879C149.09 58.7879 148.645 58.7879 148.188 58.7879C148.344 58.0647 148.514 57.3544 148.726 56.6455Z" fill="#EBEBEB"/>
<path d="M33.3789 18.4274C33.9881 18.7831 34.4452 19.2902 34.9262 19.7982C35.1294 20.0086 35.333 20.2187 35.537 20.4284C35.6361 20.5305 35.7353 20.6327 35.8375 20.7379C36.1907 21.0888 36.5633 21.4106 36.9424 21.7332C37.5079 22.2293 38.0264 22.7749 38.5542 23.3098C38.9906 23.7488 39.4306 24.1738 39.901 24.5766C40.5657 25.1458 41.1728 25.7673 41.7866 26.3895C42.2216 26.827 42.6601 27.2508 43.1292 27.6521C43.8262 28.2489 44.4618 28.9035 45.1058 29.5555C45.6447 30.097 46.1957 30.6103 46.7765 31.1071C47.31 31.5769 47.8009 32.0904 48.2993 32.5964C48.7183 33.0182 49.1422 33.4245 49.5941 33.8114C50.2599 34.3822 50.8686 35.0049 51.4838 35.6285C52.593 36.7452 52.593 36.7452 53.8576 37.6762C54.4272 38.0673 54.8426 38.4643 55.1203 39.1046C55.5168 41.3709 55.2499 43.98 54.7163 46.2012C54.6761 46.3737 54.6761 46.3737 54.6352 46.5498C53.6196 50.8181 51.5559 54.66 48.5208 57.8503C48.3629 58.0309 48.2057 58.2122 48.0494 58.3943C47.1542 59.4108 46.1849 60.3042 45.12 61.1427C44.932 61.2935 44.7461 61.4467 44.5609 61.6008C43.6968 62.3167 42.8094 62.9671 41.8708 63.5828C41.7303 63.6751 41.5898 63.7674 41.4451 63.8625C34.2466 68.5465 34.2466 68.5465 31.7506 68.5658C31.0873 68.3714 30.4645 68.1138 29.8334 67.8341C29.6968 67.7741 29.5602 67.7141 29.4195 67.6522C24.863 65.6241 20.6053 62.9038 17.0048 59.4571C16.9343 59.3899 16.8638 59.3227 16.7911 59.2535C15.8462 58.349 14.9773 57.413 14.1765 56.3774C14.119 56.3038 14.0616 56.2301 14.0025 56.1543C12.5735 54.3117 11.3969 52.3871 10.54 50.2181C10.4771 50.0685 10.4771 50.0685 10.4129 49.9158C9.4601 47.6278 8.9917 45.1794 8.78912 42.7198C8.77466 42.5676 8.76021 42.4154 8.74532 42.2586C8.49682 39.3814 8.49682 39.3814 9.11425 38.5847C9.46712 38.2305 9.86654 37.9563 10.2836 37.6819C10.7484 37.3482 11.1297 36.9294 11.5249 36.5187C11.986 36.0482 12.4525 35.5945 12.9533 35.1656C13.5241 34.6754 14.0525 34.1499 14.5805 33.6148C15.1893 32.9978 15.8074 32.4083 16.4661 31.8443C16.9361 31.429 17.3728 30.9812 17.8129 30.5351C18.3359 30.0051 18.8585 29.4839 19.4249 28.9995C20.018 28.4916 20.5645 27.9434 21.1127 27.3885C21.7461 26.7473 22.3868 26.1308 23.0722 25.5445C23.5169 25.1529 23.9293 24.7304 24.3451 24.3089C24.9242 23.727 25.5038 23.1626 26.1339 22.6351C26.6818 22.1441 27.1925 21.6144 27.7114 21.0935C28.2247 20.5801 28.7442 20.0856 29.3026 19.6203C29.555 19.4001 29.7803 19.1626 30.0102 18.9195C31.0132 17.9155 32.1479 17.8631 33.3789 18.4274Z" fill="#252525"/>
<path d="M42.5444 2.82754C42.6677 2.86652 42.7911 2.90551 42.9181 2.94567C45.5732 3.78746 48.1932 4.70993 50.7986 5.69285C51.1914 5.84097 51.5843 5.98853 51.9773 6.13602C56.0198 7.65567 56.0198 7.65567 57.9564 8.58502C58.1356 8.67104 58.3151 8.75653 58.4948 8.84157C60.6385 9.85796 62.5646 10.9308 63.4746 13.2428C63.8965 14.6022 63.9121 15.8733 63.906 17.2817C63.9059 17.528 63.9059 17.7742 63.906 18.0204C63.9059 18.6907 63.9039 19.3609 63.9016 20.0311C63.9002 20.4528 63.8993 20.8745 63.8986 21.2962C63.8947 23.4389 63.8858 25.5815 63.875 27.7242C63.8741 27.8875 63.8733 28.0508 63.8725 28.219C63.861 30.5511 63.846 32.8831 63.828 35.2152C63.8245 35.6963 63.8213 36.1774 63.8182 36.6585C63.8133 37.4232 63.807 38.1879 63.7998 38.9526C63.7974 39.2321 63.7953 39.5115 63.7937 39.791C63.7336 49.8274 60.0072 58.0463 52.8682 65.0666C52.4102 65.4891 51.9263 65.8766 51.4383 66.2643C51.1244 66.5187 50.8287 66.7822 50.5328 67.0567C48.9811 68.4421 47.1721 69.5818 45.4233 70.7054C45.291 70.791 45.1587 70.8767 45.0224 70.9649C43.5423 71.8967 41.9873 72.7027 40.44 73.5173C40.3394 73.5705 40.2388 73.6237 40.1352 73.6786C33.1281 77.3634 33.1281 77.3634 31.0353 76.7538C30.5969 76.5962 30.1647 76.4278 29.7326 76.2538C29.5765 76.1924 29.4204 76.1309 29.2596 76.0676C28.0807 75.6006 26.9113 75.1179 25.7595 74.5885C25.6522 74.5395 25.5448 74.4906 25.4343 74.4401C22.0473 72.8889 18.7762 71.0643 15.7929 68.8309C15.718 68.7748 15.643 68.7187 15.5659 68.6609C15.054 68.2761 14.5475 67.8848 14.042 67.4919C13.9305 67.4073 13.8191 67.3227 13.7042 67.2356C11.4615 65.5064 9.31195 63.4309 7.57717 61.1987C7.43868 61.0246 7.30013 60.8507 7.16154 60.6767C5.01507 57.9606 3.23827 54.9481 2.05514 51.6919C2.01367 51.585 1.97219 51.4781 1.92946 51.368C1.57277 50.4331 1.31648 49.495 1.09552 48.5202C1.06059 48.3675 1.02566 48.2148 0.98967 48.0575C0.732596 46.9059 0.535935 45.7712 0.438933 44.5953C0.428243 44.4749 0.417555 44.3544 0.406541 44.2303C0.290855 42.8102 0.27676 41.3946 0.26637 39.9706C0.263968 39.7041 0.261503 39.4375 0.258984 39.171C0.253753 38.6085 0.248843 38.0461 0.244204 37.4836C0.232104 36.0217 0.217998 34.5598 0.203763 33.0979C0.202384 32.9546 0.201008 32.8114 0.199587 32.6638C0.178082 30.4478 0.143839 28.2326 0.0938065 26.017C0.0468764 23.8677 0.0175276 21.7187 0.0111459 19.5688C0.0101541 19.2652 0.00873335 18.9616 0.00683017 18.658C-0.0243984 13.2501 -0.0243984 13.2501 1.78577 11.1208C2.64147 10.3468 3.5596 9.77101 4.58887 9.25464C4.78942 9.15247 4.78942 9.15247 4.99401 9.04824C6.74905 8.16608 8.55533 7.40564 10.4018 6.73422C11.1309 6.46896 11.8496 6.18089 12.5689 5.89046C13.5054 5.51426 14.4428 5.17266 15.4041 4.86373C16.0171 4.66671 16.6245 4.45425 17.2323 4.24184C17.3457 4.20232 17.4592 4.16281 17.576 4.12209C18.1551 3.92015 18.7336 3.71681 19.3115 3.51168C20.6247 3.04713 21.9405 2.62007 23.2814 2.24174C23.6468 2.13765 24.0113 2.03085 24.3758 1.92373C31.1889 -0.0762668 35.8373 0.705105 42.5444 2.82754ZM20.3477 6.84201C19.9068 6.98964 19.4657 7.13655 19.0241 7.28194C18.1245 7.57815 17.2277 7.8784 16.34 8.20857C16.2343 8.24772 16.1285 8.28688 16.0195 8.32723C15.7923 8.41138 15.5652 8.49566 15.3381 8.58005C14.9759 8.71397 14.6129 8.84583 14.2498 8.97743C11.4388 10.0021 8.62131 11.0878 5.95255 12.4431C5.84053 12.4987 5.72852 12.5544 5.61311 12.6117C4.79483 13.0426 4.21411 13.5748 3.76394 14.3846C3.49082 15.4213 3.51678 16.5 3.51877 17.5636C3.51864 17.7202 3.51851 17.8768 3.51838 18.0381C3.51829 18.3706 3.51854 18.703 3.5191 19.0355C3.5198 19.5261 3.51911 20.0167 3.51824 20.5073C3.51778 22.1406 3.5381 23.7712 3.59214 25.4036C3.66453 27.5929 3.69022 29.7814 3.70449 31.9718C3.70561 32.136 3.70673 32.3001 3.70788 32.4692C3.71834 34.0055 3.72787 35.5418 3.73556 37.0781C3.73987 37.9283 3.74543 38.7784 3.75175 39.6286C3.75388 39.9476 3.75555 40.2666 3.75672 40.5857C3.76588 43.044 3.8739 45.4007 4.49628 47.7922C4.53735 47.952 4.57842 48.1119 4.62074 48.2766C5.2045 50.4709 6.10052 52.5057 7.17312 54.5038C7.25576 54.6602 7.3384 54.8165 7.42354 54.9777C8.12269 56.25 8.96813 57.3824 9.86679 58.5207C9.96645 58.6486 10.0661 58.7765 10.1688 58.9083C13.0342 62.4933 16.614 65.4413 20.5077 67.8606C20.6757 67.965 20.8434 68.0701 21.0105 68.1761C23.6702 69.8623 26.5681 71.2576 29.4819 72.4487C29.7676 72.5666 30.0504 72.6895 30.3329 72.8148C30.4821 72.8782 30.6312 72.9415 30.7849 73.0068C30.9038 73.0584 31.0227 73.11 31.1452 73.1632C32.4828 73.4478 33.6501 72.85 34.8422 72.3122C35.0233 72.232 35.2045 72.1519 35.3857 72.0719C35.9044 71.8421 36.4213 71.6086 36.9382 71.3749C37.0658 71.3181 37.1934 71.2614 37.3249 71.2028C40.1877 69.9285 42.8476 68.3274 45.4233 66.5546C45.5148 66.4923 45.6062 66.43 45.7005 66.3658C46.8826 65.5592 47.9795 64.6792 49.0597 63.7427C49.1608 63.6573 49.2618 63.5719 49.3659 63.4838C50.0629 62.8909 50.7066 62.2505 51.3494 61.6004C52.0228 60.9309 52.0228 60.9309 52.2506 60.7185C53.631 59.4044 54.7416 57.8225 55.7939 56.2445C55.8806 56.1166 55.9672 55.9887 56.0565 55.8569C57.5093 53.6215 58.5492 51.161 59.2957 48.6123C59.3236 48.5184 59.3515 48.4244 59.3802 48.3277C60.1421 45.7095 60.2988 43.069 60.3027 40.3582C60.3046 40.0444 60.3067 39.7306 60.309 39.4168C60.3146 38.5945 60.318 37.7722 60.3208 36.9498C60.3256 35.6521 60.3339 34.3544 60.3419 33.0567C60.3438 32.7358 60.3456 32.415 60.3474 32.0942C60.3621 29.4322 60.4085 26.7718 60.4693 24.1106C60.4735 23.924 60.4735 23.924 60.4779 23.7336C60.482 23.5525 60.482 23.5525 60.4862 23.3678C60.5154 22.0708 60.5329 20.774 60.5328 19.4766C60.5331 19.129 60.5357 18.7814 60.5381 18.4337C60.6376 15.8497 60.6376 15.8497 59.7282 13.5341C56.4974 10.5946 50.3644 9.12622 46.2889 7.75091C45.9067 7.62064 45.5267 7.4849 45.1467 7.34839C35.7544 3.98606 29.841 3.66236 20.3477 6.84201Z" fill="#252525"/>
<path d="M35.3225 30.9372C35.5194 30.9987 35.5194 30.9987 35.7202 31.0614C37.365 31.5798 38.9933 32.1319 40.592 32.7783C40.709 32.8254 40.826 32.8726 40.9466 32.9212C42.4402 33.5403 43.7957 34.1633 44.4728 35.6993C44.7578 36.6169 44.7119 37.5668 44.7051 38.5181C44.7056 38.7464 44.7062 38.9748 44.7071 39.2031C44.708 39.6805 44.7066 40.1578 44.7035 40.6352C44.6997 41.2386 44.7019 41.8418 44.7058 42.4452C44.7321 47.2363 44.0137 51.0555 40.6088 54.6622C38.6202 56.5466 34.9928 59.1795 32.1516 59.1332C30.588 58.8732 28.986 57.994 27.6455 57.1812C27.4565 57.0668 27.4565 57.0668 27.2636 56.95C24.6151 55.2707 22.4849 53.0675 21.1975 50.2018C21.1606 50.1204 21.1237 50.0389 21.0857 49.9551C20.367 48.2721 20.3087 46.6469 20.3095 44.8485C20.3085 44.5895 20.3075 44.3305 20.3064 44.0715C20.3046 43.5314 20.3043 42.9913 20.3051 42.4513C20.3059 41.7615 20.3018 41.0719 20.2964 40.3822C20.2929 39.8484 20.2925 39.3146 20.293 38.7807C20.2928 38.5265 20.2915 38.2722 20.2891 38.018C20.2671 35.4175 20.2671 35.4175 21.046 34.5524C24.1774 31.6036 31.3209 29.6774 35.3225 30.9372Z" fill="#FDFAFA"/>
<path d="M38.9588 10.5867C39.2727 10.6896 39.5866 10.7925 39.9005 10.8953C40.7999 11.1907 41.698 11.4898 42.5953 11.7918C42.707 11.8294 42.8188 11.867 42.934 11.9057C44.292 12.3653 45.6236 12.8804 46.953 13.4158C47.4538 13.6173 47.9569 13.8114 48.4624 14.0011C50.023 14.5958 51.5681 15.2314 53.0669 15.9677C53.1519 16.009 53.2368 16.0503 53.3243 16.0929C53.7451 16.3041 54.1537 16.5332 54.5505 16.7863C54.6245 16.8329 54.6985 16.8796 54.7748 16.9277C55.5531 17.7379 55.4451 18.7778 55.4344 19.8241C55.4342 19.995 55.434 20.1659 55.4338 20.342C55.4331 20.8029 55.4299 21.2637 55.426 21.7246C55.4232 22.1053 55.4218 22.4861 55.4205 22.8669C55.4091 25.9602 55.3555 29.0525 55.2555 32.1443C54.6594 31.6411 54.071 31.1315 53.4962 30.6044C53.4223 30.5367 53.3484 30.4691 53.2723 30.3993C52.6149 29.7923 51.9799 29.1644 51.3526 28.5269C50.9655 28.1361 50.571 27.7639 50.1528 27.4061C49.4528 26.8049 48.8129 26.1474 48.1652 25.4917C47.6263 24.9501 47.0753 24.4369 46.4945 23.9401C45.961 23.4703 45.4701 22.9568 44.9717 22.4508C44.5541 22.0304 44.1318 21.6254 43.6811 21.24C42.983 20.6415 42.3458 19.9858 41.7003 19.3324C41.161 18.7903 40.6093 18.2768 40.0279 17.7797C39.5914 17.3946 39.1892 16.9771 38.782 16.5619C36.8605 14.6359 34.8709 13.1097 32.031 13.0805C29.4018 13.1132 27.5637 14.2882 25.7598 16.0765C25.6502 16.1851 25.5407 16.2936 25.4278 16.4055C25.2377 16.5952 25.0486 16.7859 24.8612 16.9782C24.5958 17.235 24.3252 17.4747 24.0447 17.7147C23.4424 18.2345 22.884 18.7916 22.3254 19.357C21.78 19.9091 21.2366 20.455 20.646 20.9596C20.0288 21.4876 19.4615 22.0606 18.8909 22.6375C18.2328 23.303 17.5695 23.9466 16.8575 24.555C16.4382 24.923 16.0494 25.3197 15.6585 25.7172C15.1833 26.2004 14.7051 26.6696 14.1896 27.1105C13.5941 27.6216 13.0444 28.1721 12.4934 28.7299C11.8546 29.3766 11.2084 29.9994 10.5171 30.5906C10.174 30.8901 9.85764 31.2085 9.53883 31.5334C9.33648 31.7394 9.13238 31.9439 8.92433 32.1443C8.87989 32.1443 8.83544 32.1443 8.78965 32.1443C8.66569 29.2984 8.62571 26.4557 8.62261 23.6075C8.62185 23.0212 8.61858 22.435 8.6148 21.8487C8.6123 21.3912 8.61159 20.9337 8.61139 20.4761C8.61098 20.2597 8.60991 20.0432 8.60813 19.8267C8.60583 19.5268 8.60608 19.227 8.60696 18.9271C8.60647 18.7574 8.60597 18.5878 8.60547 18.413C8.66947 17.8157 8.84538 17.3498 9.28787 16.9312C12.1939 15.1035 15.512 13.9834 18.7074 12.7678C19.0605 12.6332 19.4131 12.4976 19.7653 12.3608C21.4437 11.7182 23.1568 11.1699 24.8654 10.6127C25.1721 10.5127 25.4786 10.4124 25.785 10.3117C30.8255 8.65746 33.9341 8.9245 38.9588 10.5867Z" fill="#252525"/>
<path d="M34.1094 44.4629C36.4205 44.4629 38.7317 44.4629 41.1129 44.4629C41.1129 47.6054 40.6363 49.4891 38.5539 51.8273C38.481 51.911 38.4081 51.9947 38.333 52.081C37.2714 53.2189 35.7628 54.2076 34.3787 54.9069C34.2899 54.9069 34.201 54.9069 34.1094 54.9069C34.1094 51.4604 34.1094 48.0139 34.1094 44.4629Z" fill="#252525"/>
<path d="M23.7383 44.4629C26.0495 44.4629 28.3606 44.4629 30.7418 44.4629C30.7418 47.8652 30.7418 51.2676 30.7418 54.773C28.497 54.3267 26.4147 52.253 25.1693 50.4297C23.9046 48.5093 23.7383 46.7712 23.7383 44.4629Z" fill="#252525"/>
<path d="M30.7418 34.2852C30.7418 36.5387 30.7418 38.7922 30.7418 41.114C28.4307 41.114 26.1195 41.114 23.7383 41.114C23.7383 39.6558 23.7383 38.1977 23.7383 36.6953C26.6721 35.4239 26.6721 35.4239 27.7998 35.076C28.4238 34.8783 29.0345 34.6428 29.647 34.4128C30.0684 34.2852 30.0684 34.2852 30.7418 34.2852Z" fill="#252525"/>
<path d="M34.1094 34.2852C35.1719 34.4361 35.1719 34.4361 35.6824 34.6042C35.7954 34.6413 35.9083 34.6783 36.0246 34.7165C36.1426 34.7564 36.2606 34.7964 36.3822 34.8375C36.5055 34.8788 36.6289 34.9201 36.756 34.9626C37.9157 35.357 39.0449 35.8118 40.1701 36.2936C40.4813 36.4262 40.7924 36.5587 41.1129 36.6953C41.1129 38.1535 41.1129 39.6116 41.1129 41.114C38.8018 41.114 36.4906 41.114 34.1094 41.114C34.1094 38.8605 34.1094 36.6069 34.1094 34.2852Z" fill="#252525"/>
<path d="M38.8232 51.4229C38.8677 51.5554 38.9121 51.688 38.9579 51.8245C38.4641 52.3155 37.9702 52.8065 37.4764 53.2974C37.3875 53.1649 37.2986 53.0323 37.207 52.8957C37.3011 52.8118 37.3952 52.728 37.4922 52.6415C37.6148 52.5321 37.7373 52.4227 37.8636 52.3099C38.0464 52.1468 38.0464 52.1468 38.2329 51.9804C38.4339 51.799 38.6313 51.6136 38.8232 51.4229Z" fill="#FCE7E5"/>
<path d="M52.9663 51.1543C53.0108 51.1543 53.0552 51.1543 53.101 51.1543C53.101 51.3752 53.101 51.5962 53.101 51.8238C52.9677 51.868 52.8343 51.9122 52.6969 51.9577C52.6969 52.2228 52.6969 52.4879 52.6969 52.7611C52.5192 52.8053 52.3414 52.8494 52.1582 52.895C52.3854 52.2927 52.6723 51.7262 52.9663 51.1543Z" fill="#F9D7D9"/>
</svg>
