<svg width="196" height="77" viewBox="0 0 196 77" fill="none" xmlns="http://www.w3.org/2000/svg">
<path d="M106.864 31.8096C107.084 31.8113 107.084 31.8113 107.31 31.813C110.005 31.8687 112.238 32.8388 114.166 34.7393C115.318 35.9629 116 37.2662 116.535 38.8514C116.569 38.9503 116.602 39.0491 116.637 39.151C117.278 41.4633 116.74 44.1071 115.607 46.1619C115.252 46.7744 114.858 47.3249 114.381 47.8489C114.248 47.999 114.248 47.999 114.114 48.1521C112.848 49.5085 111.297 50.282 109.532 50.8033C109.365 50.8529 109.365 50.8529 109.194 50.9035C106.626 51.5328 103.752 50.9029 101.51 49.5863C99.463 48.2128 97.935 46.1513 97.3951 43.7336C96.9139 41.1841 97.1511 38.3528 98.6225 36.1656C100.56 33.4183 103.478 31.7763 106.864 31.8096Z" fill="#252525"/>
<path d="M76.5352 25.4251C78.0908 25.4251 79.6463 25.4251 81.2491 25.4251C81.2935 29.0147 81.338 32.6043 81.3838 36.3026C82.407 35.1255 83.4278 33.9487 84.4341 32.7576C84.6206 32.5372 84.8077 32.3174 84.995 32.0977C85.5794 31.4116 86.1599 30.7234 86.729 30.0246C87.1764 29.4763 87.6396 28.9467 88.1137 28.4215C88.5119 27.9695 88.8894 27.5015 89.267 27.0324C89.3767 26.9008 89.4864 26.7693 89.5995 26.6337C89.6568 26.5306 89.7141 26.4274 89.7731 26.3211C90.0913 25.8345 90.3786 25.4888 90.9705 25.3625C91.8591 25.272 92.7492 25.3154 93.64 25.3496C93.9141 25.3556 94.1882 25.3612 94.4623 25.3661C95.1313 25.3794 95.7997 25.4002 96.4683 25.4251C96.3419 25.5946 96.2153 25.764 96.0887 25.9333C96.0182 26.0276 95.9477 26.1219 95.8751 26.2191C95.5587 26.6319 95.2199 27.0231 94.8774 27.4143C94.3922 27.9732 93.9127 28.5349 93.4464 29.1097C92.894 29.788 92.322 30.4477 91.7466 31.1067C91.2073 31.7246 90.6725 32.346 90.1444 32.9734C89.8278 33.3493 89.5082 33.7217 89.1828 34.09C89.1145 34.1681 89.0462 34.2463 88.9758 34.3268C88.8453 34.476 88.7138 34.6244 88.5811 34.7717C88.2182 35.1893 88.0343 35.4834 87.9833 36.034C88.0814 36.3209 88.0814 36.3209 88.2621 36.588C88.3264 36.6925 88.3908 36.7969 88.457 36.9046C88.5285 37.0161 88.5999 37.1277 88.6735 37.2427C88.7467 37.3605 88.8199 37.4783 88.8953 37.5996C89.1283 37.9741 89.3639 38.347 89.5995 38.7199C89.8194 39.0728 90.0385 39.4262 90.2576 39.7796C90.4033 40.0144 90.5492 40.2491 90.6954 40.4836C91.2652 41.3985 91.8229 42.3202 92.3771 43.2446C93.2099 44.6329 94.0559 46.0131 94.9111 47.3879C94.9895 47.5139 95.0679 47.6399 95.1486 47.7698C95.3004 48.0135 95.4523 48.2572 95.6044 48.5007C96.7377 50.3195 96.7377 50.3195 96.7377 50.6717C95.9928 50.7218 95.2488 50.7582 94.5026 50.7823C94.2494 50.7924 93.9963 50.8061 93.7435 50.8237C91.7097 50.9609 91.7097 50.9609 91.1262 50.4913C90.7314 50.0182 90.4868 49.4807 90.2509 48.9159C90.0926 48.5526 89.8868 48.2271 89.6737 47.8936C89.6022 47.7766 89.5307 47.6596 89.4571 47.5391C89.3846 47.4207 89.3122 47.3022 89.2375 47.1801C89.1581 47.0502 89.0787 46.9202 88.9969 46.7863C88.6679 46.2479 88.3388 45.7096 88.0096 45.1714C86.9161 43.3833 85.8287 41.5917 84.7509 39.7942C84.1749 40.0515 83.8422 40.4506 83.4461 40.9273C83.3816 41.0033 83.3171 41.0794 83.2507 41.1578C83.1103 41.324 82.973 41.4928 82.8382 41.6635C82.5959 41.9428 82.5959 41.9428 82.2776 42.2051C81.4592 42.963 81.3101 43.5859 81.2488 44.673C81.2267 45.4952 81.2311 46.3158 81.2407 47.1382C81.2403 47.4808 81.2393 47.8234 81.2378 48.1661C81.2342 49.0016 81.2419 49.8359 81.2491 50.6717C79.6935 50.6717 78.1379 50.6717 76.5352 50.6717C76.5352 42.3403 76.5352 34.009 76.5352 25.4251Z" fill="#252525"/>
<path d="M135.165 31.8098C135.325 31.8108 135.485 31.8118 135.651 31.8129C137.904 31.855 139.765 32.5335 141.422 34.0943C142.526 35.2929 142.999 36.6285 142.98 38.229C142.98 38.4316 142.98 38.4316 142.98 38.6383C142.98 39.0815 142.977 39.5247 142.974 39.9679C142.973 40.2765 142.973 40.5851 142.972 40.8937C142.971 41.7035 142.967 42.5132 142.962 43.323C142.958 44.1503 142.956 44.9776 142.954 45.8048C142.95 47.4263 142.943 49.0477 142.934 50.6692C141.557 50.6692 140.179 50.6692 138.759 50.6692C138.715 50.0931 138.67 49.517 138.625 48.9234C138.483 49.0619 138.341 49.2004 138.195 49.3431C136.463 50.845 134.14 51.2339 131.914 51.1005C130.165 50.9311 128.66 50.1797 127.539 48.8384C126.605 47.5358 126.504 46.0541 126.638 44.4918C126.991 43.0427 127.907 41.8969 129.155 41.0926C131.932 39.5892 135.391 39.3152 138.49 38.9859C138.486 38.0609 138.404 37.3763 137.792 36.6568C136.864 35.815 135.765 35.7023 134.557 35.7257C133.877 35.7752 133.405 35.9403 132.833 36.3001C132.69 36.3856 132.69 36.3856 132.544 36.4727C131.815 36.957 131.446 37.5288 131.082 38.3145C130.313 38.1853 129.663 37.8693 128.961 37.5423C128.83 37.4845 128.699 37.4267 128.565 37.3671C128.441 37.3093 128.317 37.2515 128.189 37.1919C128.075 37.14 127.962 37.0881 127.845 37.0347C127.58 36.8373 127.58 36.8373 127.465 36.5016C127.42 35.7197 128.138 34.9972 128.61 34.4169C129.243 33.7394 130.015 33.2717 130.813 32.8086C130.953 32.7273 130.953 32.7273 131.095 32.6444C132.385 31.9499 133.718 31.797 135.165 31.8098Z" fill="#252525"/>
<path d="M155.847 31.8097C155.989 31.811 156.132 31.8123 156.279 31.8137C158.249 31.8583 159.633 32.5676 161.103 33.8356C162.967 35.7829 162.906 38.3449 162.893 40.8465C162.893 41.1304 162.892 41.4144 162.892 41.6983C162.891 42.4412 162.888 43.184 162.885 43.9269C162.883 44.6867 162.881 45.4465 162.88 46.2063C162.877 47.6939 162.872 49.1815 162.867 50.6691C161.356 50.6691 159.845 50.6691 158.288 50.6691C158.286 50.3079 158.284 49.9467 158.282 49.5746C158.275 48.3798 158.266 47.1851 158.256 45.9903C158.25 45.2661 158.245 44.5419 158.241 43.8177C158.238 43.1184 158.232 42.4193 158.225 41.7201C158.223 41.4536 158.222 41.1872 158.221 40.9207C158.219 40.5468 158.216 40.173 158.211 39.7992C158.211 39.6895 158.212 39.5799 158.212 39.467C158.194 38.3797 157.822 37.6065 157.075 36.8105C156.181 36.0048 155.224 35.9456 154.049 35.9795C153.424 36.0478 153.002 36.2035 152.496 36.5686C152.355 36.6628 152.213 36.757 152.067 36.854C151.275 37.5817 150.986 38.4467 150.935 39.4987C150.919 40.1186 150.918 40.738 150.92 41.358C150.918 41.627 150.916 41.8961 150.913 42.1651C150.908 42.8694 150.907 43.5736 150.906 44.2779C150.905 44.9981 150.9 45.7183 150.895 46.4384C150.886 47.8487 150.882 49.2589 150.88 50.6691C149.413 50.6691 147.947 50.6691 146.436 50.6691C146.436 44.5979 146.436 38.5266 146.436 32.2714C147.813 32.2714 149.191 32.2714 150.611 32.2714C150.677 33.202 150.677 33.202 150.745 34.1514C150.876 33.9908 151.007 33.8301 151.141 33.6646C152.431 32.2055 153.941 31.7902 155.847 31.8097Z" fill="#252525"/>
<path d="M177.548 32.1362C179.015 32.1362 180.481 32.1362 181.992 32.1362C181.992 38.2518 181.992 44.3674 181.992 50.6683C180.57 50.6683 179.148 50.6683 177.683 50.6683C177.638 50.0479 177.594 49.4274 177.548 48.7882C177.431 48.9461 177.314 49.104 177.194 49.2666C176.269 50.3197 174.762 50.9655 173.373 51.0712C171.263 51.2015 169.501 50.8695 167.825 49.4849C166.449 48.1955 165.632 46.3762 165.549 44.4873C165.544 44.1653 165.544 43.8436 165.546 43.5216C165.546 43.3997 165.546 43.2777 165.546 43.1521C165.546 42.751 165.547 42.3499 165.548 41.9489C165.548 41.67 165.548 41.3912 165.548 41.1123C165.549 40.3798 165.55 39.6473 165.552 38.9148C165.553 38.1667 165.554 37.4187 165.554 36.6706C165.556 35.2039 165.558 33.7372 165.561 32.2705C167.028 32.2705 168.494 32.2705 170.006 32.2705C170.007 32.6167 170.008 32.9629 170.009 33.3196C170.014 34.4677 170.021 35.6158 170.03 36.7639C170.036 37.4595 170.04 38.1551 170.042 38.8507C170.044 39.5229 170.049 40.1951 170.055 40.8673C170.057 41.1228 170.058 41.3784 170.058 41.6339C170.032 43.8656 170.032 43.8656 170.999 45.8254C172.132 46.7134 173.004 47.0735 174.45 46.9082C175.652 46.5844 176.393 46.1046 177.022 45.0484C177.601 43.8468 177.495 42.5392 177.495 41.2375C177.497 40.9745 177.499 40.7115 177.502 40.4484C177.508 39.7601 177.511 39.0718 177.513 38.3834C177.515 37.6794 177.521 36.9754 177.526 36.2714C177.536 34.893 177.543 33.5147 177.548 32.1362Z" fill="#252525"/>
<path d="M187.244 27.9766C188.711 27.9766 190.178 27.9766 191.689 27.9766C191.689 29.3947 191.689 30.8128 191.689 32.2739C193.111 32.2739 194.533 32.2739 195.999 32.2739C195.999 33.559 195.999 34.8442 195.999 36.1683C194.576 36.1683 193.154 36.1683 191.689 36.1683C191.697 37.6935 191.697 37.6935 191.71 39.2187C191.717 39.8413 191.723 40.464 191.725 41.0867C191.727 41.5892 191.732 42.0915 191.738 42.5939C191.74 42.785 191.741 42.976 191.742 43.167C191.743 44.4259 191.806 45.2918 192.623 46.2904C193.299 46.8212 194.003 46.8298 194.829 46.8611C195.215 46.8777 195.601 46.8944 195.999 46.9115C195.999 48.1523 195.999 49.3932 195.999 50.6716C193.897 51.0209 191.696 51.037 189.828 49.9078C188.646 49.0403 187.967 48.0294 187.514 46.6429C187.467 46.5017 187.42 46.3604 187.372 46.2149C187.147 45.2995 187.211 44.3436 187.218 43.4074C187.218 43.1981 187.219 42.9889 187.219 42.7797C187.22 42.2322 187.223 41.6847 187.226 41.1372C187.228 40.5772 187.23 40.0173 187.231 39.4573C187.234 38.361 187.239 37.2646 187.244 36.1683C186.222 36.1683 185.2 36.1683 184.146 36.1683C184.146 34.8831 184.146 33.598 184.146 32.2739C184.591 32.1852 185.035 32.0966 185.493 32.0053C186.202 31.7385 186.538 31.3942 186.975 30.7967C187.094 30.4396 187.134 30.195 187.152 29.8257C187.157 29.7285 187.162 29.6314 187.168 29.5313C187.176 29.3475 187.176 29.3475 187.185 29.16C187.205 28.7695 187.224 28.3789 187.244 27.9766Z" fill="#252525"/>
<path d="M119.5 25.0205C120.967 25.0205 122.433 25.0205 123.945 25.0205C123.945 33.4848 123.945 41.9491 123.945 50.6699C122.478 50.6699 121.011 50.6699 119.5 50.6699C119.5 42.2056 119.5 33.7413 119.5 25.0205Z" fill="#252525"/>
<path d="M109.109 36.2662C110.511 37.0914 111.607 38.2303 112.04 39.836C112.3 41.6884 112.12 43.569 110.988 45.1058C110.211 46.0619 109.26 46.7904 108.002 46.9508C107.664 46.969 107.329 46.9732 106.99 46.9691C106.871 46.9678 106.751 46.9665 106.629 46.9651C105.203 46.9264 104.288 46.5226 103.247 45.537C101.911 43.9554 101.731 42.183 101.855 40.1958C102.062 38.8148 102.915 37.561 104.01 36.7043C105.537 35.8082 107.453 35.4673 109.109 36.2662Z" fill="#FDFBFB"/>
<path d="M138.489 42.4788C138.574 43.972 138.423 45.0362 137.462 46.2138C136.506 47.2169 135.218 47.7018 133.843 47.7581C133.019 47.7355 132.4 47.517 131.772 46.9859C131.279 46.3931 131.155 45.9586 131.174 45.1977C131.261 44.5809 131.626 44.2156 132.058 43.7965C133.032 43.1566 134.13 43.0135 135.262 42.833C135.535 42.7894 135.807 42.7437 136.08 42.6978C136.894 42.5648 137.662 42.4622 138.489 42.4788Z" fill="#FCF8F7"/>
<path d="M165.561 55.3739C166.08 55.3628 166.599 55.3517 167.135 55.3403C167.379 55.333 167.379 55.333 167.627 55.3255C168.685 55.3146 168.685 55.3146 169.224 55.6121C169.587 56.0602 169.657 56.4167 169.601 56.9854C169.382 57.447 169.382 57.447 169.062 57.7911C168.706 57.8798 168.706 57.8798 168.389 57.9254C168.473 58.0371 168.558 58.1487 168.645 58.2638C168.756 58.4112 168.867 58.5586 168.978 58.706C169.034 58.7795 169.089 58.8529 169.146 58.9287C169.87 59.8891 169.87 59.8891 169.87 60.3426C169.501 60.3909 169.501 60.3909 169.062 60.3426C168.767 60.009 168.767 60.009 168.507 59.5705C167.998 58.6351 167.998 58.6351 167.128 58.1122C167.022 58.1059 166.916 58.0997 166.806 58.0933C166.617 58.0822 166.429 58.0711 166.234 58.0597C166.234 58.8131 166.234 59.5664 166.234 60.3426C166.012 60.3426 165.79 60.3426 165.561 60.3426C165.561 58.703 165.561 57.0633 165.561 55.3739Z" fill="#252525"/>
<path d="M193.171 55.373C193.482 55.373 193.793 55.373 194.114 55.373C194.304 55.8374 194.495 56.3019 194.686 56.7663C194.739 56.896 194.793 57.0256 194.847 57.1592C194.955 57.4201 195.061 57.6811 195.168 57.9423C195.272 58.1955 195.376 58.4484 195.481 58.7011C195.529 58.8177 195.577 58.9343 195.627 59.0545C195.691 59.2086 195.691 59.2086 195.756 59.3659C195.871 59.6887 195.94 60.0048 195.999 60.3418C195.732 60.3418 195.466 60.3418 195.191 60.3418C195.013 59.8986 194.835 59.4555 194.652 58.9989C193.941 58.9546 193.23 58.9103 192.497 58.8646C192.456 59.0834 192.414 59.3022 192.371 59.5277C192.245 60.1907 192.245 60.1907 192.093 60.3418C191.824 60.3473 191.554 60.3475 191.285 60.3418C191.365 59.8953 191.474 59.4939 191.645 59.0739C191.69 58.963 191.735 58.8521 191.781 58.7378C191.852 58.5637 191.852 58.5637 191.925 58.3862C191.973 58.2672 192.021 58.1482 192.071 58.0257C192.432 57.139 192.797 56.2543 193.171 55.373Z" fill="#323232"/>
<path d="M148.321 55.373C148.632 55.373 148.943 55.373 149.264 55.373C149.393 55.6624 149.522 55.9518 149.651 56.2412C149.742 56.4447 149.833 56.648 149.925 56.8508C150.246 57.5583 150.548 58.2736 150.847 58.9905C150.889 59.0924 150.932 59.1942 150.976 59.2992C151.284 60.0419 151.284 60.0419 151.284 60.3418C150.905 60.3838 150.905 60.3838 150.476 60.3418C150.06 59.855 150.048 59.5236 149.937 58.8646C149.226 58.8646 148.515 58.8646 147.782 58.8646C147.649 59.3521 147.516 59.8395 147.378 60.3418C147.112 60.3418 146.845 60.3418 146.57 60.3418C146.667 59.7014 146.902 59.1343 147.143 58.5373C147.558 57.4899 147.949 56.4366 148.321 55.373Z" fill="#2D2D2D"/>
<path d="M185.41 55.456C185.801 55.8089 186.035 56.1298 186.302 56.5806C186.257 56.6693 186.213 56.7579 186.167 56.8492C185.856 56.8912 185.856 56.8912 185.494 56.8492C185.267 56.5219 185.267 56.5219 185.09 56.1778C184.621 55.9442 184.119 55.9643 183.608 56.0435C183.126 56.4038 182.909 56.6701 182.8 57.2521C182.728 58.0148 182.754 58.6166 183.204 59.2664C183.616 59.6203 183.81 59.6705 184.357 59.6609C184.86 59.5243 185.047 59.4053 185.359 58.9979C185.404 58.8649 185.448 58.732 185.494 58.595C185.76 58.595 186.027 58.595 186.302 58.595C186.265 59.1265 186.202 59.3604 185.847 59.77C185.132 60.3811 184.686 60.4 183.766 60.3817C183.202 60.3276 182.928 60.2095 182.531 59.8036C181.927 59.048 181.911 58.2287 181.94 57.2904C182.031 56.5167 182.3 56.1226 182.876 55.5902C183.643 55.0805 184.591 55.0629 185.41 55.456Z" fill="#2B2B2B"/>
<path d="M156.537 55.373C157.648 55.373 158.759 55.373 159.904 55.373C159.904 55.5503 159.904 55.7276 159.904 55.9102C159.015 55.9102 158.126 55.9102 157.211 55.9102C157.211 56.3977 157.211 56.8852 157.211 57.3874C158.011 57.3874 158.811 57.3874 159.635 57.3874C159.635 57.609 159.635 57.8306 159.635 58.0589C158.879 58.0589 158.124 58.0589 157.345 58.0589C157.345 58.8122 157.345 59.5656 157.345 60.3418C157.079 60.3418 156.812 60.3418 156.537 60.3418C156.537 58.7021 156.537 57.0624 156.537 55.373Z" fill="#2C2C2C"/>
<path d="M166.234 55.9081C166.56 55.8972 166.885 55.8892 167.211 55.8829C167.303 55.8796 167.395 55.8762 167.489 55.8727C167.93 55.8663 168.208 55.8798 168.589 56.1111C168.657 56.1771 168.724 56.243 168.793 56.311C168.76 56.7642 168.76 56.7642 168.659 57.251C168.197 57.6031 167.704 57.5467 167.143 57.5364C166.973 57.534 166.803 57.5315 166.628 57.529C166.498 57.5259 166.368 57.5228 166.234 57.5196C166.234 56.9878 166.234 56.456 166.234 55.9081Z" fill="#F0F0F0"/>
<path d="M175.527 55.373C175.75 55.373 175.972 55.373 176.201 55.373C176.201 57.0127 176.201 58.6524 176.201 60.3418C175.979 60.3418 175.756 60.3418 175.527 60.3418C175.527 58.7021 175.527 57.0624 175.527 55.373Z" fill="#252525"/>
<path d="M193.576 56.1792C193.818 56.5418 193.971 56.8596 194.131 57.2619C194.179 57.3798 194.226 57.4977 194.275 57.6191C194.384 57.925 194.384 57.925 194.384 58.1936C193.895 58.1936 193.406 58.1936 192.902 58.1936C193.049 57.4536 193.201 56.8425 193.576 56.1792Z" fill="#EDEDED"/>
<path d="M148.726 56.043C149.117 56.2377 149.137 56.4868 149.282 56.8907C149.329 57.0203 149.377 57.15 149.426 57.2836C149.534 57.6545 149.534 57.6545 149.534 58.1916C149.09 58.1916 148.645 58.1916 148.188 58.1916C148.344 57.4663 148.514 56.7539 148.726 56.043Z" fill="#EBEBEB"/>
<path d="M33.3789 17.7127C33.9881 18.0694 34.4452 18.578 34.9262 19.0874C35.1294 19.2984 35.333 19.5091 35.537 19.7195C35.6361 19.8219 35.7353 19.9244 35.8375 20.0299C36.1907 20.3818 36.5633 20.7045 36.9424 21.0282C37.5079 21.5257 38.0264 22.0728 38.5542 22.6094C38.9906 23.0496 39.4306 23.4759 39.901 23.8799C40.5657 24.4507 41.1728 25.0741 41.7866 25.6981C42.2216 26.1369 42.6601 26.5619 43.1292 26.9644C43.8262 27.5629 44.4618 28.2194 45.1058 28.8733C45.6447 29.4165 46.1957 29.9312 46.7765 30.4294C47.31 30.9007 47.8009 31.4157 48.2993 31.9232C48.7183 32.3462 49.1422 32.7536 49.5941 33.1417C50.2599 33.7142 50.8686 34.3387 51.4838 34.9641C52.593 36.0841 52.593 36.0841 53.8576 37.0178C54.4272 37.41 54.8426 37.8083 55.1203 38.4504C55.5168 40.7234 55.2499 43.3401 54.7163 45.5678C54.6761 45.7408 54.6761 45.7408 54.6352 45.9174C53.6196 50.1983 51.5559 54.0514 48.5208 57.251C48.3629 57.4322 48.2057 57.614 48.0494 57.7966C47.1542 58.8161 46.1849 59.7121 45.12 60.5531C44.932 60.7043 44.7461 60.858 44.5609 61.0126C43.6968 61.7306 42.8094 62.3828 41.8708 63.0003C41.7303 63.0929 41.5898 63.1855 41.4451 63.2809C34.2466 67.9786 34.2466 67.9786 31.7506 67.9979C31.0873 67.8029 30.4645 67.5446 29.8334 67.2641C29.6968 67.2039 29.5602 67.1437 29.4195 67.0817C24.863 65.0476 20.6053 62.3193 17.0048 58.8625C16.9343 58.7951 16.8638 58.7278 16.7911 58.6583C15.8462 57.7512 14.9773 56.8124 14.1765 55.7738C14.119 55.7 14.0616 55.6261 14.0025 55.55C12.5735 53.7021 11.3969 51.7719 10.54 49.5965C10.4771 49.4464 10.4771 49.4464 10.4129 49.2933C9.4601 46.9985 8.9917 44.543 8.78912 42.0762C8.77466 41.9236 8.76021 41.7709 8.74532 41.6136C8.49682 38.728 8.49682 38.728 9.11425 37.929C9.46712 37.5737 9.86654 37.2987 10.2836 37.0236C10.7484 36.6888 11.1297 36.2689 11.5249 35.8569C11.986 35.3851 12.4525 34.93 12.9533 34.4998C13.5241 34.0082 14.0525 33.4812 14.5805 32.9445C15.1893 32.3257 15.8074 31.7345 16.4661 31.1688C16.9361 30.7524 17.3728 30.3032 17.8129 29.8558C18.3359 29.3242 18.8585 28.8016 19.4249 28.3157C20.018 27.8064 20.5645 27.2565 21.1127 26.7C21.7461 26.0569 22.3868 25.4386 23.0722 24.8506C23.5169 24.4578 23.9293 24.0341 24.3451 23.6113C24.9242 23.0277 25.5038 22.4617 26.1339 21.9327C26.6818 21.4402 27.1925 20.909 27.7114 20.3865C28.2247 19.8716 28.7442 19.3756 29.3026 18.9091C29.555 18.6882 29.7803 18.45 30.0102 18.2061C31.0132 17.1992 32.1479 17.1466 33.3789 17.7127Z" fill="#252525"/>
<path d="M42.5444 2.06698C42.6677 2.10608 42.7911 2.14517 42.9181 2.18546C45.5732 3.02971 48.1932 3.95488 50.7986 4.94068C51.1914 5.08924 51.5843 5.23723 51.9773 5.38515C56.0198 6.90925 56.0198 6.90925 57.9564 7.84133C58.1356 7.92759 58.3151 8.01334 58.4948 8.09863C60.6385 9.118 62.5646 10.194 63.4746 12.5128C63.8965 13.8761 63.9121 15.1509 63.906 16.5635C63.9059 16.8105 63.9059 17.0574 63.906 17.3044C63.9059 17.9766 63.9039 18.6487 63.9016 19.3209C63.9002 19.7439 63.8993 20.1668 63.8986 20.5897C63.8947 22.7387 63.8858 24.8876 63.875 27.0366C63.8741 27.2003 63.8733 27.3641 63.8725 27.5328C63.861 29.8717 63.846 32.2106 63.828 34.5495C63.8245 35.032 63.8213 35.5145 63.8182 35.997C63.8133 36.764 63.807 37.5309 63.7998 38.2979C63.7974 38.5782 63.7953 38.8584 63.7937 39.1387C63.7336 49.2046 60.0072 57.4475 52.8682 64.4883C52.4102 64.9121 51.9263 65.3008 51.4383 65.6896C51.1244 65.9447 50.8287 66.209 50.5328 66.4843C48.9811 67.8738 47.1721 69.0168 45.4233 70.1437C45.291 70.2296 45.1587 70.3155 45.0224 70.4039C43.5423 71.3385 41.9873 72.1468 40.44 72.9638C40.3394 73.0172 40.2388 73.0706 40.1352 73.1256C33.1281 76.8212 33.1281 76.8212 31.0353 76.2098C30.5969 76.0518 30.1647 75.8829 29.7326 75.7084C29.5765 75.6468 29.4204 75.5851 29.2596 75.5216C28.0807 75.0532 26.9113 74.5691 25.7595 74.0382C25.6522 73.9891 25.5448 73.94 25.4343 73.8894C22.0473 72.3336 18.7762 70.5037 15.7929 68.2637C15.718 68.2074 15.643 68.1512 15.5659 68.0933C15.054 67.7073 14.5475 67.3149 14.042 66.9208C13.9305 66.836 13.8191 66.7511 13.7042 66.6637C11.4615 64.9294 9.31195 62.8479 7.57717 60.6091C7.43868 60.4346 7.30013 60.2601 7.16154 60.0856C5.01507 57.3615 3.23827 54.3402 2.05514 51.0745C2.01367 50.9673 1.97219 50.8601 1.92946 50.7497C1.57277 49.812 1.31648 48.8712 1.09552 47.8935C1.06059 47.7404 1.02566 47.5872 0.98967 47.4294C0.732596 46.2745 0.535935 45.1364 0.438933 43.9571C0.428243 43.8363 0.417555 43.7155 0.406541 43.591C0.290855 42.1668 0.27676 40.747 0.26637 39.3189C0.263968 39.0515 0.261503 38.7842 0.258984 38.5169C0.253753 37.9528 0.248843 37.3887 0.244204 36.8246C0.232104 35.3584 0.217998 33.8922 0.203763 32.426C0.202384 32.2823 0.201008 32.1387 0.199587 31.9906C0.178082 29.7681 0.143839 27.5464 0.0938065 25.3244C0.0468764 23.1687 0.0175276 21.0135 0.0111459 18.8573C0.0101541 18.5528 0.00873335 18.2483 0.00683017 17.9438C-0.0243984 12.5201 -0.0243984 12.5201 1.78577 10.3846C2.64147 9.60826 3.5596 9.03079 4.58887 8.51291C4.78942 8.41044 4.78942 8.41044 4.99401 8.3059C6.74905 7.42116 8.55533 6.65849 10.4018 5.9851C11.1309 5.71906 11.8496 5.43015 12.5689 5.13887C13.5054 4.76157 14.4428 4.41896 15.4041 4.10913C16.0171 3.91153 16.6245 3.69845 17.2323 3.48542C17.3457 3.44579 17.4592 3.40616 17.576 3.36532C18.1551 3.16279 18.7336 2.95885 19.3115 2.75312C20.6247 2.28721 21.9405 1.8589 23.2814 1.47946C23.6468 1.37507 24.0113 1.26796 24.3758 1.16052C31.1889 -0.845338 35.8373 -0.0616764 42.5444 2.06698ZM20.3477 6.09321C19.9068 6.24127 19.4657 6.38861 19.0241 6.53442C18.1245 6.83151 17.2277 7.13264 16.34 7.46377C16.2343 7.50304 16.1285 7.54231 16.0195 7.58278C15.7923 7.66718 15.5652 7.7517 15.3381 7.83634C14.9759 7.97066 14.6129 8.1029 14.2498 8.23489C11.4388 9.26256 8.62131 10.3514 5.95255 11.7107C5.84053 11.7665 5.72852 11.8223 5.61311 11.8798C4.79483 12.312 4.21411 12.8457 3.76394 13.6579C3.49082 14.6977 3.51678 15.7795 3.51877 16.8462C3.51864 17.0033 3.51851 17.1603 3.51838 17.3221C3.51829 17.6556 3.51854 17.989 3.5191 18.3224C3.5198 18.8144 3.51911 19.3065 3.51824 19.7985C3.51778 21.4366 3.5381 23.072 3.59214 24.7092C3.66453 26.9049 3.69022 29.0998 3.70449 31.2966C3.70561 31.4613 3.70673 31.6259 3.70788 31.7955C3.71834 33.3363 3.72787 34.8771 3.73556 36.4179C3.73987 37.2706 3.74543 38.1232 3.75175 38.9758C3.75388 39.2958 3.75555 39.6158 3.75672 39.9357C3.76588 42.4013 3.8739 44.7649 4.49628 47.1633C4.53735 47.3237 4.57842 47.484 4.62074 47.6492C5.2045 49.8499 6.10052 51.8907 7.17312 53.8946C7.25576 54.0515 7.3384 54.2083 7.42354 54.3699C8.12269 55.646 8.96813 56.7817 9.86679 57.9233C9.96645 58.0516 10.0661 58.1799 10.1688 58.312C13.0342 61.9076 16.614 64.8642 20.5077 67.2905C20.6757 67.3953 20.8434 67.5007 21.0105 67.607C23.6702 69.2981 26.5681 70.6975 29.4819 71.8921C29.7676 72.0104 30.0504 72.1336 30.3329 72.2593C30.4821 72.3229 30.6312 72.3864 30.7849 72.4519C30.9038 72.5036 31.0227 72.5554 31.1452 72.6087C32.4828 72.8941 33.6501 72.2946 34.8422 71.7552C35.0233 71.6748 35.2045 71.5944 35.3857 71.5142C35.9044 71.2837 36.4213 71.0496 36.9382 70.8152C37.0658 70.7582 37.1934 70.7013 37.3249 70.6426C40.1877 69.3646 42.8476 67.7588 45.4233 65.9807C45.5148 65.9183 45.6062 65.8558 45.7005 65.7914C46.8826 64.9824 47.9795 64.0998 49.0597 63.1606C49.1608 63.075 49.2618 62.9893 49.3659 62.901C50.0629 62.3063 50.7066 61.664 51.3494 61.012C52.0228 60.3406 52.0228 60.3406 52.2506 60.1276C53.631 58.8096 54.7416 57.2231 55.7939 55.6404C55.8806 55.5121 55.9672 55.3838 56.0565 55.2517C57.5093 53.0098 58.5492 50.542 59.2957 47.9859C59.3236 47.8917 59.3515 47.7975 59.3802 47.7004C60.1421 45.0746 60.2988 42.4263 60.3027 39.7076C60.3046 39.3929 60.3067 39.0781 60.309 38.7634C60.3146 37.9387 60.318 37.114 60.3208 36.2892C60.3256 34.9877 60.3339 33.6862 60.3419 32.3847C60.3438 32.0629 60.3456 31.7411 60.3474 31.4193C60.3621 28.7496 60.4085 26.0814 60.4693 23.4124C60.4735 23.2252 60.4735 23.2252 60.4779 23.0343C60.482 22.8527 60.482 22.8527 60.4862 22.6674C60.5154 21.3666 60.5329 20.066 60.5328 18.7648C60.5331 18.4162 60.5357 18.0675 60.5381 17.7189C60.6376 15.1273 60.6376 15.1273 59.7282 12.805C56.4974 9.85683 50.3644 8.38411 46.2889 7.00477C45.9067 6.87411 45.5267 6.73798 45.1467 6.60108C35.7544 3.22889 29.841 2.90424 20.3477 6.09321Z" fill="#252525"/>
<path d="M35.3225 30.2591C35.5194 30.3208 35.5194 30.3208 35.7202 30.3837C37.365 30.9036 38.9933 31.4573 40.592 32.1056C40.709 32.1529 40.826 32.2002 40.9466 32.2489C42.4402 32.8699 43.7957 33.4947 44.4728 35.0352C44.7578 35.9555 44.7119 36.9082 44.7051 37.8623C44.7056 38.0913 44.7062 38.3202 44.7071 38.5492C44.708 39.0281 44.7066 39.5068 44.7035 39.9856C44.6997 40.5908 44.7019 41.1957 44.7058 41.8009C44.7321 46.606 44.0137 50.4364 40.6088 54.0537C38.6202 55.9436 34.9928 58.5842 32.1516 58.5377C30.588 58.277 28.986 57.3952 27.6455 56.58C27.4565 56.4653 27.4565 56.4653 27.2636 56.3482C24.6151 54.6639 22.4849 52.4543 21.1975 49.5801C21.1606 49.4985 21.1237 49.4169 21.0857 49.3327C20.367 47.6448 20.3087 46.0149 20.3095 44.2112C20.3085 43.9514 20.3075 43.6917 20.3064 43.4319C20.3046 42.8902 20.3043 42.3486 20.3051 41.8069C20.3059 41.1152 20.3018 40.4235 20.2964 39.7318C20.2929 39.1964 20.2925 38.6611 20.293 38.1257C20.2928 37.8707 20.2915 37.6157 20.2891 37.3607C20.2671 34.7526 20.2671 34.7526 21.046 33.885C24.1774 30.9275 31.3209 28.9957 35.3225 30.2591Z" fill="#FDFAFA"/>
<path d="M38.9588 9.84906C39.2727 9.95227 39.5866 10.0554 39.9005 10.1586C40.7999 10.4549 41.698 10.7549 42.5953 11.0577C42.707 11.0954 42.8188 11.1331 42.934 11.172C44.292 11.6329 45.6236 12.1495 46.953 12.6865C47.4538 12.8886 47.9569 13.0833 48.4624 13.2735C50.023 13.87 51.5681 14.5074 53.0669 15.2459C53.1519 15.2873 53.2368 15.3287 53.3243 15.3714C53.7451 15.5833 54.1537 15.813 54.5505 16.0668C54.6245 16.1136 54.6985 16.1604 54.7748 16.2086C55.5531 17.0213 55.4451 18.0642 55.4344 19.1135C55.4342 19.2849 55.434 19.4564 55.4338 19.633C55.4331 20.0952 55.4299 20.5574 55.426 21.0196C55.4232 21.4015 55.4218 21.7834 55.4205 22.1653C55.4091 25.2676 55.3555 28.369 55.2555 31.4698C54.6594 30.9652 54.071 30.4541 53.4962 29.9255C53.4223 29.8576 53.3484 29.7897 53.2723 29.7197C52.6149 29.111 51.9799 28.4812 51.3526 27.8419C50.9655 27.4499 50.571 27.0766 50.1528 26.7177C49.4528 26.1148 48.8129 25.4554 48.1652 24.7978C47.6263 24.2546 47.0753 23.7398 46.4945 23.2416C45.961 22.7704 45.4701 22.2554 44.9717 21.7479C44.5541 21.3263 44.1318 20.9201 43.6811 20.5335C42.983 19.9333 42.3458 19.2757 41.7003 18.6204C41.161 18.0767 40.6093 17.5617 40.0279 17.0631C39.5914 16.6769 39.1892 16.2582 38.782 15.8418C36.8605 13.9101 34.8709 12.3795 32.031 12.3502C29.4018 12.383 27.5637 13.5615 25.7598 15.355C25.6502 15.4638 25.5407 15.5727 25.4278 15.6849C25.2377 15.8751 25.0486 16.0664 24.8612 16.2593C24.5958 16.5169 24.3252 16.7572 24.0447 16.9979C23.4424 17.5192 22.884 18.078 22.3254 18.6451C21.78 19.1988 21.2366 19.7463 20.646 20.2524C20.0288 20.7819 19.4615 21.3565 18.8909 21.9352C18.2328 22.6026 17.5695 23.2481 16.8575 23.8583C16.4382 24.2274 16.0494 24.6253 15.6585 25.0239C15.1833 25.5085 14.7051 25.9791 14.1896 26.4213C13.5941 26.9339 13.0444 27.486 12.4934 28.0454C11.8546 28.694 11.2084 29.3187 10.5171 29.9116C10.174 30.212 9.85764 30.5313 9.53883 30.8571C9.33648 31.0638 9.13238 31.2688 8.92433 31.4698C8.87989 31.4698 8.83544 31.4698 8.78965 31.4698C8.66569 28.6156 8.62571 25.7646 8.62261 22.908C8.62185 22.32 8.61858 21.732 8.6148 21.1441C8.6123 20.6852 8.61159 20.2264 8.61139 19.7675C8.61098 19.5504 8.60991 19.3333 8.60813 19.1162C8.60583 18.8154 8.60608 18.5147 8.60696 18.2139C8.60647 18.0438 8.60597 17.8736 8.60547 17.6983C8.66947 17.0992 8.84538 16.632 9.28787 16.2121C12.1939 14.3791 15.512 13.2557 18.7074 12.0365C19.0605 11.9016 19.4131 11.7656 19.7653 11.6284C21.4437 10.9839 23.1568 10.4339 24.8654 9.87516C25.1721 9.77485 25.4786 9.67427 25.785 9.57327C30.8255 7.91418 33.9341 8.182 38.9588 9.84906Z" fill="#252525"/>
<path d="M34.1094 43.8247C36.4205 43.8247 38.7317 43.8247 41.1129 43.8247C41.1129 46.9764 40.6363 48.8657 38.5539 51.2107C38.481 51.2946 38.4081 51.3786 38.333 51.4651C37.2714 52.6064 35.7628 53.5979 34.3787 54.2993C34.2899 54.2993 34.201 54.2993 34.1094 54.2993C34.1094 50.8427 34.1094 47.3861 34.1094 43.8247Z" fill="#252525"/>
<path d="M23.7383 43.8247C26.0495 43.8247 28.3606 43.8247 30.7418 43.8247C30.7418 47.237 30.7418 50.6493 30.7418 54.1651C28.497 53.7174 26.4147 51.6376 25.1693 49.809C23.9046 47.8829 23.7383 46.1397 23.7383 43.8247Z" fill="#252525"/>
<path d="M30.7418 33.6162C30.7418 35.8763 30.7418 38.1364 30.7418 40.465C28.4307 40.465 26.1195 40.465 23.7383 40.465C23.7383 39.0026 23.7383 37.5402 23.7383 36.0334C26.6721 34.7583 26.6721 34.7583 27.7998 34.4094C28.4238 34.2111 29.0345 33.9749 29.647 33.7442C30.0684 33.6162 30.0684 33.6162 30.7418 33.6162Z" fill="#252525"/>
<path d="M34.1094 33.6162C35.1719 33.7676 35.1719 33.7676 35.6824 33.9362C35.7954 33.9734 35.9083 34.0105 36.0246 34.0489C36.1426 34.0889 36.2606 34.1289 36.3822 34.1702C36.5055 34.2116 36.6289 34.253 36.756 34.2957C37.9157 34.6912 39.0449 35.1473 40.1701 35.6306C40.4813 35.7635 40.7924 35.8965 41.1129 36.0334C41.1129 37.4959 41.1129 38.9583 41.1129 40.465C38.8018 40.465 36.4906 40.465 34.1094 40.465C34.1094 38.2049 34.1094 35.9448 34.1094 33.6162Z" fill="#252525"/>
<path d="M38.8232 50.8042C38.8677 50.9371 38.9121 51.0701 38.9579 51.2071C38.4641 51.6995 37.9702 52.1919 37.4764 52.6843C37.3875 52.5513 37.2986 52.4184 37.207 52.2814C37.3011 52.1973 37.3952 52.1131 37.4922 52.0265C37.6148 51.9167 37.7373 51.8069 37.8636 51.6939C38.0464 51.5303 38.0464 51.5303 38.2329 51.3634C38.4339 51.1815 38.6313 50.9956 38.8232 50.8042Z" fill="#FCE7E5"/>
<path d="M52.9663 50.5356C53.0108 50.5356 53.0552 50.5356 53.101 50.5356C53.101 50.7572 53.101 50.9788 53.101 51.2071C52.9677 51.2514 52.8343 51.2957 52.6969 51.3414C52.6969 51.6073 52.6969 51.8732 52.6969 52.1471C52.5192 52.1914 52.3414 52.2358 52.1582 52.2814C52.3854 51.6774 52.6723 51.1092 52.9663 50.5356Z" fill="#F9D7D9"/>
</svg>
