<svg width="196" height="77" viewBox="0 0 196 77" fill="none" xmlns="http://www.w3.org/2000/svg">
<path d="M106.864 31.9058C107.084 31.9074 107.084 31.9074 107.31 31.9092C110.005 31.965 112.238 32.938 114.166 34.8441C115.318 36.0713 116 37.3783 116.535 38.9682C116.569 39.0674 116.602 39.1665 116.637 39.2687C117.278 41.5878 116.74 44.2393 115.607 46.3001C115.252 46.9144 114.858 47.4666 114.381 47.9921C114.248 48.1426 114.248 48.1426 114.114 48.2961C112.848 49.6565 111.297 50.4323 109.532 50.9551C109.365 51.0048 109.365 51.0048 109.194 51.0556C106.626 51.6868 103.752 51.055 101.51 49.7345C99.463 48.357 97.935 46.2895 97.3951 43.8647C96.9139 41.3078 97.1511 38.4682 98.6225 36.2746C100.56 33.5192 103.478 31.8724 106.864 31.9058Z" fill="#AD080F"/>
<path d="M76.5352 25.4997C78.0908 25.4997 79.6463 25.4997 81.2491 25.4997C81.2935 29.0998 81.338 32.6999 81.3838 36.4091C82.407 35.2284 83.4278 34.0483 84.4341 32.8536C84.6206 32.6326 84.8077 32.4121 84.995 32.1918C85.5794 31.5037 86.1599 30.8135 86.729 30.1126C87.1764 29.5627 87.6396 29.0316 88.1137 28.5048C88.5119 28.0515 88.8894 27.5822 89.267 27.1117C89.3767 26.9797 89.4864 26.8478 89.5995 26.7118C89.6568 26.6084 89.7141 26.5049 89.7731 26.3983C90.0913 25.9102 90.3786 25.5635 90.9705 25.4369C91.8591 25.3461 92.7492 25.3896 93.64 25.4239C93.9141 25.43 94.1882 25.4355 94.4623 25.4405C95.1313 25.4538 95.7997 25.4747 96.4683 25.4997C96.3419 25.6697 96.2153 25.8395 96.0887 26.0093C96.0182 26.1039 95.9477 26.1985 95.8751 26.296C95.5587 26.71 95.2199 27.1023 94.8774 27.4947C94.3922 28.0552 93.9127 28.6186 93.4464 29.1951C92.894 29.8754 92.322 30.537 91.7466 31.1979C91.2073 31.8176 90.6725 32.4408 90.1444 33.07C89.8278 33.447 89.5082 33.8205 89.1828 34.1899C89.1145 34.2683 89.0462 34.3467 88.9758 34.4274C88.8453 34.5771 88.7138 34.7259 88.5811 34.8737C88.2182 35.2924 88.0343 35.5875 87.9833 36.1397C88.0814 36.4274 88.0814 36.4274 88.2621 36.6953C88.3264 36.8 88.3908 36.9048 88.457 37.0128C88.5285 37.1247 88.5999 37.2366 88.6735 37.3518C88.7467 37.47 88.8199 37.5881 88.8953 37.7099C89.1283 38.0854 89.3639 38.4594 89.5995 38.8334C89.8194 39.1873 90.0385 39.5417 90.2576 39.8962C90.4033 40.1317 90.5492 40.3671 90.6954 40.6023C91.2652 41.5199 91.8229 42.4443 92.3771 43.3713C93.2099 44.7638 94.0559 46.148 94.9111 47.5268C94.9895 47.6532 95.0679 47.7796 95.1486 47.9098C95.3004 48.1543 95.4523 48.3986 95.6044 48.6429C96.7377 50.467 96.7377 50.467 96.7377 50.8202C95.9928 50.8705 95.2488 50.9069 94.5026 50.9312C94.2494 50.9413 93.9963 50.9551 93.7435 50.9726C91.7097 51.1103 91.7097 51.1103 91.1262 50.6393C90.7314 50.1648 90.4868 49.6258 90.2509 49.0593C90.0926 48.695 89.8868 48.3685 89.6737 48.0339C89.6022 47.9166 89.5307 47.7993 89.4571 47.6785C89.3846 47.5597 89.3122 47.4408 89.2375 47.3184C89.1581 47.1881 89.0787 47.0577 88.9969 46.9234C88.6679 46.3835 88.3388 45.8436 88.0096 45.3038C86.9161 43.5105 85.8287 41.7137 84.7509 39.9108C84.1749 40.1689 83.8422 40.5692 83.4461 41.0472C83.3816 41.1235 83.3171 41.1998 83.2507 41.2785C83.1103 41.4451 82.973 41.6144 82.8382 41.7857C82.5959 42.0658 82.5959 42.0658 82.2776 42.3288C81.4592 43.0889 81.3101 43.7136 81.2488 44.8039C81.2267 45.6285 81.2311 46.4516 81.2407 47.2763C81.2403 47.62 81.2393 47.9636 81.2378 48.3073C81.2342 49.1452 81.2419 49.982 81.2491 50.8202C79.6935 50.8202 78.1379 50.8202 76.5352 50.8202C76.5352 42.4644 76.5352 34.1087 76.5352 25.4997Z" fill="#AE070E"/>
<path d="M135.165 31.9055C135.325 31.9065 135.485 31.9076 135.651 31.9086C137.904 31.9508 139.765 32.6313 141.422 34.1967C142.526 35.3988 142.999 36.7384 142.98 38.3435C142.98 38.5467 142.98 38.5467 142.98 38.754C142.98 39.1985 142.977 39.643 142.974 40.0875C142.973 40.397 142.973 40.7065 142.972 41.016C142.971 41.8282 142.967 42.6403 142.962 43.4524C142.958 44.2821 142.956 45.1118 142.954 45.9416C142.95 47.5678 142.943 49.194 142.934 50.8202C141.557 50.8202 140.179 50.8202 138.759 50.8202C138.715 50.2424 138.67 49.6646 138.625 49.0693C138.483 49.2082 138.341 49.3471 138.195 49.4902C136.463 50.9965 134.14 51.3865 131.914 51.2527C130.165 51.0828 128.66 50.3292 127.539 48.984C126.605 47.6776 126.504 46.1915 126.638 44.6247C126.991 43.1713 127.907 42.0221 129.155 41.2155C131.932 39.7077 135.391 39.4329 138.49 39.1027C138.486 38.175 138.404 37.4883 137.792 36.7668C136.864 35.9224 135.765 35.8094 134.557 35.8329C133.877 35.8826 133.405 36.0481 132.833 36.409C132.69 36.4947 132.69 36.4947 132.544 36.5821C131.815 37.0678 131.446 37.6412 131.082 38.4293C130.313 38.2997 129.663 37.9827 128.961 37.6548C128.83 37.5968 128.699 37.5388 128.565 37.4791C128.441 37.4211 128.317 37.3631 128.189 37.3034C128.075 37.2513 127.962 37.1993 127.845 37.1457C127.58 36.9477 127.58 36.9477 127.465 36.6111C127.42 35.8268 128.138 35.1023 128.61 34.5203C129.243 33.8408 130.015 33.3717 130.813 32.9072C130.953 32.8257 130.953 32.8257 131.095 32.7426C132.385 32.046 133.718 31.8926 135.165 31.9055Z" fill="#AD080F"/>
<path d="M155.847 31.9054C155.989 31.9067 156.132 31.9081 156.279 31.9094C158.249 31.9541 159.633 32.6656 161.103 33.9373C162.967 35.8902 162.906 38.4597 162.893 40.9687C162.893 41.2534 162.892 41.5382 162.892 41.8229C162.891 42.568 162.888 43.3131 162.885 44.0581C162.883 44.8201 162.881 45.5822 162.88 46.3442C162.877 47.8362 162.872 49.3281 162.867 50.8201C161.356 50.8201 159.845 50.8201 158.288 50.8201C158.286 50.4578 158.284 50.0956 158.282 49.7223C158.275 48.5241 158.266 47.3258 158.256 46.1276C158.25 45.4012 158.245 44.6749 158.241 43.9485C158.238 43.2473 158.232 42.5461 158.225 41.8448C158.223 41.5776 158.222 41.3103 158.221 41.0431C158.219 40.6681 158.216 40.2932 158.211 39.9183C158.211 39.8083 158.212 39.6984 158.212 39.5851C158.194 38.4947 157.822 37.7192 157.075 36.9208C156.181 36.1128 155.224 36.0534 154.049 36.0875C153.424 36.1559 153.002 36.312 152.496 36.6783C152.355 36.7727 152.213 36.8672 152.067 36.9645C151.275 37.6943 150.986 38.5618 150.935 39.617C150.919 40.2386 150.918 40.8598 150.92 41.4817C150.918 41.7515 150.916 42.0213 150.913 42.2912C150.908 42.9975 150.907 43.7038 150.906 44.4101C150.905 45.1324 150.9 45.8547 150.895 46.577C150.886 47.9914 150.882 49.4057 150.88 50.8201C149.413 50.8201 147.947 50.8201 146.436 50.8201C146.436 44.731 146.436 38.642 146.436 32.3684C147.813 32.3684 149.191 32.3684 150.611 32.3684C150.677 33.3018 150.677 33.3018 150.745 34.254C150.876 34.0929 151.007 33.9318 151.141 33.7658C152.431 32.3024 153.941 31.8859 155.847 31.9054Z" fill="#AE0A11"/>
<path d="M177.548 32.2339C179.015 32.2339 180.481 32.2339 181.992 32.2339C181.992 38.3674 181.992 44.5009 181.992 50.8202C180.57 50.8202 179.148 50.8202 177.683 50.8202C177.638 50.198 177.594 49.5758 177.548 48.9347C177.431 49.093 177.314 49.2513 177.194 49.4145C176.269 50.4706 174.762 51.1183 173.373 51.2243C171.263 51.355 169.501 51.0221 167.825 49.6333C166.449 48.3402 165.632 46.5156 165.549 44.6211C165.544 44.2982 165.544 43.9756 165.546 43.6526C165.546 43.5303 165.546 43.408 165.546 43.282C165.546 42.8798 165.547 42.4775 165.548 42.0753C165.548 41.7956 165.548 41.5159 165.548 41.2363C165.549 40.5016 165.55 39.7669 165.552 39.0323C165.553 38.282 165.554 37.5318 165.554 36.7816C165.556 35.3106 165.558 33.8396 165.561 32.3686C167.028 32.3686 168.494 32.3686 170.006 32.3686C170.007 32.7158 170.008 33.063 170.009 33.4207C170.014 34.5722 170.021 35.7236 170.03 36.8751C170.036 37.5728 170.04 38.2704 170.042 38.968C170.044 39.6422 170.049 40.3164 170.055 40.9906C170.057 41.2468 170.058 41.5031 170.058 41.7594C170.032 43.9976 170.032 43.9976 170.999 45.9632C172.132 46.8537 173.004 47.215 174.45 47.0491C175.652 46.7244 176.393 46.2432 177.022 45.1839C177.601 43.9788 177.495 42.6673 177.495 41.3619C177.497 41.0981 177.499 40.8343 177.502 40.5705C177.508 39.8801 177.511 39.1897 177.513 38.4994C177.515 37.7933 177.521 37.0872 177.526 36.3812C177.536 34.9988 177.543 33.6163 177.548 32.2339Z" fill="#AD0910"/>
<path d="M187.244 28.0586C188.711 28.0586 190.178 28.0586 191.689 28.0586C191.689 29.4809 191.689 30.9031 191.689 32.3685C193.111 32.3685 194.533 32.3685 195.999 32.3685C195.999 33.6574 195.999 34.9463 195.999 36.2743C194.576 36.2743 193.154 36.2743 191.689 36.2743C191.697 37.804 191.697 37.804 191.71 39.3336C191.717 39.9581 191.723 40.5826 191.725 41.2072C191.727 41.7111 191.732 42.2149 191.738 42.7188C191.74 42.9104 191.741 43.102 191.742 43.2935C191.743 44.5561 191.806 45.4245 192.623 46.4261C193.299 46.9584 194.003 46.9671 194.829 46.9985C195.215 47.0152 195.601 47.0318 195.999 47.049C195.999 48.2935 195.999 49.5379 195.999 50.8201C193.897 51.1704 191.696 51.1866 189.828 50.0541C188.646 49.1841 187.967 48.1702 187.514 46.7796C187.467 46.638 187.42 46.4963 187.372 46.3504C187.147 45.4323 187.211 44.4736 187.218 43.5346C187.218 43.3248 187.219 43.1149 187.219 42.9051C187.22 42.356 187.223 41.8069 187.226 41.2578C187.228 40.6962 187.23 40.1346 187.231 39.573C187.234 38.4734 187.239 37.3739 187.244 36.2743C186.222 36.2743 185.2 36.2743 184.146 36.2743C184.146 34.9854 184.146 33.6965 184.146 32.3685C184.591 32.2796 185.035 32.1907 185.493 32.0991C186.202 31.8315 186.538 31.4862 186.975 30.887C187.094 30.5288 187.134 30.2835 187.152 29.9131C187.157 29.8157 187.162 29.7183 187.168 29.6179C187.176 29.4335 187.176 29.4335 187.185 29.2455C187.205 28.8538 187.224 28.4621 187.244 28.0586Z" fill="#AD070D"/>
<path d="M119.5 25.0957C120.967 25.0957 122.433 25.0957 123.945 25.0957C123.945 33.5848 123.945 42.0739 123.945 50.8203C122.478 50.8203 121.011 50.8203 119.5 50.8203C119.5 42.3312 119.5 33.8421 119.5 25.0957Z" fill="#AD080F"/>
<path d="M109.109 36.3735C110.511 37.2011 111.607 38.3433 112.04 39.9537C112.3 41.8116 112.12 43.6977 110.988 45.239C110.211 46.1979 109.26 46.9285 108.002 47.0894C107.664 47.1077 107.329 47.1119 106.99 47.1077C106.871 47.1064 106.751 47.1051 106.629 47.1037C105.203 47.0649 104.288 46.6599 103.247 45.6714C101.911 44.0852 101.731 42.3076 101.855 40.3146C102.062 38.9295 102.915 37.6721 104.01 36.8128C105.537 35.9141 107.453 35.5722 109.109 36.3735Z" fill="#FDFBFB"/>
<path d="M138.489 42.6043C138.574 44.1018 138.423 45.1692 137.462 46.3502C136.506 47.3563 135.218 47.8426 133.843 47.8991C133.019 47.8764 132.4 47.6573 131.772 47.1246C131.279 46.5301 131.155 46.0943 131.174 45.3311C131.261 44.7125 131.626 44.3462 132.058 43.9259C133.032 43.2841 134.13 43.1406 135.262 42.9595C135.535 42.9158 135.807 42.87 136.08 42.824C136.894 42.6906 137.662 42.5876 138.489 42.6043Z" fill="#FCF8F7"/>
<path d="M165.561 55.5342C166.08 55.5231 166.599 55.512 167.135 55.5005C167.379 55.4932 167.379 55.4932 167.627 55.4857C168.685 55.4747 168.685 55.4747 169.224 55.7731C169.587 56.2225 169.657 56.5801 169.601 57.1504C169.382 57.6134 169.382 57.6134 169.062 57.9585C168.706 58.0474 168.706 58.0474 168.389 58.0932C168.473 58.2052 168.558 58.3172 168.645 58.4325C168.756 58.5804 168.867 58.7282 168.978 58.876C169.034 58.9497 169.089 59.0234 169.146 59.0994C169.87 60.0627 169.87 60.0627 169.87 60.5175C169.501 60.5659 169.501 60.5659 169.062 60.5175C168.767 60.1829 168.767 60.1829 168.507 59.7431C167.998 58.8049 167.998 58.8049 167.128 58.2805C167.022 58.2742 166.916 58.268 166.806 58.2616C166.617 58.2504 166.429 58.2393 166.234 58.2279C166.234 58.9835 166.234 59.739 166.234 60.5175C166.012 60.5175 165.79 60.5175 165.561 60.5175C165.561 58.873 165.561 57.2285 165.561 55.5342Z" fill="#252525"/>
<path d="M193.171 55.5342C193.482 55.5342 193.793 55.5342 194.114 55.5342C194.304 55.9999 194.495 56.4657 194.686 56.9315C194.739 57.0616 194.793 57.1916 194.847 57.3256C194.955 57.5873 195.061 57.849 195.168 58.1109C195.272 58.3649 195.376 58.6186 195.481 58.8719C195.529 58.9889 195.577 59.1059 195.627 59.2264C195.691 59.381 195.691 59.381 195.756 59.5387C195.871 59.8624 195.94 60.1795 195.999 60.5175C195.732 60.5175 195.466 60.5175 195.191 60.5175C195.013 60.073 194.835 59.6286 194.652 59.1706C193.941 59.1262 193.23 59.0817 192.497 59.036C192.456 59.2554 192.414 59.4749 192.371 59.701C192.245 60.366 192.245 60.366 192.093 60.5175C191.824 60.523 191.554 60.5232 191.285 60.5175C191.365 60.0697 191.474 59.6671 191.645 59.2459C191.69 59.1346 191.735 59.0234 191.781 58.9088C191.852 58.7342 191.852 58.7342 191.925 58.5561C191.973 58.4368 192.021 58.3175 192.071 58.1946C192.432 57.3053 192.797 56.418 193.171 55.5342Z" fill="#323232"/>
<path d="M148.321 55.5342C148.632 55.5342 148.943 55.5342 149.264 55.5342C149.393 55.8244 149.522 56.1146 149.651 56.4049C149.742 56.609 149.833 56.8128 149.925 57.0162C150.246 57.7258 150.548 58.4433 150.847 59.1622C150.889 59.2644 150.932 59.3666 150.976 59.4718C151.284 60.2167 151.284 60.2167 151.284 60.5175C150.905 60.5596 150.905 60.5596 150.476 60.5175C150.06 60.0293 150.048 59.6969 149.937 59.036C149.226 59.036 148.515 59.036 147.782 59.036C147.649 59.5249 147.516 60.0138 147.378 60.5175C147.112 60.5175 146.845 60.5175 146.57 60.5175C146.667 59.8752 146.902 59.3065 147.143 58.7077C147.558 57.6572 147.949 56.6009 148.321 55.5342Z" fill="#2D2D2D"/>
<path d="M185.41 55.6184C185.801 55.9724 186.035 56.2942 186.302 56.7463C186.257 56.8352 186.213 56.9241 186.167 57.0157C185.856 57.0578 185.856 57.0578 185.494 57.0157C185.267 56.6874 185.267 56.6874 185.09 56.3423C184.621 56.1081 184.119 56.1282 183.608 56.2076C183.126 56.569 182.909 56.8361 182.8 57.4198C182.728 58.1847 182.754 58.7883 183.204 59.44C183.616 59.7949 183.81 59.8453 184.357 59.8357C184.86 59.6987 185.047 59.5793 185.359 59.1707C185.404 59.0373 185.448 58.904 185.494 58.7666C185.76 58.7666 186.027 58.7666 186.302 58.7666C186.265 59.2997 186.202 59.5342 185.847 59.9451C185.132 60.5579 184.686 60.5769 183.766 60.5585C183.202 60.5043 182.928 60.3859 182.531 59.9788C181.927 59.221 181.911 58.3992 181.94 57.4582C182.031 56.6823 182.3 56.287 182.876 55.7531C183.643 55.2418 184.591 55.2242 185.41 55.6184Z" fill="#2B2B2B"/>
<path d="M156.537 55.5342C157.648 55.5342 158.759 55.5342 159.904 55.5342C159.904 55.712 159.904 55.8897 159.904 56.0729C159.015 56.0729 158.126 56.0729 157.211 56.0729C157.211 56.5618 157.211 57.0507 157.211 57.5544C158.011 57.5544 158.811 57.5544 159.635 57.5544C159.635 57.7767 159.635 57.9989 159.635 58.2279C158.879 58.2279 158.124 58.2279 157.345 58.2279C157.345 58.9834 157.345 59.739 157.345 60.5175C157.079 60.5175 156.812 60.5175 156.537 60.5175C156.537 58.873 156.537 57.2285 156.537 55.5342Z" fill="#2C2C2C"/>
<path d="M166.234 56.0728C166.56 56.0618 166.885 56.0538 167.211 56.0475C167.303 56.0441 167.395 56.0408 167.489 56.0373C167.93 56.0308 168.208 56.0444 168.589 56.2764C168.657 56.3425 168.724 56.4087 168.793 56.4768C168.76 56.9314 168.76 56.9314 168.659 57.4196C168.197 57.7727 167.704 57.7162 167.143 57.7058C166.973 57.7034 166.803 57.701 166.628 57.6985C166.498 57.6953 166.368 57.6922 166.234 57.689C166.234 57.1556 166.234 56.6223 166.234 56.0728Z" fill="#F0F0F0"/>
<path d="M175.527 55.5342C175.75 55.5342 175.972 55.5342 176.201 55.5342C176.201 57.1787 176.201 58.8232 176.201 60.5175C175.979 60.5175 175.756 60.5175 175.527 60.5175C175.527 58.873 175.527 57.2285 175.527 55.5342Z" fill="#252525"/>
<path d="M193.576 56.3423C193.818 56.706 193.971 57.0247 194.131 57.4282C194.179 57.5464 194.226 57.6646 194.275 57.7865C194.384 58.0932 194.384 58.0932 194.384 58.3625C193.895 58.3625 193.406 58.3625 192.902 58.3625C193.049 57.6204 193.201 57.0075 193.576 56.3423Z" fill="#EDEDED"/>
<path d="M148.726 56.2075C149.117 56.4028 149.137 56.6527 149.282 57.0577C149.329 57.1877 149.377 57.3178 149.426 57.4518C149.534 57.8237 149.534 57.8237 149.534 58.3625C149.09 58.3625 148.645 58.3625 148.188 58.3625C148.344 57.635 148.514 56.9206 148.726 56.2075Z" fill="#EBEBEB"/>
<path d="M33.3789 17.7655C33.9881 18.1232 34.4452 18.6334 34.9262 19.1443C35.1294 19.3559 35.333 19.5672 35.537 19.7782C35.6361 19.8809 35.7353 19.9836 35.8375 20.0895C36.1907 20.4424 36.5633 20.7661 36.9424 21.0907C37.5079 21.5897 38.0264 22.1384 38.5542 22.6765C38.9906 23.118 39.4306 23.5456 39.901 23.9508C40.5657 24.5232 41.1728 25.1485 41.7866 25.7743C42.2216 26.2144 42.6601 26.6406 43.1292 27.0443C43.8262 27.6446 44.4618 28.303 45.1058 28.9588C45.6447 29.5036 46.1957 30.0198 46.7765 30.5195C47.31 30.9921 47.8009 31.5087 48.2993 32.0176C48.7183 32.4418 49.1422 32.8505 49.5941 33.2397C50.2599 33.8139 50.8686 34.4402 51.4838 35.0674C52.593 36.1907 52.593 36.1907 53.8576 37.1272C54.4272 37.5206 54.8426 37.92 55.1203 38.564C55.5168 40.8436 55.2499 43.468 54.7163 45.7022C54.6761 45.8758 54.6761 45.8758 54.6352 46.0529C53.6196 50.3462 51.5559 54.2106 48.5208 57.4197C48.3629 57.6014 48.2057 57.7838 48.0494 57.9668C47.1542 58.9894 46.1849 59.888 45.12 60.7314C44.932 60.883 44.7461 61.0372 44.5609 61.1922C43.6968 61.9123 42.8094 62.5665 41.8708 63.1858C41.7303 63.2787 41.5898 63.3715 41.4451 63.4672C34.2466 68.1786 34.2466 68.1786 31.7506 68.1981C31.0873 68.0025 30.4645 67.7434 29.8334 67.462C29.6968 67.4017 29.5602 67.3413 29.4195 67.2791C24.863 65.2391 20.6053 62.5028 17.0048 59.0359C16.9343 58.9683 16.8638 58.9007 16.7911 58.8311C15.8462 57.9213 14.9773 56.9798 14.1765 55.9382C14.119 55.8641 14.0616 55.79 14.0025 55.7137C12.5735 53.8603 11.3969 51.9244 10.54 49.7427C10.4771 49.5922 10.4771 49.5922 10.4129 49.4387C9.4601 47.1372 8.9917 44.6744 8.78912 42.2004C8.77466 42.0473 8.76021 41.8942 8.74532 41.7365C8.49682 38.8424 8.49682 38.8424 9.11425 38.041C9.46712 37.6847 9.86654 37.4089 10.2836 37.1329C10.7484 36.7972 11.1297 36.376 11.5249 35.9629C11.986 35.4897 12.4525 35.0332 12.9533 34.6018C13.5241 34.1087 14.0525 33.5802 14.5805 33.0419C15.1893 32.4213 15.8074 31.8284 16.4661 31.2611C16.9361 30.8434 17.3728 30.3929 17.8129 29.9442C18.3359 29.411 18.8585 28.8869 19.4249 28.3996C20.018 27.8887 20.5645 27.3373 21.1127 26.7791C21.7461 26.1341 22.3868 25.514 23.0722 24.9243C23.5169 24.5304 23.9293 24.1054 24.3451 23.6814C24.9242 23.0961 25.5038 22.5284 26.1339 21.9979C26.6818 21.504 27.1925 20.9712 27.7114 20.4472C28.2247 19.9308 28.7442 19.4333 29.3026 18.9654C29.555 18.7439 29.7803 18.505 30.0102 18.2604C31.0132 17.2506 32.1479 17.1978 33.3789 17.7655Z" fill="#AE070D"/>
<path d="M42.5444 2.07303C42.6677 2.11225 42.7911 2.15146 42.9181 2.19186C45.5732 3.03858 48.1932 3.96647 50.7986 4.95515C51.1914 5.10415 51.5843 5.25258 51.9773 5.40093C56.0198 6.9295 56.0198 6.9295 57.9564 7.8643C58.1356 7.95082 58.3151 8.03681 58.4948 8.12236C60.6385 9.14471 62.5646 10.2239 63.4746 12.5494C63.8965 13.9168 63.9121 15.1953 63.906 16.612C63.9059 16.8597 63.9059 17.1074 63.906 17.3551C63.9059 18.0292 63.9039 18.7034 63.9016 19.3775C63.9002 19.8017 63.8993 20.2259 63.8986 20.65C63.8947 22.8053 63.8858 24.9605 63.875 27.1158C63.8741 27.28 63.8733 27.4443 63.8725 27.6135C63.861 29.9592 63.846 32.305 63.828 34.6507C63.8245 35.1346 63.8213 35.6185 63.8182 36.1025C63.8133 36.8717 63.807 37.6409 63.7998 38.4101C63.7974 38.6912 63.7953 38.9723 63.7937 39.2534C63.7336 49.3487 60.0072 57.6158 52.8682 64.6773C52.4102 65.1023 51.9263 65.4921 51.4383 65.8821C51.1244 66.1379 50.8287 66.403 50.5328 66.6791C48.9811 68.0726 47.1721 69.219 45.4233 70.3492C45.291 70.4354 45.1587 70.5215 45.0224 70.6102C43.5423 71.5475 41.9873 72.3582 40.44 73.1776C40.3394 73.2311 40.2388 73.2847 40.1352 73.3398C33.1281 77.0463 33.1281 77.0463 31.0353 76.4331C30.5969 76.2746 30.1647 76.1052 29.7326 75.9302C29.5765 75.8684 29.4204 75.8066 29.2596 75.7429C28.0807 75.2731 26.9113 74.7876 25.7595 74.2551C25.6522 74.2058 25.5448 74.1566 25.4343 74.1059C22.0473 72.5455 18.7762 70.7102 15.7929 68.4637C15.718 68.4073 15.643 68.3509 15.5659 68.2928C15.054 67.9057 14.5475 67.5121 14.042 67.1168C13.9305 67.0318 13.8191 66.9467 13.7042 66.859C11.4615 65.1197 9.31195 63.0321 7.57717 60.7867C7.43868 60.6116 7.30013 60.4366 7.16154 60.2616C5.01507 57.5296 3.23827 54.4994 2.05514 51.2242C2.01367 51.1166 1.97219 51.0091 1.92946 50.8983C1.57277 49.958 1.31648 49.0144 1.09552 48.0338C1.06059 47.8802 1.02566 47.7266 0.98967 47.5684C0.732596 46.4101 0.535935 45.2687 0.438933 44.0859C0.428243 43.9647 0.417555 43.8436 0.406541 43.7187C0.290855 42.2903 0.27676 40.8664 0.26637 39.4341C0.263968 39.166 0.261503 38.8978 0.258984 38.6297C0.253753 38.064 0.248843 37.4982 0.244204 36.9324C0.232104 35.462 0.217998 33.9915 0.203763 32.521C0.202384 32.3769 0.201008 32.2328 0.199587 32.0843C0.178082 29.8553 0.143839 27.6271 0.0938065 25.3986C0.0468764 23.2366 0.0175276 21.075 0.0111459 18.9126C0.0101541 18.6072 0.00873335 18.3018 0.00683017 17.9964C-0.0243984 12.5567 -0.0243984 12.5567 1.78577 10.415C2.64147 9.63641 3.5596 9.05725 4.58887 8.53785C4.78942 8.43508 4.78942 8.43508 4.99401 8.33023C6.74905 7.4429 8.55533 6.678 10.4018 6.00263C11.1309 5.73582 11.8496 5.44606 12.5689 5.15392C13.5054 4.77552 14.4428 4.43191 15.4041 4.12117C16.0171 3.92299 16.6245 3.70929 17.2323 3.49563C17.3457 3.45588 17.4592 3.41614 17.576 3.37518C18.1551 3.17206 18.7336 2.96752 19.3115 2.76118C20.6247 2.29391 21.9405 1.86435 23.2814 1.48379C23.6468 1.3791 24.0113 1.27167 24.3758 1.16392C31.1889 -0.847814 35.8373 -0.0618571 42.5444 2.07303ZM20.3477 6.11106C19.9068 6.25955 19.4657 6.40733 19.0241 6.55357C18.1245 6.85152 17.2277 7.15353 16.34 7.48563C16.2343 7.52502 16.1285 7.56441 16.0195 7.60499C15.7923 7.68964 15.5652 7.77441 15.3381 7.8593C14.9759 7.99401 14.6129 8.12664 14.2498 8.25901C11.4388 9.2897 8.62131 10.3817 5.95255 11.745C5.84053 11.801 5.72852 11.8569 5.61311 11.9146C4.79483 12.3481 4.21411 12.8833 3.76394 13.6979C3.49082 14.7407 3.51678 15.8257 3.51877 16.8956C3.51864 17.0531 3.51851 17.2106 3.51838 17.3729C3.51829 17.7073 3.51854 18.0417 3.5191 18.3761C3.5198 18.8696 3.51911 19.363 3.51824 19.8565C3.51778 21.4994 3.5381 23.1396 3.59214 24.7816C3.66453 26.9837 3.69022 29.185 3.70449 31.3883C3.70561 31.5534 3.70673 31.7185 3.70788 31.8887C3.71834 33.434 3.72787 34.9793 3.73556 36.5246C3.73987 37.3797 3.74543 38.2349 3.75175 39.09C3.75388 39.4109 3.75555 39.7318 3.75672 40.0527C3.76588 42.5255 3.8739 44.896 4.49628 47.3015C4.53735 47.4623 4.57842 47.6231 4.62074 47.7888C5.2045 49.996 6.10052 52.0427 7.17312 54.0525C7.25576 54.2098 7.3384 54.3671 7.42354 54.5292C8.12269 55.809 8.96813 56.9481 9.86679 58.093C9.96645 58.2217 10.0661 58.3503 10.1688 58.4829C13.0342 62.0889 16.614 65.0542 20.5077 67.4877C20.6757 67.5928 20.8434 67.6985 21.0105 67.8051C23.6702 69.5012 26.5681 70.9046 29.4819 72.1027C29.7676 72.2214 30.0504 72.3449 30.3329 72.471C30.4821 72.5348 30.6312 72.5985 30.7849 72.6641C30.9038 72.716 31.0227 72.7679 31.1452 72.8214C32.4828 73.1077 33.6501 72.5064 34.8422 71.9654C35.0233 71.8847 35.2045 71.8042 35.3857 71.7237C35.9044 71.4926 36.4213 71.2577 36.9382 71.0227C37.0658 70.9655 37.1934 70.9084 37.3249 70.8496C40.1877 69.5678 42.8476 67.9573 45.4233 66.174C45.5148 66.1114 45.6062 66.0487 45.7005 65.9841C46.8826 65.1728 47.9795 64.2876 49.0597 63.3457C49.1608 63.2598 49.2618 63.1738 49.3659 63.0853C50.0629 62.4888 50.7066 61.8447 51.3494 61.1908C52.0228 60.5173 52.0228 60.5173 52.2506 60.3037C53.631 58.9819 54.7416 57.3908 55.7939 55.8034C55.8806 55.6748 55.9672 55.5461 56.0565 55.4136C57.5093 53.1651 58.5492 50.6901 59.2957 48.1264C59.3236 48.032 59.3515 47.9375 59.3802 47.8402C60.1421 45.2067 60.2988 42.5506 60.3027 39.8239C60.3046 39.5083 60.3067 39.1926 60.309 38.877C60.3146 38.0498 60.318 37.2227 60.3208 36.3956C60.3256 35.0902 60.3339 33.7849 60.3419 32.4796C60.3438 32.1568 60.3456 31.8341 60.3474 31.5114C60.3621 28.8338 60.4085 26.1578 60.4693 23.481C60.4735 23.2933 60.4735 23.2933 60.4779 23.1018C60.482 22.9196 60.482 22.9196 60.4862 22.7338C60.5154 21.4292 60.5329 20.1248 60.5328 18.8198C60.5331 18.4701 60.5357 18.1205 60.5381 17.7708C60.6376 15.1716 60.6376 15.1716 59.7282 12.8425C56.4974 9.88571 50.3644 8.40867 46.2889 7.02529C45.9067 6.89425 45.5267 6.75772 45.1467 6.62042C35.7544 3.23835 29.841 2.91275 20.3477 6.11106Z" fill="#AD080F"/>
<path d="M35.3225 30.3482C35.5194 30.41 35.5194 30.41 35.7202 30.4731C37.365 30.9946 38.9933 31.5499 40.592 32.2001C40.709 32.2475 40.826 32.2949 40.9466 32.3438C42.4402 32.9665 43.7957 33.5933 44.4728 35.1382C44.7578 36.0612 44.7119 37.0167 44.7051 37.9736C44.7056 38.2032 44.7062 38.4329 44.7071 38.6626C44.708 39.1428 44.7066 39.6229 44.7035 40.1031C44.6997 40.7101 44.7019 41.3168 44.7058 41.9237C44.7321 46.7429 44.0137 50.5845 40.6088 54.2124C38.6202 56.1079 34.9928 58.7563 32.1516 58.7096C30.588 58.4481 28.986 57.5638 27.6455 56.7462C27.4565 56.6311 27.4565 56.6311 27.2636 56.5136C24.6151 54.8245 22.4849 52.6084 21.1975 49.7258C21.1606 49.6439 21.1237 49.562 21.0857 49.4777C20.367 47.7848 20.3087 46.1501 20.3095 44.3411C20.3085 44.0806 20.3075 43.82 20.3064 43.5595C20.3046 43.0163 20.3043 42.4731 20.3051 41.9298C20.3059 41.236 20.3018 40.5424 20.2964 39.8486C20.2929 39.3116 20.2925 38.7747 20.293 38.2378C20.2928 37.982 20.2915 37.7263 20.2891 37.4705C20.2671 34.8548 20.2671 34.8548 21.046 33.9846C24.1774 31.0185 31.3209 29.081 35.3225 30.3482Z" fill="#FDFAFA"/>
<path d="M38.9588 9.87609C39.2727 9.97961 39.5866 10.0831 39.9005 10.1865C40.7999 10.4837 41.698 10.7845 42.5953 11.0882C42.707 11.1261 42.8188 11.1639 42.934 11.2029C44.292 11.6651 45.6236 12.1832 46.953 12.7218C47.4538 12.9245 47.9569 13.1198 48.4624 13.3105C50.023 13.9088 51.5681 14.5481 53.0669 15.2887C53.1519 15.3302 53.2368 15.3718 53.3243 15.4146C53.7451 15.6271 54.1537 15.8575 54.5505 16.1121C54.6245 16.159 54.6985 16.2059 54.7748 16.2543C55.5531 17.0693 55.4451 18.1153 55.4344 19.1677C55.4342 19.3396 55.434 19.5115 55.4338 19.6887C55.4331 20.1522 55.4299 20.6158 55.426 21.0793C55.4232 21.4623 55.4218 21.8454 55.4205 22.2284C55.4091 25.3398 55.3555 28.4503 55.2555 31.5602C54.6594 31.0541 54.071 30.5415 53.4962 30.0113C53.4223 29.9432 53.3484 29.8751 53.2723 29.805C52.6149 29.1944 51.9799 28.5628 51.3526 27.9216C50.9655 27.5285 50.571 27.1541 50.1528 26.7942C49.4528 26.1895 48.8129 25.5281 48.1652 24.8686C47.6263 24.3238 47.0753 23.8076 46.4945 23.3079C45.961 22.8353 45.4701 22.3188 44.9717 21.8098C44.5541 21.387 44.1318 20.9796 43.6811 20.5919C42.983 19.9899 42.3458 19.3304 41.7003 18.6731C41.161 18.1279 40.6093 17.6114 40.0279 17.1113C39.5914 16.7239 39.1892 16.304 38.782 15.8864C36.8605 13.9491 34.8709 12.414 32.031 12.3846C29.4018 12.4174 27.5637 13.5994 25.7598 15.3981C25.6502 15.5073 25.5407 15.6165 25.4278 15.729C25.2377 15.9198 25.0486 16.1117 24.8612 16.3051C24.5958 16.5634 24.3252 16.8045 24.0447 17.0459C23.4424 17.5687 22.884 18.1291 22.3254 18.6979C21.78 19.2532 21.2366 19.8023 20.646 20.3099C20.0288 20.8409 19.4615 21.4173 18.8909 21.9976C18.2328 22.667 17.5695 23.3144 16.8575 23.9263C16.4382 24.2965 16.0494 24.6956 15.6585 25.0954C15.1833 25.5814 14.7051 26.0534 14.1896 26.4969C13.5941 27.0109 13.0444 27.5647 12.4934 28.1257C11.8546 28.7763 11.2084 29.4028 10.5171 29.9974C10.174 30.2986 9.85764 30.6189 9.53883 30.9457C9.33648 31.153 9.13238 31.3586 8.92433 31.5602C8.87989 31.5602 8.83544 31.5602 8.78965 31.5602C8.66569 28.6976 8.62571 25.8383 8.62261 22.9733C8.62185 22.3836 8.61858 21.7939 8.6148 21.2042C8.6123 20.744 8.61159 20.2838 8.61139 19.8236C8.61098 19.6058 8.60991 19.3881 8.60813 19.1704C8.60583 18.8687 8.60608 18.5671 8.60696 18.2654C8.60647 18.0948 8.60597 17.9241 8.60547 17.7483C8.66947 17.1475 8.84538 16.6789 9.28787 16.2578C12.1939 14.4194 15.512 13.2927 18.7074 12.07C19.0605 11.9346 19.4131 11.7982 19.7653 11.6607C21.4437 11.0143 23.1568 10.4627 24.8654 9.90227C25.1721 9.80167 25.4786 9.70079 25.785 9.59949C30.8255 7.93554 33.9341 8.20415 38.9588 9.87609Z" fill="#AE070E"/>
<path d="M34.1094 43.9512C36.4205 43.9512 38.7317 43.9512 41.1129 43.9512C41.1129 47.1121 40.6363 49.0069 38.5539 51.3588C38.481 51.443 38.4081 51.5272 38.333 51.6139C37.2714 52.7586 35.7628 53.753 34.3787 54.4565C34.2899 54.4565 34.201 54.4565 34.1094 54.4565C34.1094 50.9897 34.1094 47.523 34.1094 43.9512Z" fill="#AE0B12"/>
<path d="M23.7402 43.9512C26.0514 43.9512 28.3626 43.9512 30.7438 43.9512C30.7438 47.3735 30.7438 50.7958 30.7438 54.3218C28.4989 53.8728 26.4167 51.787 25.1712 49.953C23.9065 48.0213 23.7402 46.273 23.7402 43.9512Z" fill="#AD0B11"/>
<path d="M30.7438 33.7153C30.7438 35.9821 30.7438 38.2488 30.7438 40.5842C28.4326 40.5842 26.1214 40.5842 23.7402 40.5842C23.7402 39.1175 23.7402 37.6508 23.7402 36.1396C26.6741 34.8608 26.6741 34.8608 27.8018 34.5108C28.4257 34.312 29.0364 34.0751 29.649 33.8437C30.0704 33.7153 30.0704 33.7153 30.7438 33.7153Z" fill="#AD0A11"/>
<path d="M34.1094 33.7153C35.1719 33.8671 35.1719 33.8671 35.6824 34.0363C35.7954 34.0735 35.9083 34.1108 36.0246 34.1492C36.1426 34.1894 36.2606 34.2295 36.3822 34.2709C36.5055 34.3124 36.6289 34.354 36.756 34.3968C37.9157 34.7934 39.0449 35.2509 40.1701 35.7356C40.4813 35.8689 40.7924 36.0023 41.1129 36.1396C41.1129 37.6063 41.1129 39.073 41.1129 40.5842C38.8018 40.5842 36.4906 40.5842 34.1094 40.5842C34.1094 38.3175 34.1094 36.0507 34.1094 33.7153Z" fill="#AD0910"/>
<path d="M38.8232 50.9546C38.8677 51.0879 38.9121 51.2213 38.9579 51.3586C38.4641 51.8525 37.9702 52.3463 37.4764 52.8402C37.3875 52.7068 37.2986 52.5735 37.207 52.4361C37.3011 52.3517 37.3952 52.2674 37.4922 52.1804C37.6148 52.0703 37.7373 51.9603 37.8636 51.8469C38.0464 51.6828 38.0464 51.6828 38.2329 51.5154C38.4339 51.3329 38.6313 51.1465 38.8232 50.9546Z" fill="#FCE7E5"/>
<path d="M52.9663 50.6855C53.0108 50.6855 53.0552 50.6855 53.101 50.6855C53.101 50.9078 53.101 51.13 53.101 51.359C52.9677 51.4034 52.8343 51.4479 52.6969 51.4936C52.6969 51.7603 52.6969 52.027 52.6969 52.3018C52.5192 52.3462 52.3414 52.3906 52.1582 52.4364C52.3854 51.8306 52.6723 51.2608 52.9663 50.6855Z" fill="#F9D7D9"/>
</svg>
