<svg width="123" height="49" viewBox="0 0 123 49" fill="none" xmlns="http://www.w3.org/2000/svg">
<path d="M67.0598 20.0223C67.1983 20.0233 67.1983 20.0233 67.3397 20.0244C69.0313 20.0595 70.4325 20.6701 71.6424 21.8662C72.3655 22.6364 72.7935 23.4566 73.1294 24.4543C73.1504 24.5166 73.1715 24.5788 73.1931 24.6429C73.5957 26.0982 73.2577 27.7622 72.5467 29.0554C72.3239 29.441 72.0767 29.7875 71.7771 30.1172C71.6942 30.2117 71.6942 30.2117 71.6097 30.3081C70.8153 31.1618 69.842 31.6486 68.7343 31.9767C68.6294 32.0079 68.6294 32.0079 68.5224 32.0398C66.9105 32.4359 65.1074 32.0394 63.7001 31.2107C62.4156 30.3463 61.4567 29.0488 61.1179 27.5271C60.8159 25.9225 60.9647 24.1405 61.8882 22.7639C63.1038 21.0348 64.9353 20.0013 67.0598 20.0223Z" fill="white"/>
<path d="M48.0273 16.0021C49.0036 16.0021 49.9798 16.0021 50.9856 16.0021C51.0135 18.2613 51.0414 20.5205 51.0701 22.8482C51.7122 22.1073 52.3528 21.3667 52.9844 20.617C53.1014 20.4783 53.2188 20.34 53.3363 20.2017C53.703 19.7699 54.0674 19.3367 54.4245 18.8969C54.7053 18.5518 54.996 18.2185 55.2935 17.8879C55.5434 17.6035 55.7803 17.3089 56.0172 17.0137C56.0861 16.9309 56.1549 16.8481 56.2259 16.7627C56.2618 16.6978 56.2978 16.6329 56.3348 16.566C56.5345 16.2597 56.7148 16.0421 57.0863 15.9626C57.6439 15.9057 58.2025 15.933 58.7615 15.9545C58.9335 15.9583 59.1055 15.9618 59.2775 15.9649C59.6974 15.9733 60.1168 15.9864 60.5364 16.0021C60.4571 16.1087 60.3776 16.2153 60.2981 16.3219C60.2539 16.3812 60.2097 16.4406 60.1641 16.5018C59.9656 16.7616 59.753 17.0078 59.538 17.254C59.2335 17.6058 58.9326 17.9593 58.64 18.3211C58.2933 18.748 57.9344 19.1632 57.5733 19.5779C57.2349 19.9668 56.8993 20.3579 56.5678 20.7528C56.3692 20.9894 56.1686 21.2238 55.9644 21.4556C55.9215 21.5048 55.8787 21.554 55.8345 21.6046C55.7526 21.6986 55.67 21.792 55.5868 21.8847C55.359 22.1475 55.2436 22.3326 55.2116 22.6792C55.2732 22.8597 55.2732 22.8597 55.3866 23.0278C55.427 23.0936 55.4673 23.1593 55.5089 23.2271C55.5538 23.2973 55.5986 23.3675 55.6448 23.4399C55.6907 23.514 55.7366 23.5882 55.7839 23.6646C55.9302 23.9003 56.078 24.1349 56.2259 24.3696C56.3639 24.5917 56.5014 24.8141 56.6389 25.0366C56.7303 25.1844 56.8219 25.3321 56.9136 25.4797C57.2712 26.0555 57.6211 26.6356 57.969 27.2174C58.4916 28.0912 59.0225 28.9599 59.5591 29.8252C59.6083 29.9045 59.6575 29.9838 59.7082 30.0655C59.8035 30.2189 59.8988 30.3723 59.9943 30.5256C60.7055 31.6703 60.7055 31.6703 60.7055 31.892C60.238 31.9235 59.7711 31.9464 59.3028 31.9616C59.1439 31.9679 58.9851 31.9766 58.8265 31.9876C57.5501 32.074 57.5501 32.074 57.184 31.7784C56.9362 31.4806 56.7827 31.1424 56.6346 30.7869C56.5353 30.5583 56.4062 30.3534 56.2724 30.1434C56.2276 30.0698 56.1827 29.9962 56.1365 29.9203C56.091 29.8458 56.0456 29.7712 55.9987 29.6944C55.9489 29.6126 55.899 29.5308 55.8477 29.4465C55.6413 29.1077 55.4347 28.7689 55.2282 28.4301C54.5419 27.3047 53.8595 26.1771 53.1831 25.0458C52.8217 25.2077 52.6129 25.4589 52.3643 25.7589C52.3238 25.8068 52.2834 25.8547 52.2417 25.904C52.1536 26.0086 52.0674 26.1149 51.9828 26.2223C51.8308 26.3981 51.8308 26.3981 51.631 26.5632C51.1175 27.0402 51.0238 27.4322 50.9854 28.1164C50.9715 28.6339 50.9743 29.1504 50.9803 29.668C50.98 29.8837 50.9794 30.0993 50.9785 30.3149C50.9763 30.8408 50.9811 31.3659 50.9856 31.892C50.0094 31.892 49.0331 31.892 48.0273 31.892C48.0273 26.6483 48.0273 21.4046 48.0273 16.0021Z" fill="white"/>
<path d="M84.8187 20.0219C84.9193 20.0226 85.02 20.0232 85.1236 20.0239C86.5377 20.0504 87.7055 20.4774 88.7456 21.4598C89.4381 22.2142 89.7349 23.0548 89.7233 24.0621C89.7234 24.1896 89.7234 24.1896 89.7234 24.3197C89.7232 24.5987 89.7213 24.8776 89.7193 25.1566C89.7188 25.3508 89.7184 25.545 89.7182 25.7392C89.7172 26.2489 89.7147 26.7586 89.7119 27.2682C89.7093 27.7889 89.7082 28.3096 89.7069 28.8303C89.7042 29.8508 89.6997 30.8713 89.6945 31.8918C88.8299 31.8918 87.9652 31.8918 87.0744 31.8918C87.0465 31.5292 87.0186 31.1666 86.9899 30.7931C86.9009 30.8802 86.812 30.9674 86.7204 31.0572C85.6335 32.0025 84.1753 32.2473 82.7787 32.1633C81.6813 32.0566 80.7365 31.5837 80.0331 30.7396C79.4473 29.9197 79.3835 28.9871 79.4675 28.0039C79.6893 27.0918 80.2639 26.3706 81.047 25.8644C82.7902 24.9182 84.9609 24.7457 86.9053 24.5385C86.9032 23.9563 86.8517 23.5254 86.4675 23.0726C85.8852 22.5428 85.1955 22.4718 84.4374 22.4866C84.0103 22.5177 83.7146 22.6216 83.3555 22.8481C83.2657 22.9019 83.2657 22.9019 83.1742 22.9567C82.7165 23.2615 82.4853 23.6214 82.2567 24.1159C81.7741 24.0346 81.3662 23.8357 80.9255 23.6299C80.8434 23.5935 80.7614 23.5571 80.6769 23.5196C80.599 23.4833 80.5211 23.4469 80.4408 23.4094C80.3696 23.3767 80.2984 23.3441 80.225 23.3104C80.0591 23.1862 80.0591 23.1862 79.9868 22.9749C79.9585 22.4828 80.4088 22.0281 80.7049 21.6628C81.1024 21.2364 81.5868 20.9421 82.0876 20.6506C82.1754 20.5994 82.1754 20.5994 82.2649 20.5472C83.0744 20.1101 83.9107 20.0139 84.8187 20.0219Z" fill="white"/>
<path d="M97.8004 20.0219C97.8901 20.0227 97.9797 20.0235 98.0721 20.0244C99.3081 20.0524 100.177 20.4989 101.099 21.297C102.269 22.5225 102.231 24.135 102.223 25.7095C102.222 25.8882 102.222 26.0669 102.222 26.2456C102.221 26.7132 102.22 27.1807 102.218 27.6483C102.216 28.1265 102.215 28.6047 102.214 29.0829C102.213 30.0192 102.21 30.9555 102.206 31.8918C101.258 31.8918 100.309 31.8918 99.3324 31.8918C99.3311 31.6644 99.3299 31.4371 99.3286 31.2029C99.3244 30.4509 99.3187 29.699 99.3124 28.947C99.3087 28.4912 99.3053 28.0354 99.3031 27.5795C99.3009 27.1395 99.2975 26.6994 99.2932 26.2594C99.2918 26.0916 99.2908 25.9239 99.2903 25.7562C99.2895 25.5209 99.2871 25.2857 99.2844 25.0504C99.2845 24.9814 99.2846 24.9124 99.2848 24.8413C99.2736 24.157 99.0399 23.6703 98.571 23.1693C98.0101 22.6622 97.4096 22.625 96.6726 22.6463C96.2803 22.6893 96.015 22.7873 95.698 23.0171C95.6091 23.0764 95.5202 23.1356 95.4286 23.1967C94.9313 23.6547 94.7502 24.1991 94.7181 24.8613C94.7081 25.2514 94.7076 25.6412 94.7085 26.0315C94.7074 26.2008 94.7061 26.3701 94.7046 26.5395C94.7012 26.9827 94.7004 27.4259 94.7 27.8692C94.6992 28.3225 94.6961 28.7758 94.6931 29.229C94.6877 30.1166 94.6851 31.0042 94.6837 31.8918C93.7633 31.8918 92.8429 31.8918 91.8945 31.8918C91.8945 28.0706 91.8945 24.2494 91.8945 20.3124C92.7592 20.3124 93.6238 20.3124 94.5147 20.3124C94.5565 20.8982 94.5565 20.8982 94.5992 21.4957C94.6811 21.3946 94.7631 21.2935 94.8475 21.1893C95.6569 20.271 96.6047 20.0096 97.8004 20.0219Z" fill="white"/>
<path d="M111.419 20.228C112.34 20.228 113.26 20.228 114.208 20.228C114.208 24.0771 114.208 27.9262 114.208 31.8919C113.316 31.8919 112.423 31.8919 111.504 31.8919C111.476 31.5014 111.448 31.1109 111.419 30.7086C111.346 30.808 111.273 30.9073 111.197 31.0097C110.617 31.6725 109.671 32.079 108.799 32.1455C107.475 32.2275 106.37 32.0185 105.318 31.1471C104.454 30.3355 103.942 29.1905 103.889 28.0016C103.886 27.799 103.886 27.5965 103.887 27.3938C103.887 27.3171 103.887 27.2404 103.887 27.1613C103.887 26.9089 103.888 26.6564 103.889 26.404C103.889 26.2285 103.889 26.053 103.889 25.8775C103.889 25.4164 103.89 24.9554 103.891 24.4944C103.892 24.0235 103.892 23.5527 103.893 23.0819C103.894 22.1588 103.895 21.2357 103.897 20.3125C104.817 20.3125 105.738 20.3125 106.686 20.3125C106.687 20.5304 106.688 20.7483 106.688 20.9728C106.691 21.6954 106.696 22.418 106.702 23.1406C106.705 23.5784 106.708 24.0162 106.709 24.454C106.71 24.8771 106.713 25.3002 106.717 25.7233C106.718 25.8841 106.719 26.0449 106.719 26.2058C106.703 27.6104 106.703 27.6104 107.309 28.8439C108.021 29.4027 108.568 29.6294 109.475 29.5253C110.229 29.3216 110.695 29.0195 111.089 28.3548C111.452 27.5985 111.386 26.7755 111.386 25.9563C111.387 25.7907 111.389 25.6252 111.39 25.4596C111.394 25.0264 111.396 24.5932 111.397 24.1599C111.399 23.7168 111.402 23.2738 111.406 22.8307C111.412 21.9631 111.416 21.0956 111.419 20.228Z" fill="white"/>
<path d="M117.503 17.6079C118.423 17.6079 119.343 17.6079 120.292 17.6079C120.292 18.5004 120.292 19.393 120.292 20.3126C121.184 20.3126 122.077 20.3126 122.996 20.3126C122.996 21.1214 122.996 21.9303 122.996 22.7637C122.104 22.7637 121.211 22.7637 120.292 22.7637C120.297 23.7236 120.297 23.7236 120.305 24.6836C120.309 25.0755 120.313 25.4674 120.315 25.8593C120.316 26.1755 120.319 26.4917 120.323 26.8079C120.324 26.9281 120.325 27.0484 120.325 27.1686C120.326 27.9609 120.365 28.5059 120.878 29.1344C121.302 29.4685 121.744 29.4739 122.262 29.4936C122.504 29.5041 122.747 29.5146 122.996 29.5253C122.996 30.3063 122.996 31.0873 122.996 31.8919C121.678 32.1117 120.296 32.1219 119.124 31.4112C118.382 30.8652 117.956 30.2289 117.672 29.3563C117.642 29.2674 117.613 29.1785 117.583 29.0869C117.442 28.5108 117.482 27.9092 117.486 27.3199C117.486 27.1882 117.487 27.0565 117.487 26.9248C117.487 26.5802 117.489 26.2356 117.491 25.8911C117.493 25.5386 117.493 25.1862 117.494 24.8338C117.496 24.1437 117.499 23.4537 117.503 22.7637C116.861 22.7637 116.22 22.7637 115.559 22.7637C115.559 21.9548 115.559 21.1459 115.559 20.3126C115.838 20.2568 116.116 20.201 116.404 20.1435C116.849 19.9756 117.059 19.7589 117.334 19.3828C117.408 19.1581 117.433 19.0041 117.445 18.7717C117.448 18.7106 117.451 18.6494 117.455 18.5864C117.46 18.4708 117.46 18.4708 117.466 18.3527C117.478 18.107 117.49 17.8612 117.503 17.6079Z" fill="white"/>
<path d="M74.9883 15.7485C75.9087 15.7485 76.8291 15.7485 77.7775 15.7485C77.7775 21.0759 77.7775 26.4032 77.7775 31.892C76.857 31.892 75.9366 31.892 74.9883 31.892C74.9883 26.5647 74.9883 21.2373 74.9883 15.7485Z" fill="white"/>
<path d="M68.4715 22.8263C69.3511 23.3456 70.0386 24.0624 70.3108 25.073C70.474 26.2389 70.361 27.4225 69.6505 28.3898C69.1626 28.9915 68.5658 29.4501 67.7766 29.551C67.5642 29.5625 67.3541 29.5651 67.1413 29.5625C67.0665 29.5617 66.9917 29.5609 66.9147 29.56C66.0201 29.5357 65.4459 29.2815 64.7926 28.6612C63.9541 27.6657 63.8412 26.5502 63.919 25.2995C64.0488 24.4303 64.5845 23.6412 65.2713 23.102C66.2298 22.538 67.4323 22.3234 68.4715 22.8263Z" fill="#141F37"/>
<path d="M86.9084 26.7365C86.9614 27.6762 86.8671 28.3461 86.2639 29.0872C85.6638 29.7186 84.8555 30.0238 83.9924 30.0592C83.4759 30.0449 83.0872 29.9074 82.6929 29.5732C82.3835 29.2001 82.3057 28.9266 82.3175 28.4477C82.3722 28.0595 82.6012 27.8296 82.8725 27.5658C83.4836 27.1631 84.1725 27.073 84.883 26.9594C85.0543 26.9319 85.2254 26.9032 85.3964 26.8743C85.9076 26.7906 86.3892 26.726 86.9084 26.7365Z" fill="#141F37"/>
<path d="M103.898 34.8504C104.224 34.8434 104.55 34.8364 104.886 34.8292C105.039 34.8246 105.039 34.8246 105.196 34.8199C105.859 34.813 105.859 34.813 106.198 35.0003C106.425 35.2823 106.469 35.5067 106.434 35.8646C106.297 36.1552 106.297 36.1552 106.096 36.3717C105.872 36.4275 105.872 36.4275 105.673 36.4563C105.726 36.5265 105.779 36.5968 105.834 36.6692C105.904 36.762 105.973 36.8548 106.043 36.9475C106.078 36.9938 106.113 37.04 106.149 37.0877C106.603 37.6922 106.603 37.6922 106.603 37.9776C106.371 38.008 106.371 38.008 106.096 37.9776C105.91 37.7677 105.91 37.7677 105.747 37.4916C105.428 36.9029 105.428 36.9029 104.882 36.5738C104.816 36.5699 104.749 36.566 104.68 36.5619C104.562 36.5549 104.443 36.548 104.321 36.5408C104.321 37.0149 104.321 37.4891 104.321 37.9776C104.182 37.9776 104.042 37.9776 103.898 37.9776C103.898 36.9456 103.898 35.9136 103.898 34.8504Z" fill="white"/>
<path d="M121.226 34.8506C121.422 34.8506 121.617 34.8506 121.818 34.8506C121.938 35.1429 122.057 35.4352 122.177 35.7275C122.211 35.8091 122.244 35.8907 122.278 35.9748C122.346 36.139 122.413 36.3033 122.48 36.4676C122.545 36.627 122.61 36.7862 122.676 36.9452C122.706 37.0186 122.736 37.092 122.767 37.1676C122.808 37.2647 122.808 37.2647 122.849 37.3636C122.921 37.5668 122.964 37.7658 123.001 37.9779C122.834 37.9779 122.666 37.9779 122.494 37.9779C122.383 37.6989 122.271 37.42 122.156 37.1326C121.71 37.1048 121.263 37.0769 120.804 37.0481C120.778 37.1858 120.751 37.3236 120.724 37.4654C120.645 37.8828 120.645 37.8828 120.55 37.9779C120.381 37.9813 120.212 37.9815 120.043 37.9779C120.093 37.6969 120.162 37.4442 120.269 37.1799C120.297 37.11 120.325 37.0402 120.354 36.9683C120.399 36.8588 120.399 36.8588 120.444 36.747C120.475 36.6721 120.505 36.5973 120.536 36.5201C120.762 35.962 120.992 35.4052 121.226 34.8506Z" fill="white"/>
<path d="M93.0792 34.8506C93.2745 34.8506 93.4697 34.8506 93.6709 34.8506C93.7518 35.0327 93.8327 35.2148 93.9136 35.397C93.9706 35.5251 94.0279 35.653 94.0859 35.7806C94.2872 36.2259 94.4764 36.6762 94.664 37.1274C94.6909 37.1915 94.7178 37.2556 94.7455 37.3217C94.9387 37.7891 94.9387 37.7891 94.9387 37.9779C94.701 38.0043 94.701 38.0043 94.4316 37.9779C94.1703 37.6715 94.1626 37.4629 94.0935 37.0481C93.6472 37.0481 93.2009 37.0481 92.7412 37.0481C92.6575 37.3549 92.5738 37.6617 92.4876 37.9779C92.3202 37.9779 92.1529 37.9779 91.9805 37.9779C92.0411 37.5748 92.1888 37.2179 92.3397 36.8421C92.6006 36.1829 92.8457 35.52 93.0792 34.8506Z" fill="white"/>
<path d="M116.354 34.9033C116.6 35.1255 116.747 35.3274 116.914 35.6112C116.887 35.6669 116.859 35.7227 116.83 35.7802C116.634 35.8066 116.634 35.8066 116.407 35.7802C116.265 35.5742 116.265 35.5742 116.154 35.3576C115.86 35.2106 115.545 35.2232 115.224 35.2731C114.922 35.4999 114.785 35.6675 114.717 36.0338C114.672 36.5138 114.688 36.8926 114.97 37.3016C115.229 37.5243 115.351 37.5559 115.694 37.5499C116.009 37.4639 116.127 37.389 116.323 37.1325C116.351 37.0489 116.379 36.9652 116.407 36.879C116.575 36.879 116.742 36.879 116.914 36.879C116.891 37.2135 116.852 37.3607 116.629 37.6185C116.18 38.0031 115.9 38.015 115.323 38.0035C114.969 37.9695 114.797 37.8951 114.548 37.6397C114.169 37.1641 114.159 36.6484 114.177 36.0579C114.234 35.5709 114.403 35.3229 114.764 34.9878C115.246 34.667 115.841 34.6559 116.354 34.9033Z" fill="white"/>
<path d="M98.2344 34.8506C98.9317 34.8506 99.629 34.8506 100.347 34.8506C100.347 34.9622 100.347 35.0737 100.347 35.1887C99.7896 35.1887 99.2317 35.1887 98.657 35.1887C98.657 35.4955 98.657 35.8023 98.657 36.1184C99.159 36.1184 99.6611 36.1184 100.178 36.1184C100.178 36.2579 100.178 36.3973 100.178 36.541C99.7042 36.541 99.23 36.541 98.7415 36.541C98.7415 37.0152 98.7415 37.4893 98.7415 37.9779C98.5741 37.9779 98.4068 37.9779 98.2344 37.9779C98.2344 36.9459 98.2344 35.9139 98.2344 34.8506Z" fill="white"/>
<path d="M104.32 35.1885C104.525 35.1817 104.729 35.1766 104.933 35.1727C104.991 35.1706 105.048 35.1684 105.108 35.1662C105.385 35.1622 105.559 35.1707 105.798 35.3163C105.84 35.3578 105.883 35.3993 105.926 35.4421C105.905 35.7273 105.905 35.7273 105.842 36.0337C105.552 36.2553 105.243 36.2199 104.891 36.2133C104.784 36.2118 104.677 36.2103 104.567 36.2087C104.486 36.2068 104.404 36.2048 104.32 36.2028C104.32 35.8681 104.32 35.5334 104.32 35.1885Z" fill="#141F37"/>
<path d="M110.152 34.8506C110.292 34.8506 110.431 34.8506 110.575 34.8506C110.575 35.8826 110.575 36.9146 110.575 37.9779C110.435 37.9779 110.296 37.9779 110.152 37.9779C110.152 36.9459 110.152 35.9139 110.152 34.8506Z" fill="white"/>
<path d="M121.477 35.3574C121.629 35.5857 121.725 35.7857 121.826 36.0389C121.856 36.1131 121.886 36.1873 121.916 36.2637C121.984 36.4562 121.984 36.4562 121.984 36.6252C121.678 36.6252 121.371 36.6252 121.055 36.6252C121.146 36.1595 121.242 35.7749 121.477 35.3574Z" fill="#141F37"/>
<path d="M93.3342 35.2729C93.5793 35.3955 93.5919 35.5523 93.6828 35.8065C93.7127 35.8881 93.7425 35.9697 93.7733 36.0538C93.8413 36.2872 93.8413 36.2872 93.8413 36.6253C93.5624 36.6253 93.2835 36.6253 92.9961 36.6253C93.0944 36.1688 93.2009 35.7204 93.3342 35.2729Z" fill="#141F37"/>
<path d="M20.947 11.1487C21.3293 11.3732 21.6161 11.6933 21.918 12.0139C22.0456 12.1467 22.1733 12.2793 22.3013 12.4118C22.3635 12.4762 22.4258 12.5407 22.4899 12.6071C22.7116 12.8286 22.9454 13.0317 23.1833 13.2354C23.5382 13.5485 23.8635 13.8929 24.1948 14.2306C24.4686 14.5077 24.7447 14.776 25.04 15.0302C25.4571 15.3895 25.8381 15.7819 26.2233 16.1746C26.4962 16.4508 26.7714 16.7183 27.0658 16.9716C27.5032 17.3483 27.9021 17.7615 28.3062 18.173C28.6444 18.5149 28.9902 18.8389 29.3547 19.1525C29.6895 19.449 29.9975 19.7732 30.3103 20.0926C30.5732 20.3588 30.8393 20.6153 31.1228 20.8595C31.5407 21.2198 31.9227 21.6129 32.3088 22.0065C33.0048 22.7114 33.0048 22.7114 33.7984 23.2991C34.1559 23.546 34.4165 23.7966 34.5908 24.2008C34.8397 25.6313 34.6721 27.2783 34.3373 28.6804C34.3121 28.7893 34.3121 28.7893 34.2864 28.9004C33.6491 31.5947 32.354 34.0198 30.4493 36.0337C30.3502 36.1477 30.2516 36.2621 30.1535 36.377C29.5917 37.0187 28.9834 37.5827 28.3151 38.1119C28.1971 38.2071 28.0805 38.3038 27.9642 38.4011C27.422 38.853 26.8651 39.2636 26.2761 39.6522C26.1879 39.7105 26.0998 39.7687 26.0089 39.8288C21.4915 42.7854 21.4915 42.7854 19.9251 42.7976C19.5089 42.6749 19.1181 42.5123 18.722 42.3357C18.6363 42.2979 18.5506 42.26 18.4623 42.221C15.6029 40.9407 12.931 39.2236 10.6714 37.0479C10.6272 37.0055 10.5829 36.9631 10.5373 36.9194C9.94434 36.3484 9.39907 35.7576 8.89651 35.1039C8.86047 35.0574 8.82444 35.011 8.78731 34.9631C7.89055 33.8 7.15216 32.5851 6.61445 31.216C6.57495 31.1215 6.57495 31.1215 6.53465 31.0252C5.93675 29.5809 5.64281 28.0354 5.51568 26.4828C5.50661 26.3867 5.49754 26.2906 5.48819 26.1917C5.33225 24.3755 5.33225 24.3755 5.71972 23.8726C5.94116 23.649 6.19181 23.4759 6.45354 23.3027C6.74525 23.092 6.98449 22.8277 7.23251 22.5684C7.52187 22.2715 7.81464 21.985 8.12889 21.7143C8.48714 21.4049 8.81874 21.0732 9.15007 20.7354C9.53209 20.3459 9.92 19.9739 10.3334 19.6178C10.6283 19.3557 10.9024 19.073 11.1786 18.7914C11.5068 18.4568 11.8347 18.1279 12.1902 17.8221C12.5623 17.5015 12.9053 17.1555 13.2493 16.8052C13.6469 16.4004 14.0489 16.0113 14.479 15.6412C14.7581 15.394 15.0169 15.1273 15.2778 14.8612C15.6412 14.4939 16.005 14.1377 16.4004 13.8047C16.7442 13.4947 17.0647 13.1604 17.3904 12.8316C17.7125 12.5075 18.0385 12.1953 18.3889 11.9017C18.5473 11.7626 18.6887 11.6128 18.833 11.4592C19.4624 10.8255 20.1745 10.7924 20.947 11.1487Z" fill="white"/>
<path d="M26.6988 1.30093C26.7761 1.32554 26.8535 1.35015 26.9333 1.3755C28.5995 1.90686 30.2436 2.48916 31.8787 3.10961C32.1251 3.20311 32.3717 3.29625 32.6183 3.38935C35.1552 4.34861 35.1552 4.34861 36.3705 4.93524C36.483 4.98954 36.5957 5.0435 36.7084 5.09719C38.0537 5.73876 39.2624 6.41598 39.8335 7.87539C40.0982 8.73349 40.1081 9.53583 40.1042 10.4249C40.1041 10.5803 40.1041 10.7358 40.1042 10.8912C40.1041 11.3143 40.1029 11.7373 40.1014 12.1604C40.1006 12.4266 40.1 12.6927 40.0995 12.9589C40.0972 14.3115 40.0915 15.664 40.0847 17.0165C40.0842 17.1196 40.0837 17.2227 40.0832 17.3288C40.076 18.8009 40.0666 20.273 40.0553 21.7451C40.0531 22.0487 40.0511 22.3524 40.0491 22.6561C40.046 23.1388 40.0421 23.6215 40.0376 24.1042C40.036 24.2807 40.0347 24.4571 40.0337 24.6335C39.996 30.9688 37.6575 36.1568 33.1775 40.5882C32.89 40.855 32.5863 41.0996 32.2801 41.3443C32.0831 41.5048 31.8976 41.6712 31.7119 41.8445C30.7381 42.719 29.6029 43.4384 28.5054 44.1477C28.4224 44.2017 28.3393 44.2558 28.2538 44.3114C27.325 44.8996 26.3491 45.4084 25.3781 45.9226C25.315 45.9562 25.2519 45.9898 25.1868 46.0244C20.7895 48.3504 20.7895 48.3504 19.4762 47.9656C19.2011 47.8661 18.9299 47.7598 18.6587 47.65C18.5608 47.6112 18.4628 47.5724 18.3618 47.5325C17.6221 47.2376 16.8882 46.933 16.1654 46.5988C16.098 46.5679 16.0307 46.537 15.9613 46.5051C13.8358 45.526 11.783 44.3742 9.91082 42.9644C9.86381 42.929 9.81679 42.8936 9.76836 42.8571C9.44715 42.6142 9.12931 42.3672 8.81205 42.1192C8.7421 42.0658 8.67216 42.0124 8.60009 41.9574C7.1927 40.8659 5.84371 39.5558 4.75505 38.1467C4.66814 38.0368 4.5812 37.927 4.49423 37.8172C3.14721 36.1027 2.03217 34.2011 1.2897 32.1457C1.26368 32.0783 1.23765 32.0108 1.21084 31.9413C0.986993 31.3511 0.826155 30.759 0.687491 30.1436C0.665572 30.0472 0.643652 29.9509 0.621068 29.8515C0.459741 29.1247 0.336326 28.4083 0.275453 27.6661C0.268744 27.5901 0.262037 27.514 0.255125 27.4357C0.182526 26.5393 0.173681 25.6457 0.167161 24.7469C0.165653 24.5786 0.164107 24.4103 0.162525 24.2421C0.159243 23.887 0.156162 23.532 0.15325 23.177C0.145657 22.2542 0.136805 21.3314 0.127872 20.4086C0.127006 20.3181 0.126142 20.2277 0.125251 20.1345C0.111755 18.7357 0.090266 17.3374 0.0588683 15.9389C0.0294173 14.5821 0.0109994 13.2256 0.00699461 11.8686C0.00637223 11.6769 0.00548061 11.4853 0.00428627 11.2936C-0.0153112 7.87998 -0.0153112 7.87998 1.12066 6.53594C1.65765 6.04733 2.23383 5.68388 2.87975 5.35793C3.0056 5.29344 3.0056 5.29344 3.13399 5.22764C4.23537 4.67079 5.3689 4.19078 6.52764 3.76695C6.98519 3.59951 7.43621 3.41767 7.8876 3.23434C8.47533 2.99688 9.06356 2.78125 9.66683 2.58624C10.0515 2.46188 10.4327 2.32776 10.8141 2.19368C10.8853 2.16874 10.9565 2.1438 11.0298 2.1181C11.3932 1.99063 11.7563 1.86227 12.1189 1.73278C12.9431 1.43954 13.7688 1.16997 14.6102 0.931154C14.8395 0.865452 15.0683 0.798037 15.297 0.730417C19.5726 -0.532046 22.4897 -0.0388185 26.6988 1.30093ZM12.7692 3.835C12.4925 3.92818 12.2157 4.02092 11.9386 4.11269C11.374 4.29967 10.8112 4.4892 10.2542 4.69761C10.1878 4.72233 10.1214 4.74705 10.053 4.77252C9.91047 4.82564 9.76794 4.87883 9.62544 4.93211C9.39811 5.01664 9.17033 5.09987 8.94246 5.18294C7.17844 5.82975 5.41031 6.51506 3.73552 7.37058C3.66523 7.4057 3.59493 7.44083 3.52251 7.47702C3.009 7.74904 2.64456 8.08493 2.36206 8.59613C2.19066 9.25055 2.20696 9.93144 2.2082 10.6028C2.20812 10.7017 2.20804 10.8005 2.20796 10.9024C2.2079 11.1122 2.20806 11.3221 2.20841 11.5319C2.20885 11.8416 2.20842 12.1513 2.20787 12.461C2.20758 13.4919 2.22033 14.5213 2.25425 15.5517C2.29968 16.9337 2.3158 18.3151 2.32475 19.6977C2.32545 19.8014 2.32616 19.905 2.32688 20.0117C2.33344 20.9815 2.33943 21.9513 2.34425 22.921C2.34696 23.4577 2.35045 23.9943 2.35441 24.5309C2.35575 24.7323 2.3568 24.9337 2.35753 25.1351C2.36328 26.6869 2.43106 28.1745 2.82164 29.6841C2.84741 29.785 2.87319 29.8859 2.89974 29.9899C3.26609 31.375 3.82838 32.6594 4.50149 33.9207C4.55335 34.0194 4.60521 34.1181 4.65865 34.2198C5.09739 35.0229 5.62795 35.7378 6.19191 36.4563C6.25445 36.537 6.31698 36.6178 6.38142 36.7009C8.17959 38.9639 10.4261 40.8248 12.8696 42.3519C12.975 42.4178 13.0803 42.4842 13.1851 42.5511C14.8542 43.6155 16.6728 44.4962 18.5014 45.2481C18.6807 45.3225 18.8581 45.4001 19.0354 45.4792C19.129 45.5192 19.2226 45.5592 19.319 45.6004C19.3937 45.633 19.4683 45.6655 19.5452 45.6991C20.3846 45.8787 21.1171 45.5014 21.8652 45.1619C21.9789 45.1113 22.0926 45.0607 22.2063 45.0102C22.5318 44.8652 22.8562 44.7178 23.1806 44.5703C23.2607 44.5344 23.3407 44.4986 23.4232 44.4617C25.2198 43.6573 26.889 42.6466 28.5054 41.5275C28.5628 41.4882 28.6202 41.4489 28.6793 41.4083C29.4212 40.8992 30.1096 40.3437 30.7874 39.7526C30.8509 39.6987 30.9143 39.6447 30.9796 39.5892C31.417 39.2149 31.8209 38.8106 32.2243 38.4003C32.6469 37.9777 32.6469 37.9777 32.7899 37.8436C33.6561 37.0141 34.3531 36.0156 35.0135 35.0194C35.0679 34.9387 35.1222 34.858 35.1782 34.7748C36.09 33.3638 36.7425 31.8106 37.211 30.2018C37.2285 30.1425 37.246 30.0832 37.2641 30.0221C37.7422 28.3694 37.8405 26.7027 37.843 24.9915C37.8442 24.7934 37.8455 24.5953 37.8469 24.3972C37.8505 23.8782 37.8526 23.3591 37.8543 22.84C37.8574 22.0209 37.8626 21.2017 37.8675 20.3825C37.8688 20.18 37.8699 19.9775 37.871 19.775C37.8803 18.0947 37.9094 16.4154 37.9475 14.7355C37.9502 14.6177 37.9502 14.6177 37.9529 14.4975C37.9555 14.3832 37.9555 14.3832 37.9581 14.2666C37.9765 13.4479 37.9875 12.6293 37.9874 11.8104C37.9876 11.5909 37.9892 11.3715 37.9907 11.1521C38.0531 9.52095 38.0531 9.52095 37.4824 8.05929C35.455 6.20378 31.6062 5.27686 29.0486 4.40872C28.8087 4.32649 28.5703 4.24081 28.3318 4.15464C22.4377 2.03223 18.7267 1.82789 12.7692 3.835Z" fill="white"/>
<path d="M22.1645 19.045C22.288 19.0838 22.288 19.0838 22.4141 19.1234C23.4462 19.4506 24.4681 19.7991 25.4713 20.2071C25.5448 20.2369 25.6182 20.2667 25.6939 20.2973C26.6312 20.6881 27.4818 21.0814 27.9067 22.051C28.0856 22.6302 28.0568 23.2298 28.0525 23.8303C28.0528 23.9744 28.0532 24.1185 28.0538 24.2627C28.0544 24.564 28.0535 24.8653 28.0515 25.1667C28.0491 25.5476 28.0505 25.9283 28.053 26.3092C28.0695 29.3335 27.6187 31.7443 25.4819 34.021C24.234 35.2105 21.9576 36.8725 20.1746 36.8432C19.1934 36.6791 18.188 36.1241 17.3468 35.611C17.2281 35.5388 17.2281 35.5388 17.1071 35.4651C15.4451 34.4051 14.1083 33.0144 13.3004 31.2054C13.2772 31.154 13.254 31.1026 13.2302 31.0497C12.7792 29.9873 12.7425 28.9615 12.743 27.8262C12.7424 27.6627 12.7418 27.4992 12.7411 27.3358C12.74 26.9948 12.7398 26.654 12.7403 26.313C12.7408 25.8776 12.7382 25.4423 12.7348 25.007C12.7326 24.67 12.7324 24.3331 12.7327 23.9961C12.7326 23.8356 12.7317 23.6751 12.7302 23.5146C12.7165 21.8731 12.7165 21.8731 13.2053 21.327C15.1703 19.4657 19.6533 18.2498 22.1645 19.045Z" fill="#141F37"/>
<path d="M24.4467 6.19785C24.6437 6.26281 24.8407 6.32774 25.0377 6.39265C25.6021 6.57914 26.1657 6.76795 26.7287 6.95854C26.7989 6.98228 26.869 7.00601 26.9413 7.03047C27.7935 7.32055 28.6291 7.64571 29.4634 7.98368C29.7777 8.1109 30.0934 8.23342 30.4107 8.35313C31.39 8.72856 32.3596 9.12974 33.3002 9.59453C33.3535 9.6206 33.4068 9.64668 33.4618 9.67354C33.7258 9.80689 33.9823 9.95146 34.2313 10.1112C34.2777 10.1407 34.3242 10.1701 34.372 10.2005C34.8605 10.712 34.7927 11.3684 34.7859 12.0288C34.7858 12.1367 34.7857 12.2446 34.7855 12.3557C34.7851 12.6466 34.7831 12.9375 34.7807 13.2284C34.7789 13.4688 34.778 13.7092 34.7772 13.9495C34.7701 15.9021 34.7364 17.8541 34.6737 19.8057C34.2996 19.4881 33.9303 19.1664 33.5696 18.8337C33.5233 18.791 33.4769 18.7482 33.4291 18.7042C33.0166 18.3211 32.6181 17.9247 32.2244 17.5223C31.9815 17.2756 31.7339 17.0406 31.4715 16.8148C31.0322 16.4353 30.6306 16.0203 30.2241 15.6064C29.886 15.2645 29.5402 14.9405 29.1757 14.627C28.8409 14.3304 28.5329 14.0062 28.2201 13.6869C27.958 13.4215 27.693 13.1658 27.4102 12.9225C26.9721 12.5448 26.5722 12.1309 26.1671 11.7184C25.8286 11.3762 25.4824 11.0521 25.1176 10.7383C24.8437 10.4952 24.5912 10.2317 24.3357 9.96959C23.1299 8.75385 21.8813 7.79048 20.0991 7.77205C18.4492 7.79268 17.2957 8.53439 16.1636 9.6632C16.0949 9.73173 16.0261 9.80027 15.9553 9.87087C15.836 9.9906 15.7173 10.111 15.5997 10.2324C15.4332 10.3945 15.2633 10.5458 15.0873 10.6973C14.7094 11.0254 14.3589 11.377 14.0084 11.734C13.6661 12.0825 13.3251 12.427 12.9545 12.7456C12.5671 13.0788 12.2112 13.4405 11.8531 13.8047C11.4401 14.2248 11.0238 14.6311 10.577 15.0151C10.3139 15.2474 10.0699 15.4978 9.82458 15.7487C9.52637 16.0537 9.22627 16.3499 8.90277 16.6282C8.52907 16.9508 8.18409 17.2984 7.83834 17.6504C7.4374 18.0587 7.03193 18.4518 6.59806 18.825C6.38278 19.014 6.18424 19.215 5.98417 19.4201C5.85718 19.5502 5.7291 19.6792 5.59854 19.8057C5.57065 19.8057 5.54276 19.8057 5.51402 19.8057C5.43623 18.0093 5.41114 16.2149 5.40919 14.417C5.40872 14.0469 5.40666 13.6769 5.40429 13.3068C5.40272 13.018 5.40228 12.7292 5.40215 12.4404C5.4019 12.3037 5.40122 12.1671 5.40011 12.0305C5.39866 11.8412 5.39882 11.6519 5.39937 11.4626C5.39906 11.3555 5.39875 11.2484 5.39844 11.1381C5.4386 10.761 5.549 10.467 5.82668 10.2027C7.65035 9.04901 9.73265 8.34196 11.7379 7.57462C11.9595 7.48967 12.1808 7.40407 12.4018 7.31775C13.4551 6.91211 14.5301 6.56597 15.6024 6.21428C15.7948 6.15115 15.9872 6.08784 16.1795 6.02427C19.3426 4.98006 21.2934 5.14862 24.4467 6.19785Z" fill="white"/>
<path d="M21.4062 27.5815C22.8566 27.5815 24.307 27.5815 25.8013 27.5815C25.8013 29.5652 25.5022 30.7543 24.1954 32.2302C24.1497 32.283 24.1039 32.3359 24.0568 32.3903C23.3906 33.1086 22.4439 33.7327 21.5753 34.1742C21.5195 34.1742 21.4637 34.1742 21.4062 34.1742C21.4062 31.9986 21.4062 29.823 21.4062 27.5815Z" fill="white"/>
<path d="M14.8984 27.5815C16.3488 27.5815 17.7992 27.5815 19.2935 27.5815C19.2935 29.7292 19.2935 31.8769 19.2935 34.0896C17.8848 33.8079 16.578 32.4989 15.7965 31.348C15.0028 30.1357 14.8984 29.0386 14.8984 27.5815Z" fill="white"/>
<path d="M19.2935 21.1582C19.2935 22.5807 19.2935 24.0032 19.2935 25.4688C17.8431 25.4688 16.3928 25.4688 14.8984 25.4688C14.8984 24.5483 14.8984 23.6279 14.8984 22.6796C16.7396 21.877 16.7396 21.877 17.4473 21.6574C17.8388 21.5326 18.2221 21.3839 18.6065 21.2388C18.8709 21.1582 18.8709 21.1582 19.2935 21.1582Z" fill="white"/>
<path d="M21.4062 21.1582C22.073 21.2535 22.073 21.2535 22.3934 21.3596C22.4643 21.383 22.5351 21.4064 22.6082 21.4305C22.6822 21.4557 22.7562 21.4809 22.8325 21.5069C22.91 21.5329 22.9874 21.559 23.0672 21.5858C23.7949 21.8348 24.5035 22.1219 25.2097 22.426C25.4049 22.5097 25.6002 22.5934 25.8013 22.6796C25.8013 23.6 25.8013 24.5204 25.8013 25.4688C24.351 25.4688 22.9006 25.4688 21.4062 25.4688C21.4062 24.0463 21.4062 22.6238 21.4062 21.1582Z" fill="white"/>
<path d="M24.3619 31.9766C24.3898 32.0602 24.4177 32.1439 24.4464 32.2301C24.1365 32.54 23.8266 32.8499 23.5167 33.1599C23.4609 33.0762 23.4051 32.9925 23.3477 32.9063C23.4067 32.8533 23.4658 32.8004 23.5266 32.7458C23.6035 32.6768 23.6804 32.6077 23.7597 32.5365C23.8744 32.4336 23.8744 32.4336 23.9915 32.3285C24.1176 32.214 24.2415 32.097 24.3619 31.9766Z" fill="#FCE7E5"/>
<path d="M33.2376 31.8076C33.2655 31.8076 33.2934 31.8076 33.3221 31.8076C33.3221 31.9471 33.3221 32.0865 33.3221 32.2302C33.2384 32.2581 33.1548 32.286 33.0686 32.3147C33.0686 32.4821 33.0686 32.6494 33.0686 32.8219C32.957 32.8498 32.8454 32.8777 32.7305 32.9064C32.873 32.5262 33.0531 32.1686 33.2376 31.8076Z" fill="#F9D7D9"/>
</svg>
