<svg xmlns="http://www.w3.org/2000/svg" width="1280" height="488" viewBox="0 0 1280 488" fill="none">
    <rect width="1280" height="488" rx="32" fill="url(#paint0_linear_1214_7519)"/>
    <path d="M1138.45 176.399C1051.49 110.964 978.473 -31.3896 949.206 -94.0882C942.236 -109.021 922.636 -113.254 910.375 -102.245C903.003 -95.6256 900.48 -85.1862 904.29 -76.0405C925.625 -24.8341 1000.29 142.153 1094.88 215.521C1163.59 268.811 1225.64 260.712 1294.99 313.169C1342.11 348.813 1393.92 412.809 1421.76 449.402C1432.83 463.958 1454.14 466.322 1467.75 454.103C1479.21 443.819 1481.19 426.669 1471.97 414.34C1445.6 379.071 1390.64 309.598 1340.63 272.184C1270.68 219.844 1208.27 228.927 1138.45 176.399Z" fill="#69A1F5"/>
    <path d="M759.132 374.568C651.134 494.387 440.737 610.151 365.082 649.621C350.936 657.001 347.08 675.686 357.35 687.898C364.489 696.388 376.266 699.095 386.233 694.226C450.2 662.975 680.932 545.268 796.821 419.384C879.516 329.557 884.696 257.807 966.518 167.368C1026.81 100.73 1129.66 22.033 1178.24 -13.8002C1192.66 -24.4383 1195.26 -45.1059 1183.72 -58.8214C1173.51 -70.9624 1155.81 -73.3124 1143 -63.9468C1096.36 -29.832 988.872 51.5428 927.033 120.417C845.208 211.553 841.155 283.566 759.132 374.568Z" fill="#69A1F5"/>
    <defs>

        <linearGradient id="paint0_linear_1214_7519" x1="116" y1="195.762" x2="979.168" y2="272.557" gradientUnits="userSpaceOnUse">
            <stop offset="0.34023" stop-color="#EBEFFC" stop-opacity="0.22"/>
            <stop offset="1" stop-color="#E4EBFD" stop-opacity="0.94"/>
        </linearGradient>



    </defs>
</svg>