<svg width="46" height="46" viewBox="0 0 46 46" fill="none" xmlns="http://www.w3.org/2000/svg">
<path fill-rule="evenodd" clip-rule="evenodd" d="M32.0002 11.4992C32.2791 11.4992 32.5525 11.4215 32.7897 11.2748C33.0269 11.128 33.2184 10.918 33.3429 10.6684C33.4673 10.4188 33.5197 10.1395 33.4941 9.86173C33.4686 9.584 33.3661 9.31889 33.1982 9.09618C31.6292 7.01618 27.9552 3.19218 24.6472 1.19718C24.1503 0.896966 23.5807 0.738281 23.0002 0.738281C22.4196 0.738281 21.8501 0.896966 21.3532 1.19718C18.0452 3.19218 14.3712 7.01718 12.8032 9.09718C12.6356 9.31983 12.5334 9.58474 12.5079 9.86223C12.4825 10.1397 12.5349 10.4188 12.6591 10.6682C12.7834 10.9176 12.9747 11.1275 13.2116 11.2742C13.4485 11.421 13.7215 11.4989 14.0002 11.4992H32.0002ZM34.5002 31.9992C34.5001 32.2781 34.5779 32.5515 34.7246 32.7887C34.8713 33.0259 35.0813 33.2174 35.3309 33.3419C35.5805 33.4663 35.8599 33.5187 36.1376 33.4931C36.4154 33.4676 36.6805 33.3651 36.9032 33.1972C38.9832 31.6292 42.8072 27.9552 44.8032 24.6472C45.1034 24.1503 45.2621 23.5807 45.2621 23.0002C45.2621 22.4196 45.1034 21.8501 44.8032 21.3532C42.8072 18.0442 38.9832 14.3702 36.9032 12.8022C36.6805 12.6343 36.4155 12.5319 36.1379 12.5063C35.8602 12.4807 35.5809 12.533 35.3314 12.6573C35.0818 12.7816 34.8718 12.973 34.725 13.2101C34.5782 13.4471 34.5003 13.7204 34.5002 13.9992V31.9992ZM33.3422 35.3302C33.2177 35.0808 33.0262 34.8711 32.7891 34.7245C32.5521 34.5779 32.2789 34.5002 32.0002 34.5002H14.0002C13.7213 34.5001 13.4479 34.5779 13.2107 34.7246C12.9735 34.8713 12.7819 35.0813 12.6575 35.3309C12.5331 35.5805 12.4807 35.8599 12.5062 36.1376C12.5318 36.4154 12.6343 36.6805 12.8022 36.9032C14.3712 38.9832 18.0452 42.8062 21.3532 44.8022C21.8501 45.1024 22.4196 45.2611 23.0002 45.2611C23.5807 45.2611 24.1503 45.1024 24.6472 44.8022C27.9552 42.8072 31.6292 38.9822 33.1972 36.9022C33.3651 36.6795 33.4676 36.4145 33.4932 36.1368C33.5188 35.8591 33.4665 35.5798 33.3422 35.3302ZM11.5002 32.0002C11.5 32.279 11.4222 32.5523 11.2754 32.7893C11.1285 33.0263 10.9186 33.2178 10.669 33.3421C10.4194 33.4664 10.1401 33.5187 9.86248 33.4931C9.58484 33.4675 9.31982 33.365 9.09718 33.1972C7.01718 31.6292 3.19318 27.9552 1.19718 24.6472C0.896966 24.1503 0.738281 23.5807 0.738281 23.0002C0.738281 22.4196 0.896966 21.8501 1.19718 21.3532C3.19318 18.0442 7.01718 14.3702 9.09718 12.8022C9.31982 12.6343 9.58484 12.5319 9.86248 12.5063C10.1401 12.4807 10.4194 12.533 10.669 12.6573C10.9186 12.7816 11.1285 12.973 11.2754 13.2101C11.4222 13.4471 11.5 13.7204 11.5002 13.9992V32.0002ZM14.5002 18.5002C14.5002 17.7552 14.5882 17.1732 14.6972 16.7392C14.9812 15.6112 15.9872 15.1022 16.8272 15.0752C17.7172 15.0472 19.6982 14.9992 23.0002 14.9992C26.3022 14.9992 28.2822 15.0472 29.1732 15.0752C30.0132 15.1022 31.0192 15.6112 31.3032 16.7392C31.4408 17.3155 31.507 17.9067 31.5002 18.4992C31.507 19.0917 31.4408 19.6828 31.3032 20.2592C31.0192 21.3872 30.0132 21.8962 29.1732 21.9232C28.2822 21.9522 26.3022 21.9992 23.0002 21.9992C19.6982 21.9992 17.7182 21.9522 16.8262 21.9232C15.9862 21.8972 14.9812 21.3872 14.6962 20.2602C14.5589 19.6838 14.493 19.0927 14.5002 18.5002ZM14.6972 26.7392C14.5595 27.3155 14.4934 27.9067 14.5002 28.4992C14.5002 29.2442 14.5882 29.8262 14.6972 30.2592C14.9812 31.3872 15.9872 31.8962 16.8272 31.9232C17.7172 31.9522 19.6982 31.9992 23.0002 31.9992C26.3022 31.9992 28.2822 31.9522 29.1732 31.9232C30.0132 31.8972 31.0192 31.3872 31.3032 30.2602C31.4408 29.6838 31.507 29.0927 31.5002 28.5002C31.5071 27.9073 31.4409 27.3159 31.3032 26.7392C31.0192 25.6112 30.0132 25.1022 29.1732 25.0752C27.116 25.0181 25.0581 24.9927 23.0002 24.9992C19.6982 24.9992 17.7182 25.0472 16.8262 25.0752C15.9862 25.1022 14.9822 25.6112 14.6972 26.7392Z" fill="#E0499B"/>
</svg>
