<svg width="65" height="90" viewBox="0 0 65 90" fill="none" xmlns="http://www.w3.org/2000/svg">
<path d="M15.6222 53.3711L3.24954 82.1241C3.1902 82.258 3.1729 82.4068 3.19991 82.5508C3.22692 82.6947 3.29696 82.8271 3.4008 82.9304C3.50463 83.0337 3.63737 83.103 3.78146 83.1293C3.92555 83.1555 4.07422 83.1375 4.20781 83.0774L13.7456 78.865C13.8392 78.822 13.9409 78.7993 14.044 78.7984C14.147 78.7976 14.2491 78.8186 14.3435 78.8601C14.4378 78.9016 14.5223 78.9627 14.5913 79.0392C14.6603 79.1158 14.7123 79.2061 14.7438 79.3042L17.963 88.9618C18.0122 89.1039 18.1045 89.2271 18.2271 89.3144C18.3496 89.4016 18.4963 89.4484 18.6467 89.4484C18.7971 89.4484 18.9438 89.4016 19.0663 89.3144C19.1889 89.2271 19.2812 89.1039 19.3305 88.9618L30.9645 57.9478L15.6222 53.3711Z" fill="#FFC727"/>
<path d="M31.75 58.1774L37.6743 88.9119C37.702 89.0555 37.7722 89.1874 37.8759 89.2905C37.9796 89.3937 38.1119 89.4632 38.2557 89.4901C38.3994 89.5171 38.5479 89.5001 38.6819 89.4415C38.8159 89.3828 38.9291 89.2853 39.0069 89.1614L44.5269 80.3224C44.5805 80.2366 44.6515 80.1628 44.7352 80.1059C44.8189 80.049 44.9135 80.0102 45.0131 79.9919C45.1126 79.9735 45.2149 79.9762 45.3133 79.9996C45.4118 80.023 45.5043 80.0666 45.585 80.1277L53.6754 86.3116C53.795 86.4017 53.9395 86.4528 54.0892 86.4579C54.2389 86.463 54.3865 86.4218 54.512 86.34C54.6375 86.2582 54.7347 86.1397 54.7904 86.0006C54.8461 85.8616 54.8576 85.7088 54.8233 85.5629L47.0074 53.3711L31.75 58.1774Z" fill="#FFC727"/>
<g opacity="0.3">
<path d="M15.6222 53.3672L3.24954 82.1202C3.1902 82.2541 3.1729 82.4029 3.19991 82.5469C3.22692 82.6908 3.29696 82.8232 3.4008 82.9265C3.50463 83.0298 3.63737 83.0991 3.78146 83.1254C3.92555 83.1516 4.07422 83.1335 4.20781 83.0735L13.7456 78.8611C13.8392 78.8181 13.9409 78.7954 14.044 78.7945C14.147 78.7937 14.2491 78.8147 14.3435 78.8562C14.4378 78.8977 14.5223 78.9588 14.5913 79.0353C14.6603 79.1119 14.7123 79.2022 14.7438 79.3003L17.963 88.9579C18.0122 89.1 18.1045 89.2232 18.2271 89.3104C18.3496 89.3977 18.4963 89.4445 18.6467 89.4445C18.7971 89.4445 18.9438 89.3977 19.0663 89.3104C19.1889 89.2232 19.2812 89.1 19.3305 88.9579L30.9645 57.9439L15.6222 53.3672Z" fill="black"/>
</g>
<g opacity="0.3">
<path d="M31.75 58.1735L37.6743 88.908C37.702 89.0516 37.7722 89.1835 37.8759 89.2866C37.9796 89.3898 38.1119 89.4593 38.2557 89.4862C38.3994 89.5131 38.5479 89.4962 38.6819 89.4376C38.8159 89.3789 38.9291 89.2814 39.0069 89.1575L44.5269 80.3185C44.5805 80.2327 44.6515 80.1589 44.7352 80.102C44.8189 80.0451 44.9135 80.0063 45.0131 79.9879C45.1126 79.9696 45.2149 79.9723 45.3133 79.9957C45.4118 80.0191 45.5043 80.0627 45.585 80.1238L53.6754 86.3077C53.795 86.3978 53.9395 86.4489 54.0892 86.454C54.2389 86.4591 54.3865 86.4179 54.512 86.3361C54.6375 86.2543 54.7347 86.1358 54.7904 85.9967C54.8461 85.8577 54.8576 85.7048 54.8233 85.559L47.0074 53.3672L31.75 58.1735Z" fill="black"/>
</g>
<path d="M32.3466 2.99242L36.4092 0.0078125L39.6035 3.90577L44.28 2.02916L46.4012 6.6009L51.4021 5.94209L52.3155 10.8981L57.3214 11.502L56.9771 16.533L61.6736 18.3597L60.0914 23.146L64.1841 26.0907L61.464 30.333L64.6981 34.196L60.9998 37.6298L63.1759 42.1766L58.7439 44.5823L59.7171 49.5284L54.826 50.7561L54.5365 55.787L49.4956 55.7621L47.9634 60.5634L43.0872 59.2857L40.407 63.553L36.005 61.1024L32.3466 64.5712L28.6932 61.1024L24.2911 63.553L21.611 59.2857L16.7348 60.5634L15.2025 55.7621L10.1616 55.787L9.87216 50.7561L4.98101 49.5284L5.95425 44.5823L1.52226 42.1766L3.69332 37.6298L0 34.196L3.23416 30.333L0.514071 26.0907L4.60668 23.146L3.01955 18.3597L7.72105 16.533L7.37667 11.502L12.3826 10.8981L13.296 5.94209L18.2969 6.6009L20.4181 2.02916L25.0947 3.90577L28.2839 0.0078125L32.3466 2.99242Z" fill="#FFC727"/>
<path d="M48.4924 48.4389C57.4095 39.5217 57.4095 25.0642 48.4924 16.1471C39.5753 7.22992 25.1177 7.22994 16.2006 16.1471C7.28345 25.0642 7.28345 39.5217 16.2006 48.4389C25.1177 57.356 39.5752 57.356 48.4924 48.4389Z" fill="white"/>
<path d="M37.3292 26.8866L43.4531 27.7849C43.6801 27.8179 43.8933 27.9137 44.0686 28.0616C44.2439 28.2095 44.3743 28.4036 44.4449 28.6218C44.5156 28.84 44.5237 29.0736 44.4684 29.2962C44.4131 29.5188 44.2965 29.7214 44.1319 29.8812L39.6949 34.1984C39.5516 34.3371 39.4443 34.5087 39.3826 34.6984C39.3208 34.888 39.3064 35.0899 39.3405 35.2864L40.3836 41.4003C40.422 41.6261 40.3966 41.858 40.3101 42.07C40.2236 42.282 40.0796 42.4656 39.8942 42.6001C39.7089 42.7345 39.4897 42.8145 39.2613 42.8309C39.0329 42.8473 38.8045 42.7996 38.6019 42.693L33.1118 39.8032C32.9358 39.7097 32.7396 39.6608 32.5403 39.6608C32.341 39.6608 32.1448 39.7097 31.9688 39.8032L26.4788 42.678C26.2758 42.7836 26.0475 42.8305 25.8194 42.8132C25.5913 42.796 25.3725 42.7154 25.1878 42.5804C25.003 42.4455 24.8597 42.2617 24.7738 42.0496C24.688 41.8376 24.6631 41.6058 24.702 41.3804L25.7551 35.2814C25.789 35.0853 25.7749 34.8839 25.7141 34.6945C25.6532 34.505 25.5474 34.3331 25.4057 34.1934L20.9737 29.8662C20.809 29.7061 20.6925 29.5031 20.6374 29.2801C20.5823 29.0572 20.5909 28.8232 20.6621 28.6049C20.7333 28.3866 20.8643 28.1926 21.0403 28.045C21.2163 27.8974 21.4301 27.8021 21.6575 27.77L27.7864 26.8866C27.9833 26.8593 28.1705 26.7841 28.3315 26.6674C28.4925 26.5508 28.6224 26.3964 28.7097 26.2178L31.4598 20.6678C31.5612 20.4626 31.7181 20.2899 31.9125 20.1691C32.107 20.0484 32.3314 19.9844 32.5603 19.9844C32.7892 19.9844 33.0135 20.0484 33.208 20.1691C33.4025 20.2899 33.5593 20.4626 33.6608 20.6678L36.3908 26.2278C36.4815 26.4059 36.6144 26.5591 36.778 26.6739C36.9416 26.7888 37.1308 26.8618 37.3292 26.8866Z" fill="#FFC727"/>
</svg>
