<svg width="50" height="50" viewBox="0 0 50 50" fill="none" xmlns="http://www.w3.org/2000/svg">
<circle opacity="0.2" cx="25" cy="25" r="25" fill="#008EFF"/>
<path d="M21.25 14.5C20.6533 14.5 20.081 14.7371 19.659 15.159C19.2371 15.581 19 16.1533 19 16.75H17.875C17.3777 16.75 16.9008 16.9475 16.5492 17.2992C16.1975 17.6508 16 18.1277 16 18.625V21.625C16 22.4876 16.3303 23.3175 16.9231 23.9442C17.5159 24.5709 18.3262 24.9468 19.1875 24.9948C19.4879 26.1594 20.131 27.2071 21.0336 28.002C21.9362 28.797 23.0567 29.3027 24.25 29.4535V31H21.625C20.9288 31 20.2611 31.2766 19.7688 31.7688C19.2766 32.2611 19 32.9288 19 33.625V34.375C19 34.6734 19.1185 34.9595 19.3295 35.1705C19.5405 35.3815 19.8266 35.5 20.125 35.5H29.875C30.1734 35.5 30.4595 35.3815 30.6705 35.1705C30.8815 34.9595 31 34.6734 31 34.375V33.625C31 32.9288 30.7234 32.2611 30.2312 31.7688C29.7389 31.2766 29.0712 31 28.375 31H25.75V29.4535C26.9433 29.3027 28.0638 28.797 28.9664 28.002C29.869 27.2071 30.5121 26.1594 30.8125 24.9948C31.6738 24.9468 32.4841 24.5709 33.0769 23.9442C33.6697 23.3175 34 22.4876 34 21.625V18.625C34 18.1277 33.8025 17.6508 33.4508 17.2992C33.0992 16.9475 32.6223 16.75 32.125 16.75H31C31 16.1533 30.7629 15.581 30.341 15.159C29.919 14.7371 29.3467 14.5 28.75 14.5H21.25ZM31 18.25H32.125C32.2245 18.25 32.3198 18.2895 32.3902 18.3598C32.4605 18.4302 32.5 18.5255 32.5 18.625V21.625C32.5001 22.0572 32.3508 22.4762 32.0775 22.8111C31.8041 23.1459 31.4235 23.3761 31 23.4625V18.25ZM19 23.4625C18.5765 23.3761 18.1959 23.1459 17.9225 22.8111C17.6492 22.4762 17.4999 22.0572 17.5 21.625V18.625C17.5 18.5255 17.5395 18.4302 17.6098 18.3598C17.6802 18.2895 17.7755 18.25 17.875 18.25H19V23.4625ZM20.5 16.75C20.5 16.5511 20.579 16.3603 20.7197 16.2197C20.8603 16.079 21.0511 16 21.25 16H28.75C28.9489 16 29.1397 16.079 29.2803 16.2197C29.421 16.3603 29.5 16.5511 29.5 16.75V23.5C29.5 24.6935 29.0259 25.8381 28.182 26.682C27.3381 27.5259 26.1935 28 25 28C23.8065 28 22.6619 27.5259 21.818 26.682C20.9741 25.8381 20.5 24.6935 20.5 23.5V16.75ZM20.5 33.625C20.5 33.3266 20.6185 33.0405 20.8295 32.8295C21.0405 32.6185 21.3266 32.5 21.625 32.5H28.375C28.6734 32.5 28.9595 32.6185 29.1705 32.8295C29.3815 33.0405 29.5 33.3266 29.5 33.625V34H20.5V33.625Z" fill="#008EFF"/>
</svg>
