<svg width="50" height="50" viewBox="0 0 50 50" fill="none" xmlns="http://www.w3.org/2000/svg">
<circle opacity="0.2" cx="25" cy="25" r="25" fill="#F23936"/>
<path d="M27.4847 18.2269C27.0685 18.2299 26.6552 18.2502 26.2188 18.3672C25.7432 18.4962 25.292 18.7022 24.883 18.9769C24.3085 18.6394 23.752 18.3619 23.2188 18.2967C22.5565 18.2149 21.9415 18.2592 21.2267 18.2742C20.3793 18.2914 19.8265 18.7242 18.9295 19.0707C18.0333 19.4157 16.879 19.7502 15.25 19.7502H14.5V26.9689L14.9222 27.1797L16.3045 27.8599L21.2267 33.3439L21.25 33.3672C21.8125 33.9237 22.5715 34.0617 23.242 34.0234C23.9132 33.9859 24.5433 33.7894 25.0465 33.4849C26.1543 32.8167 29.1715 30.7189 29.1715 30.7189L29.242 30.6717L29.2892 30.6252C29.6462 30.2704 29.8255 29.8377 29.9455 29.3832L32.8278 27.9297L34.984 27.2037L35.5 27.0387V19.7502H34.75C33.4893 19.7588 32.2391 19.5198 31.0705 19.0467C30.1735 18.6964 29.629 18.2682 28.7725 18.2502C28.315 18.2412 27.9002 18.2239 27.4847 18.2269ZM27.5072 19.7269C27.8448 19.7239 28.2347 19.7419 28.7267 19.7502C28.8055 19.7532 29.5262 20.0607 30.5312 20.4537C31.381 20.7874 32.5615 21.0837 34 21.1797V25.9609L32.2653 26.5474H32.2188L32.1715 26.5699L29.899 27.7189C29.7784 27.3709 29.5868 27.0516 29.3365 26.7814L29.2892 26.7109L26.1017 22.7974L25.633 22.2109L25.0465 22.6797L23.0312 24.3207C22.3548 24.7894 21.8065 24.6544 21.25 24.3912C21.0887 24.3147 21.0978 24.2914 20.9688 24.2037L24.391 21.3672L24.4375 21.3207C25.4537 20.3127 26.0785 19.9639 26.617 19.8207C26.887 19.7472 27.1705 19.7299 27.5072 19.7269ZM22.282 19.7502C22.5322 19.7407 22.7828 19.7485 23.032 19.7734C23.2285 19.7967 23.4513 19.9639 23.6418 20.0314C23.5653 20.1019 23.5097 20.1424 23.4303 20.2189L23.3837 20.2662L19.282 23.6637L18.649 24.1797L19.2115 24.7654C19.2115 24.7654 19.7538 25.3519 20.5945 25.7502C21.4353 26.1484 22.7335 26.3742 23.899 25.5627L23.9462 25.5154L25.399 24.3207L28.165 27.7189L28.1882 27.7662L28.2115 27.7887C28.7065 28.2784 28.6952 29.0487 28.2115 29.5474C28.2055 29.5527 28.2175 29.5647 28.2115 29.5699C28.2055 29.5737 28.1065 29.6322 28.0945 29.6412L27.1097 28.3047L25.891 29.1957L26.8525 30.4842C26.4625 30.7482 26.287 30.8862 25.8678 31.1644L24.8605 29.8047L23.641 30.6957L24.6025 31.9842C24.517 32.0367 24.3415 32.1544 24.274 32.1957C24.037 32.3389 23.5795 32.5002 23.1722 32.5234C22.789 32.5444 22.4958 32.4559 22.3525 32.3359L22.3293 32.3127L17.3133 26.7582L17.2195 26.6404L16 26.0314V21.1797C17.4325 21.0859 18.622 20.8017 19.4688 20.4769C20.4707 20.0929 21.1863 19.7764 21.2733 19.7734L22.282 19.7502Z" fill="#F23936"/>
</svg>
