<svg width="50" height="50" viewBox="0 0 50 50" fill="none" xmlns="http://www.w3.org/2000/svg">
<circle opacity="0.2" cx="25" cy="25" r="25" fill="#45C646"/>
<path d="M25 15C19.486 15 15 19.486 15 25V29.143C15 30.167 15.897 31 17 31H18C18.2652 31 18.5196 30.8946 18.7071 30.7071C18.8946 30.5196 19 30.2652 19 30V24.857C19 24.5918 18.8946 24.3374 18.7071 24.1499C18.5196 23.9624 18.2652 23.857 18 23.857H17.092C17.648 19.987 20.978 17 25 17C29.022 17 32.352 19.987 32.908 23.857H32C31.7348 23.857 31.4804 23.9624 31.2929 24.1499C31.1054 24.3374 31 24.5918 31 24.857V31C31 32.103 30.103 33 29 33H27V32H23V35H29C31.206 35 33 33.206 33 31C34.103 31 35 30.167 35 29.143V25C35 19.486 30.514 15 25 15Z" fill="#45C646"/>
</svg>
