<svg width="305" height="54" viewBox="0 0 305 54" fill="none" xmlns="http://www.w3.org/2000/svg">
<g clip-path="url(#clip0_1174_27377)">
<path d="M54.5352 54H0.535156V48.4717H1.7198L2.90444 48.3729L3.2006 47.8793L4.58269 46.0037L8.13662 41.3638L9.22254 39.9817H17.2189L17.6138 41.3638L18.0086 42.9433L18.1074 43.1408L17.4163 43.9305C16.3395 45.5217 15.1167 47.0089 13.7637 48.3729L15.6394 48.4717H17.515L17.8112 47.8793C18.2015 47.12 18.7003 46.4216 19.292 45.8062C19.612 46.6351 19.8436 47.4954 19.9831 48.3729L21.9575 48.4717H23.8331L23.9319 48.3729C24.1766 47.953 24.407 47.525 24.6229 47.0896L25.7088 45.9049C26.0052 46.7346 26.204 47.596 26.3012 48.4717C27.947 48.4695 29.5926 48.4366 31.2372 48.3729L30.941 47.8793C30.3487 46.7934 30.4474 46.8921 29.2628 43.3382L28.7692 41.66L29.3615 40.7715L30.0525 39.9817H38.0489L38.6412 41.8574C39.229 44.0218 39.7885 46.1939 40.3194 48.3729L42.8862 48.4717C43.7102 48.3846 44.5329 48.2859 45.3542 48.1755L44.2682 45.6088C42.3582 39.8869 40.6786 34.0906 39.2335 28.234H35.186L34.9885 28.5302L34.1001 30.1097L27.782 38.5009L27.1896 36.4278C29.3633 33.6716 31.5682 30.9402 33.8039 28.234H29.7564L29.6576 28.3327V28.5302C29.5589 29.0238 29.4602 29.3199 29.0653 29.8135L25.9063 33.7623L25.7088 33.2687C25.3223 31.6543 24.9274 30.0418 24.5242 28.4314V28.234H19.5882L19.6869 28.5302C20.776 31.3902 21.7639 34.2878 22.6485 37.2175L21.3651 38.8958C20.3614 35.6197 19.407 32.3286 18.5022 29.0238L18.4035 28.3327V28.234H14.1586L13.7637 29.1225L13.0726 30.4058C10.9046 33.5088 8.63274 36.538 6.26093 39.4881C4.42461 41.9208 2.54868 44.3233 0.633877 46.6947H0.535156V0H51.3761L34.7911 21.521C33.4883 23.2507 32.2049 24.9949 30.941 26.7532H34.0013L38.4437 21.0274L41.6028 16.8812L54.5352 0V54ZM22.7472 43.2395L22.3523 41.8574L23.6357 40.1792L23.8331 40.4753L24.5242 42.4497L24.6229 42.6472L24.4255 42.9433L23.2408 44.5229L22.7472 43.2395ZM11.1969 37.415C12.1773 36.1592 13.1646 34.9087 14.1586 33.6636C14.4813 33.2206 14.778 32.7591 15.047 32.2815V32.6764L15.1458 33.3675C15.4654 34.7375 15.8609 36.0888 16.3304 37.415C14.6196 37.4672 12.9077 37.4672 11.1969 37.415ZM32.0269 37.415C33.7052 35.3419 35.0873 33.5649 35.5809 32.6764L35.7783 32.2815L35.877 32.7751V33.4662C36.2191 34.7977 36.6143 36.115 37.0617 37.415H37.1604H31.9282H32.0269Z" fill="white"/>
<path d="M34.0983 27.0494L30.0508 26.9506L51.2756 0H54.5334L34.0983 27.0494Z" fill="#FC1721"/>
<path d="M70.8242 46.4979L78.8206 22.7063H84.6451L92.5427 46.4979H87.9028L86.0271 40.6734H76.8462L74.9705 46.4979H70.8242ZM81.486 26.359L77.9321 37.4156H84.9412L81.486 26.359ZM93.4312 46.4979L101.131 34.2566L94.0235 22.7063H98.9595L104.093 31.1963L109.128 22.7063H113.669L106.66 34.1579L114.261 46.4979H109.226L103.599 37.2182L97.9723 46.4979H93.4312ZM115.248 46.4979L123.245 22.7063H129.069L136.868 46.4979H132.327L130.353 40.6734H121.27L119.395 46.4979H115.248ZM125.811 26.359L122.356 37.4156H129.365L125.811 26.359ZM146.543 46.4979V22.7063H152.466L158.784 38.9952L164.905 22.7063H170.729V46.4979H166.287V28.5308L159.179 46.4979H157.797L150.492 28.5308V46.4979H146.543ZM173.395 46.4979L181.391 22.7063H187.215L195.113 46.4979H190.473L188.598 40.6734H179.417L177.541 46.4979H173.395ZM184.056 26.359L180.502 37.4156H187.512L184.056 26.359ZM197.779 46.4979V22.7063H203.011L213.08 39.8836V22.7063H217.128V46.4979H212.587L201.826 28.2347V46.4979H197.779ZM229.764 46.8928C226.605 46.8928 224.334 46.2017 222.755 44.8197C221.967 44.0841 221.335 43.1988 220.894 42.2156C220.453 41.2324 220.213 40.1711 220.188 39.0939H224.433C224.63 40.5747 225.124 41.6606 225.815 42.3517C226.605 43.1414 227.888 43.5363 229.764 43.5363C231.047 43.5363 232.133 43.2401 233.022 42.5491C233.811 41.8581 234.305 40.9696 234.305 39.8836C234.305 38.7977 233.91 37.9092 233.219 37.4156C232.528 36.922 231.245 36.5272 229.27 36.231C226.309 35.8361 224.137 35.0464 222.853 34.0592C221.57 33.0719 220.879 31.3937 220.879 29.2219C220.879 27.2475 221.669 25.6679 223.15 24.3846C224.729 23.1012 226.704 22.4102 229.172 22.4102C231.738 22.4102 233.811 23.0025 235.292 24.1871C236.773 25.3718 237.662 27.05 237.859 29.3206H233.811C233.614 28.0372 233.12 27.1487 232.331 26.6551C231.64 26.0628 230.554 25.7666 229.172 25.7666C227.888 25.7666 226.901 26.0628 226.111 26.6551C225.42 27.1487 225.124 27.9385 225.124 28.827C225.124 29.9129 225.42 30.7027 226.013 31.1963C226.704 31.6899 228.086 32.0847 230.06 32.3809C233.022 32.7758 235.194 33.4668 236.477 34.5528C237.859 35.54 238.55 37.2182 238.55 39.4888C238.55 41.5619 237.76 43.3389 236.082 44.7209C234.314 46.1959 232.065 46.969 229.764 46.8928ZM239.142 46.4979L247.139 22.7063H252.963L260.861 46.4979H256.221L254.345 40.6734H245.164L243.387 46.4979H239.142ZM249.804 26.359L246.25 37.4156H253.259L249.804 26.359ZM263.526 46.4979V22.7063H271.523C274.287 22.7063 276.459 23.2986 278.038 24.4833C279.618 25.5692 280.407 27.3462 280.407 29.7155V29.8142C280.407 33.1707 278.63 35.3425 275.077 36.231L281.888 46.4979H277.051L270.733 36.922H267.969V46.4979H263.526ZM267.969 33.763H271.523C274.583 33.763 276.064 32.4796 276.064 29.9129V29.8142C276.064 28.5308 275.669 27.5436 274.879 27.05C274.089 26.4577 273.003 26.1615 271.523 26.1615H267.969V33.763ZM288.799 43.0427H291.464C294.031 43.0427 296.005 42.3517 297.387 40.8708C298.671 39.4888 299.362 37.4156 299.362 34.6515V34.454C299.362 28.9257 296.696 26.1615 291.365 26.1615H288.799V43.0427ZM284.356 46.4979V22.7063H291.662C295.709 22.7063 298.769 23.7922 300.843 25.8654C302.916 27.9385 304.002 30.8014 304.002 34.3553V34.6515C304.002 38.3041 302.916 41.167 300.843 43.3389C298.671 45.412 295.61 46.4979 291.563 46.4979H284.356Z" fill="white"/>
<path d="M71.1211 46.4979L79.1174 22.7063H84.9419L92.7408 46.4979H88.1997L86.2253 40.6734H77.143L75.2673 46.4979H71.1211ZM81.6842 26.359L78.229 37.4156H85.2381L81.6842 26.359ZM93.728 46.4979L101.428 34.2566L94.2216 22.7063H99.2564L104.39 31.1963L109.425 22.7063H113.966L106.957 34.1579L114.558 46.4979H109.523L103.896 37.2182L98.2692 46.4979H93.728ZM115.545 46.4979L123.443 22.7063H129.267L137.165 46.4979H132.624L130.649 40.6734H121.567L119.691 46.4979H115.545ZM126.108 26.359L122.554 37.4156H129.662L126.108 26.359ZM146.84 46.4979V22.7063H152.763L158.982 38.9952L165.202 22.7063H171.026V46.4979H166.584V28.5308L159.476 46.4979H158.094L150.788 28.5308V46.4979H146.84ZM173.691 46.4979L181.688 22.7063H187.512L195.41 46.4979H190.77L188.894 40.6734H179.713L177.838 46.4979H173.691ZM184.353 26.359L180.799 37.4156H187.808L184.353 26.359ZM197.977 46.4979V22.7063H203.308L213.377 39.8836V22.7063H217.425V46.4979H212.785L202.024 28.2347V46.4979H197.977ZM230.061 46.8928C226.902 46.8928 224.532 46.2017 223.052 44.8197C222.264 44.0841 221.632 43.1988 221.191 42.2156C220.75 41.2324 220.51 40.1711 220.485 39.0939H224.73C224.927 40.5747 225.322 41.6606 226.112 42.3517C226.902 43.1414 228.185 43.5363 230.061 43.5363C231.344 43.5363 232.43 43.2401 233.319 42.5491C234.108 41.8581 234.503 40.9696 234.503 39.8836C234.503 38.7977 234.207 37.9092 233.516 37.4156C232.825 36.922 231.542 36.5272 229.567 36.231C226.606 35.8361 224.434 35.0464 223.15 34.0592C221.768 33.0719 221.176 31.3937 221.176 29.2219C221.176 27.2475 221.966 25.6679 223.447 24.3846C225.026 23.1012 227 22.4102 229.468 22.4102C232.035 22.4102 234.108 23.0025 235.589 24.1871C237.07 25.3718 237.958 27.05 238.156 29.3206H234.108C233.812 28.0372 233.417 27.1487 232.628 26.6551C231.936 26.0628 230.851 25.7666 229.468 25.7666C228.185 25.7666 227.099 26.0628 226.408 26.6551C225.717 27.1487 225.322 27.9385 225.322 28.827C225.322 29.9129 225.717 30.7027 226.309 31.1963C227 31.6899 228.284 32.0847 230.258 32.3809C233.22 32.7758 235.392 33.4668 236.774 34.5528C238.156 35.54 238.847 37.2182 238.847 39.4888C238.847 41.5619 238.057 43.3389 236.379 44.7209C234.611 46.1959 232.362 46.969 230.061 46.8928ZM239.439 46.4979L247.436 22.7063H253.26L261.158 46.4979H256.518L254.642 40.6734H245.461L243.585 46.4979H239.439ZM250.101 26.359L246.547 37.4156H253.556L250.101 26.359ZM263.823 46.4979V22.7063H271.819C274.584 22.7063 276.755 23.2986 278.335 24.4833C279.915 25.5692 280.704 27.3462 280.704 29.7155V29.8142C280.704 33.1707 278.927 35.3425 275.373 36.231L282.086 46.4979H277.348L271.03 36.922H268.266V46.4979H263.823ZM268.266 33.763H271.819C274.781 33.763 276.361 32.4796 276.361 29.9129V29.8142C276.361 28.5308 275.966 27.5436 275.176 27.05C274.386 26.4577 273.3 26.1615 271.819 26.1615H268.266V33.763ZM289.096 43.0427H291.761C294.328 43.0427 296.302 42.3517 297.684 40.8708C298.968 39.4888 299.659 37.4156 299.659 34.6515V34.454C299.659 28.9257 296.993 26.1615 291.662 26.1615H289.096V43.0427ZM284.653 46.4979V22.7063H291.958C296.006 22.7063 299.066 23.7922 301.139 25.8654C303.213 27.9385 304.298 30.8014 304.298 34.3553V34.6515C304.298 38.3041 303.213 41.167 301.139 43.3389C298.968 45.412 295.907 46.4979 291.86 46.4979H284.653Z" fill="white"/>
</g>
<defs>
<clipPath id="clip0_1174_27377">
<rect width="303.762" height="54" fill="white" transform="translate(0.535156)"/>
</clipPath>
</defs>
</svg>
