<svg width="46" height="46" viewBox="0 0 46 46" fill="none" xmlns="http://www.w3.org/2000/svg">
<path fill-rule="evenodd" clip-rule="evenodd" d="M7.19 0.857C9.784 0.672 13.584 0.5 18.75 0.5C23.916 0.5 27.716 0.672 30.31 0.857C33.61 1.093 36.157 3.639 36.393 6.941C36.578 9.534 36.75 13.334 36.75 18.5C36.75 23.666 36.578 27.466 36.393 30.06C36.157 33.36 33.611 35.907 30.309 36.143C27.716 36.328 23.916 36.5 18.75 36.5C13.584 36.5 9.784 36.328 7.19 36.143C3.89 35.907 1.343 33.361 1.107 30.059C0.922 27.466 0.75 23.666 0.75 18.5C0.75 13.334 0.922 9.534 1.107 6.94C1.343 3.64 3.888 1.093 7.19 0.857ZM25.88 9.507C26.482 9.503 27.105 9.5 27.75 9.5C29.811 9.5 31.655 9.527 33.291 9.572C33.6887 9.58287 34.0658 9.75129 34.3393 10.0402C34.6128 10.3291 34.7604 10.7148 34.7495 11.1125C34.7386 11.5102 34.5702 11.8873 34.2813 12.1608C33.9924 12.4343 33.6067 12.5819 33.209 12.571C31.903 12.535 30.459 12.511 28.874 12.503L34.811 18.439C35.0924 18.7204 35.2505 19.102 35.2505 19.5C35.2505 19.898 35.0924 20.2796 34.811 20.561C34.5296 20.8424 34.148 21.0005 33.75 21.0005C33.352 21.0005 32.9704 20.8424 32.689 20.561L24.651 12.522C21.104 12.573 18.381 12.709 16.404 12.85C16.0697 12.873 15.7401 12.941 15.424 13.052L32.31 29.94C32.5914 30.2214 32.7495 30.603 32.7495 31.001C32.7495 31.399 32.5914 31.7806 32.31 32.062C32.0286 32.3434 31.647 32.5015 31.249 32.5015C30.851 32.5015 30.4694 32.3434 30.188 32.062L13.302 15.174C13.191 15.4901 13.123 15.8197 13.1 16.154C12.959 18.131 12.823 20.854 12.772 24.401L20.811 32.439C21.0924 32.7204 21.2505 33.102 21.2505 33.5C21.2505 33.898 21.0924 34.2796 20.811 34.561C20.5296 34.8424 20.148 35.0005 19.75 35.0005C19.352 35.0005 18.9704 34.8424 18.689 34.561L12.753 28.624C12.761 30.21 12.785 31.654 12.821 32.959C12.8319 33.3567 12.6843 33.7424 12.4108 34.0313C12.1373 34.3202 11.7602 34.4886 11.3625 34.4995C10.9648 34.5104 10.5791 34.3628 10.2902 34.0893C10.0013 33.8158 9.83287 33.4387 9.822 33.041C9.75559 30.5709 9.73425 28.0998 9.758 25.629L2.689 18.561C2.40761 18.2796 2.24952 17.898 2.24952 17.5C2.24952 17.102 2.40761 16.7204 2.689 16.439C2.97039 16.1576 3.35205 15.9995 3.75 15.9995C4.14795 15.9995 4.52961 16.1576 4.811 16.439L9.836 21.465C9.904 19.225 10.004 17.394 10.107 15.941C10.1793 14.8766 10.5076 13.8453 11.064 12.935L5.189 7.061C5.04967 6.92167 4.93914 6.75626 4.86374 6.57421C4.78833 6.39216 4.74952 6.19705 4.74952 6C4.74952 5.80295 4.78833 5.60784 4.86374 5.42579C4.93914 5.24374 5.04967 5.07833 5.189 4.939C5.32833 4.79967 5.49374 4.68914 5.67579 4.61374C5.85784 4.53833 6.05295 4.49952 6.25 4.49952C6.44705 4.49952 6.64216 4.53833 6.82421 4.61374C7.00626 4.68914 7.17167 4.79967 7.311 4.939L13.185 10.814C14.063 10.274 15.085 9.936 16.191 9.857C17.644 9.754 19.476 9.654 21.715 9.587L16.689 4.56C16.5497 4.42067 16.4391 4.25526 16.3637 4.07321C16.2883 3.89116 16.2495 3.69605 16.2495 3.499C16.2495 3.10105 16.4076 2.71939 16.689 2.438C16.9704 2.15661 17.352 1.99852 17.75 1.99852C18.148 1.99852 18.5296 2.15661 18.811 2.438L25.88 9.507ZM18.75 39C23.972 39 27.831 38.826 30.488 38.636C35.029 38.312 38.562 34.779 38.886 30.237C39.076 27.581 39.25 23.722 39.25 18.5C39.25 15.046 39.174 12.188 39.068 9.88C42.243 10.227 44.663 12.726 44.893 15.94C45.078 18.534 45.25 22.334 45.25 27.5C45.25 32.666 45.078 36.466 44.893 39.06C44.657 42.36 42.111 44.907 38.81 45.142C36.216 45.328 32.416 45.5 27.25 45.5C22.084 45.5 18.284 45.328 15.69 45.142C12.39 44.907 9.843 42.361 9.608 39.059C9.60119 38.9697 9.59452 38.8803 9.588 38.791C11.987 38.911 15.021 39 18.75 39Z" fill="#55CA6F"/>
</svg>
