<svg width="43" height="45" viewBox="0 0 43 45" fill="none" xmlns="http://www.w3.org/2000/svg">
<path fill-rule="evenodd" clip-rule="evenodd" d="M10.5 18.0001C10.4997 16.591 10.8716 15.2069 11.578 13.9877C12.2845 12.7685 13.3004 11.7575 14.523 11.0571C14.51 10.1771 14.5 9.16007 14.5 8.00007C14.5 5.44907 14.544 3.59507 14.59 2.35507C14.633 1.15507 15.444 0.168069 16.64 0.0700692C17.2588 0.021907 17.8793 -0.00144507 18.5 6.91578e-05C19.232 6.91578e-05 19.85 0.0290692 20.36 0.0700692C21.556 0.168069 22.367 1.15507 22.41 2.35507C22.456 3.59507 22.5 5.44907 22.5 8.00007C22.5 9.16007 22.491 10.1771 22.477 11.0571C23.6964 11.7557 24.7102 12.7632 25.4165 13.9782C26.1227 15.1933 26.4964 16.5729 26.5 17.9782C26.5035 19.3836 26.1368 20.765 25.4368 21.9836C24.7367 23.2022 23.728 24.2149 22.5122 24.9197C21.2963 25.6245 19.9163 25.9966 18.5109 25.9985C17.1056 26.0004 15.7245 25.6321 14.5068 24.9306C13.289 24.2291 12.2775 23.2192 11.5741 22.0026C10.8708 20.7859 10.5003 19.4054 10.5 18.0001ZM25.495 9.51007C25.498 9.03607 25.5 8.53307 25.5 8.00007C25.5 5.41507 25.456 3.52407 25.409 2.24507C25.3934 1.83156 25.3321 1.42105 25.226 1.02107C32.574 3.52507 37.889 10.3561 38.055 18.4441L41.935 23.8541C42.628 24.8201 42.555 26.2341 41.43 26.9231C40.577 27.4431 39.331 28.0501 37.659 28.4931L37.084 35.3231C37.0445 35.7926 36.9106 36.2494 36.6903 36.6659C36.47 37.0824 36.1679 37.4502 35.802 37.7472C35.4361 38.0441 35.0141 38.2641 34.5611 38.394C34.1082 38.5239 33.6336 38.561 33.166 38.5031L30.646 38.1911V41.1081C30.646 42.6151 29.665 43.9781 28.128 44.2631C26.276 44.6081 23.243 45.0001 19.029 45.0001C14.816 45.0001 11.783 44.6081 9.931 44.2631C8.394 43.9771 7.411 42.6151 7.411 41.1081V33.7501C2.907 30.3081 0 24.9071 0 18.8331C0 11.0091 4.82 4.30307 11.677 1.45807C11.6299 1.71805 11.6011 1.98104 11.591 2.24507C11.544 3.52407 11.5 5.41507 11.5 8.00007C11.5 8.53307 11.502 9.03607 11.505 9.51007C10.2514 10.5412 9.24199 11.8374 8.54946 13.3055C7.85694 14.7735 7.49852 16.3769 7.5 18.0001C7.5 23.8661 12.092 28.6601 17.877 28.9831C21.145 32.0171 25.898 34.0001 30.5 34.0001C30.8978 34.0001 31.2794 33.842 31.5607 33.5607C31.842 33.2794 32 32.8979 32 32.5001C32 32.1022 31.842 31.7207 31.5607 31.4394C31.2794 31.1581 30.8978 31.0001 30.5 31.0001C27.578 31.0001 24.531 30.0171 22.038 28.4191C26.378 26.9461 29.5 22.8371 29.5 18.0001C29.5015 16.3769 29.1431 14.7735 28.4505 13.3055C27.758 11.8374 26.7486 10.5412 25.495 9.51007Z" fill="#CB49E0"/>
</svg>
