<svg width="378" height="462" viewBox="0 0 378 462" fill="none" xmlns="http://www.w3.org/2000/svg">
<path d="M236.455 176.399C149.486 110.964 76.4731 -31.3896 47.2063 -94.0882C40.2361 -109.021 20.6362 -113.254 8.37462 -102.245C1.00252 -95.6256 -1.52028 -85.1862 2.29024 -76.0405C23.6253 -24.8341 98.2864 142.153 192.884 215.521C261.594 268.811 323.64 260.712 392.987 313.169C440.107 348.813 491.922 412.809 519.758 449.402C530.831 463.958 552.143 466.322 565.752 454.103C577.206 443.819 579.189 426.669 569.971 414.34C543.601 379.071 488.638 309.598 438.634 272.184C368.678 219.844 306.269 228.927 236.455 176.399Z" fill="#2AA24C"/>
</svg>
