<svg width="588" height="536" viewBox="0 0 588 536" fill="none" xmlns="http://www.w3.org/2000/svg">
<path d="M291.748 310.475C223.529 395.279 78.8849 463.64 15.2708 490.86C0.120506 497.343 -4.74625 516.795 5.86019 529.407C12.2372 536.99 22.5893 539.849 31.8536 536.337C83.7245 516.673 253.043 447.462 329.438 355.291C384.927 288.344 378.842 226.068 433.519 158.457C470.67 112.517 536.312 62.8032 573.788 36.1673C588.695 25.5718 591.748 4.34728 579.977 -9.6501C570.069 -21.4313 552.992 -23.9696 540.372 -15.1561C504.266 10.0578 433.048 62.741 394.035 111.507C339.455 179.729 346.511 242.4 291.748 310.475Z" fill="#2AA24C"/>
</svg>
