<svg width="1440" height="342" viewBox="0 0 1440 342" fill="none" xmlns="http://www.w3.org/2000/svg">
<path d="M-121.842 327.034C-146.659 326.07 -166 305.632 -166 280.796V77.4049C-166 50.3243 -143.024 28.8523 -115.968 30.0148C-65.2401 32.1944 13.841 33.8994 71.8635 27.2746C124.617 21.2514 153.091 3.96879 205.662 3.12481C282.837 1.88582 324.482 37.1664 401.404 47.3994C588.796 72.3283 694.364 -14.0554 882.086 3.12481C976.397 11.7561 1028.3 60.3465 1122.43 47.3994C1176.51 39.9606 1204.43 3.47726 1258.7 3.12481C1299.76 2.85822 1321.72 27.1599 1362.77 27.2746C1384.15 27.3343 1409.71 20.9343 1433.18 12.9833C1466.36 1.743 1504 24.9425 1504 59.9706V256.356C1504 289.317 1470.49 312.449 1438.78 303.458C1396.95 291.6 1342.83 280.182 1300.82 284.872C1249.71 290.581 1222.74 313.744 1171.98 325.122C1040.66 354.559 964.801 339.46 832.531 325.122C745.104 315.645 697.118 289.075 609.534 284.872C490.176 279.144 424.443 315.593 304.772 325.122C165.431 336.217 -34.1648 330.44 -121.842 327.034Z" fill="#1B2327"/>
</svg>
