<svg width="200" height="200" viewBox="0 0 200 200" fill="none" xmlns="http://www.w3.org/2000/svg">
<path d="M112.745 69.5982C107.975 72.9989 102.137 74.9993 95.8327 74.9993C79.7244 74.9993 66.666 61.941 66.666 45.8327C66.666 29.7244 79.7244 16.666 95.8327 16.666C106.274 16.666 115.434 22.1528 120.587 30.4005M49.9993 167.392H71.7518C74.5879 167.392 77.4067 167.73 80.1561 168.405L103.14 173.99C108.127 175.205 113.322 175.323 118.362 174.344L143.774 169.4C150.487 168.093 156.663 164.878 161.502 160.17L179.482 142.68C184.616 137.694 184.616 129.603 179.482 124.608C174.859 120.111 167.539 119.605 162.309 123.419L141.354 138.706C138.353 140.9 134.702 142.081 130.946 142.081H110.712L123.592 142.081C130.851 142.081 136.731 136.36 136.731 129.299V126.742C136.731 120.879 132.629 115.766 126.783 114.348L106.904 109.514C103.669 108.729 100.356 108.333 97.0255 108.333C88.9854 108.333 74.4318 114.989 74.4318 114.989L49.9993 125.207M166.666 54.166C166.666 70.2743 153.608 83.3327 137.499 83.3327C121.391 83.3327 108.333 70.2743 108.333 54.166C108.333 38.0577 121.391 24.9993 137.499 24.9993C153.608 24.9993 166.666 38.0577 166.666 54.166ZM16.666 121.666L16.666 169.999C16.666 174.666 16.666 177 17.5743 178.783C18.3732 180.351 19.6481 181.625 21.2161 182.424C22.9987 183.333 25.3322 183.333 29.9993 183.333H36.666C41.3331 183.333 43.6667 183.333 45.4493 182.424C47.0173 181.625 48.2921 180.351 49.0911 178.783C49.9993 177 49.9993 174.666 49.9993 169.999V121.666C49.9993 116.999 49.9993 114.665 49.0911 112.883C48.2921 111.315 47.0173 110.04 45.4493 109.241C43.6667 108.333 41.3331 108.333 36.666 108.333L29.9994 108.333C25.3322 108.333 22.9987 108.333 21.2161 109.241C19.6481 110.04 18.3732 111.315 17.5743 112.883C16.666 114.665 16.666 116.999 16.666 121.666Z" stroke="#AF060D" stroke-width="6" stroke-linecap="round" stroke-linejoin="round"/>
</svg>
