<svg width="196" height="77" viewBox="0 0 196 77" fill="none" xmlns="http://www.w3.org/2000/svg">
<path d="M106.865 31.9048C107.086 31.9065 107.086 31.9065 107.311 31.9082C110.007 31.9641 112.24 32.937 114.168 34.8431C115.32 36.0703 116.002 37.3774 116.537 38.9673C116.571 39.0664 116.604 39.1655 116.639 39.2677C117.28 41.5868 116.742 44.2383 115.609 46.2991C115.254 46.9134 114.86 47.4656 114.382 47.9911C114.25 48.1416 114.25 48.1416 114.116 48.2952C112.85 49.6556 111.299 50.4314 109.534 50.9541C109.367 51.0039 109.367 51.0039 109.196 51.0546C106.628 51.6858 103.754 51.054 101.512 49.7335C99.465 48.3561 97.937 46.2885 97.3971 43.8638C96.9159 41.3068 97.153 38.4672 98.6245 36.2736C100.562 33.5182 103.48 31.8714 106.865 31.9048Z" fill="#AD080F"/>
<path d="M76.5352 25.4997C78.0908 25.4997 79.6463 25.4997 81.2491 25.4997C81.2935 29.0998 81.338 32.6999 81.3838 36.4091C82.407 35.2284 83.4278 34.0483 84.4341 32.8536C84.6206 32.6326 84.8077 32.4121 84.995 32.1918C85.5794 31.5037 86.1599 30.8135 86.729 30.1126C87.1764 29.5627 87.6396 29.0316 88.1137 28.5048C88.5119 28.0515 88.8894 27.5822 89.267 27.1117C89.3767 26.9797 89.4864 26.8478 89.5995 26.7118C89.6568 26.6084 89.7141 26.5049 89.7731 26.3983C90.0913 25.9102 90.3786 25.5635 90.9705 25.4369C91.8591 25.3461 92.7492 25.3896 93.64 25.4239C93.9141 25.43 94.1882 25.4355 94.4623 25.4405C95.1313 25.4538 95.7997 25.4747 96.4683 25.4997C96.3419 25.6697 96.2153 25.8395 96.0887 26.0093C96.0182 26.1039 95.9477 26.1985 95.8751 26.296C95.5587 26.71 95.2199 27.1023 94.8774 27.4947C94.3922 28.0552 93.9127 28.6186 93.4464 29.1951C92.894 29.8754 92.322 30.537 91.7466 31.1979C91.2073 31.8176 90.6725 32.4408 90.1444 33.07C89.8278 33.447 89.5082 33.8205 89.1828 34.1899C89.1145 34.2683 89.0462 34.3467 88.9758 34.4274C88.8453 34.5771 88.7138 34.7259 88.5811 34.8737C88.2182 35.2924 88.0343 35.5875 87.9833 36.1397C88.0814 36.4274 88.0814 36.4274 88.2621 36.6953C88.3264 36.8 88.3908 36.9048 88.457 37.0128C88.5285 37.1247 88.5999 37.2366 88.6735 37.3518C88.7467 37.47 88.8199 37.5881 88.8953 37.7099C89.1283 38.0854 89.3639 38.4594 89.5995 38.8334C89.8194 39.1873 90.0385 39.5417 90.2576 39.8962C90.4033 40.1317 90.5492 40.3671 90.6954 40.6023C91.2652 41.5199 91.8229 42.4443 92.3771 43.3713C93.2099 44.7638 94.0559 46.148 94.9111 47.5268C94.9895 47.6532 95.0679 47.7796 95.1486 47.9098C95.3004 48.1543 95.4523 48.3986 95.6044 48.6429C96.7377 50.467 96.7377 50.467 96.7377 50.8202C95.9928 50.8705 95.2488 50.9069 94.5026 50.9312C94.2494 50.9413 93.9963 50.9551 93.7435 50.9726C91.7097 51.1103 91.7097 51.1103 91.1262 50.6393C90.7314 50.1648 90.4868 49.6258 90.2509 49.0593C90.0926 48.695 89.8868 48.3685 89.6737 48.0339C89.6022 47.9166 89.5307 47.7993 89.4571 47.6785C89.3846 47.5597 89.3122 47.4408 89.2375 47.3184C89.1581 47.1881 89.0787 47.0577 88.9969 46.9234C88.6679 46.3835 88.3388 45.8436 88.0096 45.3038C86.9161 43.5105 85.8287 41.7137 84.7509 39.9108C84.1749 40.1689 83.8422 40.5692 83.4461 41.0472C83.3816 41.1235 83.3171 41.1998 83.2507 41.2785C83.1103 41.4451 82.973 41.6144 82.8382 41.7857C82.5959 42.0658 82.5959 42.0658 82.2776 42.3288C81.4592 43.0889 81.3101 43.7136 81.2488 44.8039C81.2267 45.6285 81.2311 46.4516 81.2407 47.2763C81.2403 47.62 81.2393 47.9636 81.2378 48.3073C81.2342 49.1452 81.2419 49.982 81.2491 50.8202C79.6935 50.8202 78.1379 50.8202 76.5352 50.8202C76.5352 42.4644 76.5352 34.1087 76.5352 25.4997Z" fill="#AE070E"/>
<path d="M135.165 31.905C135.325 31.906 135.485 31.9071 135.651 31.9081C137.904 31.9504 139.765 32.6308 141.422 34.1962C142.526 35.3983 142.999 36.7379 142.98 38.343C142.98 38.5462 142.98 38.5462 142.98 38.7535C142.98 39.1981 142.977 39.6425 142.974 40.0871C142.973 40.3965 142.973 40.706 142.972 41.0155C142.971 41.8277 142.967 42.6398 142.962 43.452C142.958 44.2817 142.956 45.1114 142.954 45.9411C142.95 47.5673 142.943 49.1935 142.934 50.8197C141.557 50.8197 140.179 50.8197 138.759 50.8197C138.715 50.2419 138.67 49.6641 138.625 49.0688C138.483 49.2077 138.341 49.3466 138.195 49.4897C136.463 50.996 134.14 51.386 131.914 51.2522C130.165 51.0823 128.66 50.3287 127.539 48.9835C126.605 47.6771 126.504 46.191 126.638 44.6242C126.991 43.1709 127.907 42.0216 129.155 41.215C131.932 39.7072 135.391 39.4324 138.49 39.1022C138.486 38.1745 138.404 37.4878 137.792 36.7663C136.864 35.9219 135.765 35.8089 134.557 35.8324C133.877 35.8821 133.405 36.0476 132.833 36.4085C132.69 36.4942 132.69 36.4942 132.544 36.5816C131.815 37.0673 131.446 37.6407 131.082 38.4288C130.313 38.2992 129.663 37.9822 128.961 37.6543C128.83 37.5963 128.699 37.5384 128.565 37.4786C128.441 37.4206 128.317 37.3626 128.189 37.3029C128.075 37.2509 127.962 37.1988 127.845 37.1452C127.58 36.9472 127.58 36.9472 127.465 36.6106C127.42 35.8263 128.138 35.1018 128.61 34.5198C129.243 33.8403 130.015 33.3712 130.813 32.9067C130.953 32.8252 130.953 32.8252 131.095 32.7421C132.385 32.0455 133.718 31.8921 135.165 31.905Z" fill="#AD080F"/>
<path d="M155.849 31.9049C155.991 31.9063 156.134 31.9076 156.281 31.9089C158.251 31.9536 159.635 32.6651 161.105 33.9368C162.969 35.8897 162.908 38.4592 162.895 40.9682C162.895 41.253 162.894 41.5377 162.894 41.8225C162.893 42.5675 162.89 43.3126 162.887 44.0576C162.885 44.8196 162.883 45.5817 162.882 46.3437C162.879 47.8357 162.874 49.3276 162.869 50.8196C161.358 50.8196 159.847 50.8196 158.29 50.8196C158.288 50.4573 158.286 50.0951 158.284 49.7218C158.277 48.5236 158.268 47.3253 158.258 46.1271C158.252 45.4007 158.247 44.6744 158.243 43.9481C158.239 43.2468 158.234 42.5456 158.227 41.8443C158.225 41.5771 158.223 41.3098 158.223 41.0426C158.221 40.6676 158.218 40.2928 158.213 39.9178C158.213 39.8078 158.214 39.6979 158.214 39.5846C158.196 38.4942 157.824 37.7187 157.076 36.9203C156.183 36.1123 155.226 36.0529 154.051 36.087C153.426 36.1554 153.004 36.3116 152.498 36.6778C152.357 36.7722 152.215 36.8667 152.069 36.964C151.277 37.6938 150.988 38.5613 150.937 39.6165C150.921 40.2381 150.92 40.8593 150.922 41.4812C150.92 41.751 150.918 42.0209 150.915 42.2907C150.91 42.997 150.909 43.7033 150.908 44.4096C150.907 45.1319 150.902 45.8542 150.897 46.5765C150.888 47.9909 150.884 49.4052 150.882 50.8196C149.415 50.8196 147.949 50.8196 146.438 50.8196C146.438 44.7305 146.438 38.6415 146.438 32.3679C147.815 32.3679 149.193 32.3679 150.613 32.3679C150.679 33.3013 150.679 33.3013 150.747 34.2535C150.878 34.0924 151.008 33.9313 151.143 33.7653C152.433 32.3019 153.943 31.8854 155.849 31.9049Z" fill="#AE0A11"/>
<path d="M177.55 32.2344C179.016 32.2344 180.483 32.2344 181.994 32.2344C181.994 38.3679 181.994 44.5014 181.994 50.8207C180.572 50.8207 179.15 50.8207 177.684 50.8207C177.64 50.1985 177.596 49.5762 177.55 48.9352C177.433 49.0935 177.316 49.2518 177.196 49.415C176.271 50.4711 174.764 51.1188 173.375 51.2248C171.265 51.3555 169.503 51.0225 167.827 49.6338C166.451 48.3407 165.634 46.516 165.551 44.6216C165.546 44.2987 165.546 43.976 165.548 43.6531C165.548 43.5308 165.548 43.4085 165.548 43.2825C165.548 42.8803 165.549 42.478 165.55 42.0758C165.55 41.7961 165.55 41.5164 165.55 41.2367C165.551 40.5021 165.552 39.7674 165.554 39.0328C165.555 38.2825 165.556 37.5323 165.556 36.7821C165.558 35.3111 165.56 33.8401 165.563 32.3691C167.03 32.3691 168.496 32.3691 170.007 32.3691C170.009 32.7163 170.01 33.0635 170.011 33.4212C170.016 34.5727 170.023 35.7241 170.032 36.8756C170.038 37.5732 170.042 38.2709 170.044 38.9685C170.046 39.6427 170.051 40.3169 170.057 40.991C170.059 41.2473 170.06 41.5036 170.06 41.7599C170.034 43.9981 170.034 43.9981 171.001 45.9637C172.134 46.8542 173.006 47.2154 174.452 47.0496C175.654 46.7249 176.395 46.2436 177.024 45.1844C177.603 43.9793 177.497 42.6678 177.497 41.3624C177.499 41.0985 177.501 40.8347 177.504 40.5709C177.51 39.8806 177.512 39.1902 177.515 38.4998C177.517 37.7938 177.523 37.0877 177.528 36.3817C177.538 34.9993 177.545 33.6168 177.55 32.2344Z" fill="#AD0910"/>
<path d="M187.246 28.0586C188.713 28.0586 190.18 28.0586 191.691 28.0586C191.691 29.4809 191.691 30.9031 191.691 32.3685C193.113 32.3685 194.535 32.3685 196.001 32.3685C196.001 33.6574 196.001 34.9463 196.001 36.2743C194.578 36.2743 193.156 36.2743 191.691 36.2743C191.699 37.804 191.699 37.804 191.712 39.3336C191.719 39.9581 191.725 40.5826 191.727 41.2072C191.729 41.7111 191.734 42.2149 191.74 42.7188C191.742 42.9104 191.743 43.102 191.744 43.2935C191.745 44.5561 191.808 45.4245 192.625 46.4261C193.301 46.9584 194.005 46.9671 194.831 46.9985C195.217 47.0152 195.603 47.0318 196.001 47.049C196.001 48.2935 196.001 49.5379 196.001 50.8201C193.899 51.1704 191.698 51.1866 189.83 50.0541C188.648 49.1841 187.969 48.1702 187.516 46.7796C187.469 46.638 187.422 46.4963 187.374 46.3504C187.149 45.4323 187.213 44.4736 187.22 43.5346C187.22 43.3248 187.221 43.1149 187.221 42.9051C187.222 42.356 187.225 41.8069 187.228 41.2578C187.23 40.6962 187.232 40.1346 187.233 39.573C187.236 38.4734 187.241 37.3739 187.246 36.2743C186.224 36.2743 185.202 36.2743 184.148 36.2743C184.148 34.9854 184.148 33.6965 184.148 32.3685C184.593 32.2796 185.037 32.1907 185.495 32.0991C186.204 31.8315 186.54 31.4862 186.977 30.887C187.096 30.5288 187.136 30.2835 187.154 29.9131C187.159 29.8157 187.164 29.7183 187.17 29.6179C187.178 29.4335 187.178 29.4335 187.187 29.2455C187.207 28.8538 187.226 28.4621 187.246 28.0586Z" fill="#AD070D"/>
<path d="M119.5 25.0957C120.967 25.0957 122.433 25.0957 123.945 25.0957C123.945 33.5848 123.945 42.0739 123.945 50.8203C122.478 50.8203 121.011 50.8203 119.5 50.8203C119.5 42.3312 119.5 33.8421 119.5 25.0957Z" fill="#AD080F"/>
<path d="M109.111 36.3745C110.513 37.2021 111.609 38.3443 112.042 39.9547C112.302 41.8125 112.122 43.6986 110.99 45.2399C110.213 46.1989 109.262 46.9295 108.004 47.0904C107.666 47.1086 107.331 47.1128 106.992 47.1087C106.873 47.1074 106.753 47.1061 106.631 47.1047C105.205 47.0659 104.29 46.6609 103.249 45.6724C101.913 44.0862 101.733 42.3086 101.857 40.3156C102.064 38.9305 102.917 37.6731 104.012 36.8138C105.539 35.9151 107.455 35.5732 109.111 36.3745Z" fill="#FDFBFB"/>
<path d="M138.489 42.6053C138.574 44.1028 138.423 45.1702 137.462 46.3512C136.506 47.3573 135.218 47.8436 133.843 47.9C133.019 47.8773 132.4 47.6582 131.772 47.1256C131.279 46.531 131.155 46.0953 131.174 45.3321C131.261 44.7135 131.626 44.3472 132.058 43.9269C133.032 43.2851 134.13 43.1415 135.262 42.9605C135.535 42.9167 135.807 42.871 136.08 42.8249C136.894 42.6915 137.662 42.5886 138.489 42.6053Z" fill="#FCF8F7"/>
<path d="M165.562 55.5342C166.082 55.5231 166.601 55.512 167.137 55.5005C167.381 55.4932 167.381 55.4932 167.629 55.4857C168.687 55.4747 168.687 55.4747 169.226 55.7731C169.589 56.2225 169.659 56.5801 169.603 57.1504C169.384 57.6134 169.384 57.6134 169.064 57.9585C168.708 58.0474 168.708 58.0474 168.391 58.0932C168.475 58.2052 168.56 58.3172 168.647 58.4325C168.758 58.5804 168.869 58.7282 168.98 58.876C169.036 58.9497 169.091 59.0234 169.148 59.0994C169.872 60.0627 169.872 60.0627 169.872 60.5175C169.503 60.5659 169.503 60.5659 169.064 60.5175C168.769 60.1829 168.769 60.1829 168.509 59.7431C168 58.8049 168 58.8049 167.13 58.2805C167.024 58.2742 166.918 58.268 166.808 58.2616C166.619 58.2504 166.431 58.2393 166.236 58.2279C166.236 58.9835 166.236 59.739 166.236 60.5175C166.014 60.5175 165.791 60.5175 165.562 60.5175C165.562 58.873 165.562 57.2285 165.562 55.5342Z" fill="#252525"/>
<path d="M193.171 55.5352C193.482 55.5352 193.793 55.5352 194.114 55.5352C194.304 56.0009 194.495 56.4667 194.686 56.9325C194.739 57.0625 194.793 57.1926 194.847 57.3266C194.955 57.5882 195.061 57.85 195.168 58.1119C195.272 58.3659 195.376 58.6196 195.481 58.8729C195.529 58.9899 195.577 59.1069 195.627 59.2274C195.691 59.382 195.691 59.382 195.756 59.5397C195.871 59.8634 195.94 60.1805 195.999 60.5185C195.732 60.5185 195.466 60.5185 195.191 60.5185C195.013 60.074 194.835 59.6295 194.652 59.1716C193.941 59.1272 193.23 59.0827 192.497 59.0369C192.456 59.2564 192.414 59.4758 192.371 59.7019C192.245 60.3669 192.245 60.3669 192.093 60.5185C191.824 60.5239 191.554 60.5242 191.285 60.5185C191.365 60.0707 191.474 59.6681 191.645 59.2468C191.69 59.1356 191.735 59.0244 191.781 58.9097C191.852 58.7352 191.852 58.7352 191.925 58.5571C191.973 58.4378 192.021 58.3185 192.071 58.1956C192.432 57.3063 192.797 56.419 193.171 55.5352Z" fill="#323232"/>
<path d="M148.321 55.5352C148.632 55.5352 148.943 55.5352 149.264 55.5352C149.393 55.8254 149.522 56.1156 149.651 56.4059C149.742 56.6099 149.833 56.8138 149.925 57.0172C150.246 57.7268 150.548 58.4442 150.847 59.1632C150.889 59.2654 150.932 59.3675 150.976 59.4728C151.284 60.2177 151.284 60.2177 151.284 60.5185C150.905 60.5605 150.905 60.5605 150.476 60.5185C150.06 60.0303 150.048 59.6978 149.937 59.0369C149.226 59.0369 148.515 59.0369 147.782 59.0369C147.649 59.5258 147.516 60.0147 147.378 60.5185C147.112 60.5185 146.845 60.5185 146.57 60.5185C146.667 59.8762 146.902 59.3074 147.143 58.7086C147.558 57.6582 147.949 56.6018 148.321 55.5352Z" fill="#2D2D2D"/>
<path d="M185.408 55.6184C185.799 55.9724 186.033 56.2942 186.3 56.7463C186.255 56.8352 186.211 56.9241 186.165 57.0157C185.854 57.0578 185.854 57.0578 185.492 57.0157C185.265 56.6874 185.265 56.6874 185.088 56.3423C184.619 56.1081 184.117 56.1282 183.606 56.2076C183.124 56.569 182.907 56.8361 182.798 57.4198C182.726 58.1847 182.752 58.7883 183.202 59.44C183.614 59.7949 183.808 59.8453 184.355 59.8357C184.858 59.6987 185.045 59.5793 185.357 59.1707C185.402 59.0373 185.446 58.904 185.492 58.7666C185.759 58.7666 186.025 58.7666 186.3 58.7666C186.263 59.2997 186.2 59.5342 185.845 59.9451C185.13 60.5579 184.684 60.5769 183.764 60.5585C183.2 60.5043 182.926 60.3859 182.529 59.9788C181.925 59.221 181.909 58.3992 181.938 57.4582C182.029 56.6823 182.298 56.287 182.874 55.7531C183.641 55.2418 184.589 55.2242 185.408 55.6184Z" fill="#2B2B2B"/>
<path d="M156.535 55.5352C157.646 55.5352 158.757 55.5352 159.902 55.5352C159.902 55.7129 159.902 55.8907 159.902 56.0739C159.013 56.0739 158.124 56.0739 157.209 56.0739C157.209 56.5628 157.209 57.0517 157.209 57.5554C158.009 57.5554 158.809 57.5554 159.633 57.5554C159.633 57.7776 159.633 57.9999 159.633 58.2288C158.877 58.2288 158.122 58.2288 157.343 58.2288C157.343 58.9844 157.343 59.74 157.343 60.5185C157.077 60.5185 156.81 60.5185 156.535 60.5185C156.535 58.874 156.535 57.2295 156.535 55.5352Z" fill="#2C2C2C"/>
<path d="M166.234 56.0738C166.56 56.0628 166.885 56.0548 167.211 56.0485C167.303 56.0451 167.395 56.0417 167.489 56.0382C167.93 56.0318 168.208 56.0454 168.589 56.2774C168.657 56.3435 168.724 56.4097 168.793 56.4778C168.76 56.9324 168.76 56.9324 168.659 57.4206C168.197 57.7737 167.704 57.7172 167.143 57.7068C166.973 57.7044 166.803 57.7019 166.628 57.6994C166.498 57.6963 166.368 57.6932 166.234 57.69C166.234 57.1566 166.234 56.6233 166.234 56.0738Z" fill="#F0F0F0"/>
<path d="M175.527 55.5352C175.75 55.5352 175.972 55.5352 176.201 55.5352C176.201 57.1796 176.201 58.8241 176.201 60.5185C175.979 60.5185 175.756 60.5185 175.527 60.5185C175.527 58.874 175.527 57.2295 175.527 55.5352Z" fill="#252525"/>
<path d="M193.576 56.3418C193.818 56.7055 193.971 57.0242 194.131 57.4277C194.179 57.5459 194.226 57.6641 194.275 57.786C194.384 58.0927 194.384 58.0927 194.384 58.3621C193.895 58.3621 193.406 58.3621 192.902 58.3621C193.049 57.6199 193.201 57.007 193.576 56.3418Z" fill="#EDEDED"/>
<path d="M148.726 56.207C149.117 56.4023 149.137 56.6522 149.282 57.0572C149.329 57.1873 149.377 57.3173 149.426 57.4513C149.534 57.8232 149.534 57.8232 149.534 58.362C149.09 58.362 148.645 58.362 148.188 58.362C148.344 57.6346 148.514 56.9201 148.726 56.207Z" fill="#EBEBEB"/>
<path d="M33.3789 17.7645C33.9881 18.1223 34.4452 18.6324 34.9262 19.1433C35.1294 19.3549 35.333 19.5662 35.537 19.7772C35.6361 19.88 35.7353 19.9827 35.8375 20.0885C36.1907 20.4414 36.5633 20.7651 36.9424 21.0897C37.5079 21.5887 38.0264 22.1374 38.5542 22.6756C38.9906 23.1171 39.4306 23.5446 39.901 23.9498C40.5657 24.5223 41.1728 25.1475 41.7866 25.7733C42.2216 26.2134 42.6601 26.6396 43.1292 27.0433C43.8262 27.6436 44.4618 28.302 45.1058 28.9578C45.6447 29.5026 46.1957 30.0189 46.7765 30.5185C47.31 30.9912 47.8009 31.5077 48.2993 32.0166C48.7183 32.4409 49.1422 32.8496 49.5941 33.2388C50.2599 33.8129 50.8686 34.4392 51.4838 35.0665C52.593 36.1897 52.593 36.1897 53.8576 37.1262C54.4272 37.5196 54.8426 37.919 55.1203 38.563C55.5168 40.8426 55.2499 43.467 54.7163 45.7012C54.6761 45.8748 54.6761 45.8748 54.6352 46.0519C53.6196 50.3453 51.5559 54.2097 48.5208 57.4187C48.3629 57.6004 48.2057 57.7828 48.0494 57.9659C47.1542 58.9884 46.1849 59.887 45.12 60.7305C44.932 60.8821 44.7461 61.0362 44.5609 61.1913C43.6968 61.9114 42.8094 62.5655 41.8708 63.1848C41.7303 63.2777 41.5898 63.3706 41.4451 63.4662C34.2466 68.1777 34.2466 68.1777 31.7506 68.1971C31.0873 68.0015 30.4645 67.7424 29.8334 67.4611C29.6968 67.4007 29.5602 67.3404 29.4195 67.2782C24.863 65.2381 20.6053 62.5018 17.0048 59.0349C16.9343 58.9673 16.8638 58.8997 16.7911 58.8301C15.8462 57.9203 14.9773 56.9788 14.1765 55.9372C14.119 55.8631 14.0616 55.789 14.0025 55.7127C12.5735 53.8594 11.3969 51.9235 10.54 49.7417C10.4771 49.5912 10.4771 49.5912 10.4129 49.4377C9.4601 47.1362 8.9917 44.6735 8.78912 42.1994C8.77466 42.0463 8.76021 41.8932 8.74532 41.7355C8.49682 38.8414 8.49682 38.8414 9.11425 38.04C9.46712 37.6837 9.86654 37.4079 10.2836 37.132C10.7484 36.7963 11.1297 36.3751 11.5249 35.9619C11.986 35.4887 12.4525 35.0323 12.9533 34.6009C13.5241 34.1078 14.0525 33.5792 14.5805 33.041C15.1893 32.4203 15.8074 31.8274 16.4661 31.2601C16.9361 30.8424 17.3728 30.392 17.8129 29.9432C18.3359 29.4101 18.8585 28.8859 19.4249 28.3986C20.018 27.8878 20.5645 27.3363 21.1127 26.7782C21.7461 26.1332 22.3868 25.513 23.0722 24.9234C23.5169 24.5294 23.9293 24.1044 24.3451 23.6804C24.9242 23.0951 25.5038 22.5275 26.1339 21.9969C26.6818 21.503 27.1925 20.9702 27.7114 20.4462C28.2247 19.9298 28.7442 19.4324 29.3026 18.9644C29.555 18.7429 29.7803 18.504 30.0102 18.2594C31.0132 17.2496 32.1479 17.1968 33.3789 17.7645Z" fill="#AE070D"/>
<path d="M42.5444 2.07303C42.6677 2.11225 42.7911 2.15146 42.9181 2.19186C45.5732 3.03858 48.1932 3.96647 50.7986 4.95515C51.1914 5.10415 51.5843 5.25258 51.9773 5.40093C56.0198 6.9295 56.0198 6.9295 57.9564 7.8643C58.1356 7.95082 58.3151 8.03681 58.4948 8.12236C60.6385 9.14471 62.5646 10.2239 63.4746 12.5494C63.8965 13.9168 63.9121 15.1953 63.906 16.612C63.9059 16.8597 63.9059 17.1074 63.906 17.3551C63.9059 18.0292 63.9039 18.7034 63.9016 19.3775C63.9002 19.8017 63.8993 20.2259 63.8986 20.65C63.8947 22.8053 63.8858 24.9605 63.875 27.1158C63.8741 27.28 63.8733 27.4443 63.8725 27.6135C63.861 29.9592 63.846 32.305 63.828 34.6507C63.8245 35.1346 63.8213 35.6185 63.8182 36.1025C63.8133 36.8717 63.807 37.6409 63.7998 38.4101C63.7974 38.6912 63.7953 38.9723 63.7937 39.2534C63.7336 49.3487 60.0072 57.6158 52.8682 64.6773C52.4102 65.1023 51.9263 65.4921 51.4383 65.8821C51.1244 66.1379 50.8287 66.403 50.5328 66.6791C48.9811 68.0726 47.1721 69.219 45.4233 70.3492C45.291 70.4354 45.1587 70.5215 45.0224 70.6102C43.5423 71.5475 41.9873 72.3582 40.44 73.1776C40.3394 73.2311 40.2388 73.2847 40.1352 73.3398C33.1281 77.0463 33.1281 77.0463 31.0353 76.4331C30.5969 76.2746 30.1647 76.1052 29.7326 75.9302C29.5765 75.8684 29.4204 75.8066 29.2596 75.7429C28.0807 75.2731 26.9113 74.7876 25.7595 74.2551C25.6522 74.2058 25.5448 74.1566 25.4343 74.1059C22.0473 72.5455 18.7762 70.7102 15.7929 68.4637C15.718 68.4073 15.643 68.3509 15.5659 68.2928C15.054 67.9057 14.5475 67.5121 14.042 67.1168C13.9305 67.0318 13.8191 66.9467 13.7042 66.859C11.4615 65.1197 9.31195 63.0321 7.57717 60.7867C7.43868 60.6116 7.30013 60.4366 7.16154 60.2616C5.01507 57.5296 3.23827 54.4994 2.05514 51.2242C2.01367 51.1166 1.97219 51.0091 1.92946 50.8983C1.57277 49.958 1.31648 49.0144 1.09552 48.0338C1.06059 47.8802 1.02566 47.7266 0.98967 47.5684C0.732596 46.4101 0.535935 45.2687 0.438933 44.0859C0.428243 43.9647 0.417555 43.8436 0.406541 43.7187C0.290855 42.2903 0.27676 40.8664 0.26637 39.4341C0.263968 39.166 0.261503 38.8978 0.258984 38.6297C0.253753 38.064 0.248843 37.4982 0.244204 36.9324C0.232104 35.462 0.217998 33.9915 0.203763 32.521C0.202384 32.3769 0.201008 32.2328 0.199587 32.0843C0.178082 29.8553 0.143839 27.6271 0.0938065 25.3986C0.0468764 23.2366 0.0175276 21.075 0.0111459 18.9126C0.0101541 18.6072 0.00873335 18.3018 0.00683017 17.9964C-0.0243984 12.5567 -0.0243984 12.5567 1.78577 10.415C2.64147 9.63641 3.5596 9.05725 4.58887 8.53785C4.78942 8.43508 4.78942 8.43508 4.99401 8.33023C6.74905 7.4429 8.55533 6.678 10.4018 6.00263C11.1309 5.73582 11.8496 5.44606 12.5689 5.15392C13.5054 4.77552 14.4428 4.43191 15.4041 4.12117C16.0171 3.92299 16.6245 3.70929 17.2323 3.49563C17.3457 3.45588 17.4592 3.41614 17.576 3.37518C18.1551 3.17206 18.7336 2.96752 19.3115 2.76118C20.6247 2.29391 21.9405 1.86435 23.2814 1.48379C23.6468 1.3791 24.0113 1.27167 24.3758 1.16392C31.1889 -0.847814 35.8373 -0.0618571 42.5444 2.07303ZM20.3477 6.11106C19.9068 6.25955 19.4657 6.40733 19.0241 6.55357C18.1245 6.85152 17.2277 7.15353 16.34 7.48563C16.2343 7.52502 16.1285 7.56441 16.0195 7.60499C15.7923 7.68964 15.5652 7.77441 15.3381 7.8593C14.9759 7.99401 14.6129 8.12664 14.2498 8.25901C11.4388 9.2897 8.62131 10.3817 5.95255 11.745C5.84053 11.801 5.72852 11.8569 5.61311 11.9146C4.79483 12.3481 4.21411 12.8833 3.76394 13.6979C3.49082 14.7407 3.51678 15.8257 3.51877 16.8956C3.51864 17.0531 3.51851 17.2106 3.51838 17.3729C3.51829 17.7073 3.51854 18.0417 3.5191 18.3761C3.5198 18.8696 3.51911 19.363 3.51824 19.8565C3.51778 21.4994 3.5381 23.1396 3.59214 24.7816C3.66453 26.9837 3.69022 29.185 3.70449 31.3883C3.70561 31.5534 3.70673 31.7185 3.70788 31.8887C3.71834 33.434 3.72787 34.9793 3.73556 36.5246C3.73987 37.3797 3.74543 38.2349 3.75175 39.09C3.75388 39.4109 3.75555 39.7318 3.75672 40.0527C3.76588 42.5255 3.8739 44.896 4.49628 47.3015C4.53735 47.4623 4.57842 47.6231 4.62074 47.7888C5.2045 49.996 6.10052 52.0427 7.17312 54.0525C7.25576 54.2098 7.3384 54.3671 7.42354 54.5292C8.12269 55.809 8.96813 56.9481 9.86679 58.093C9.96645 58.2217 10.0661 58.3503 10.1688 58.4829C13.0342 62.0889 16.614 65.0542 20.5077 67.4877C20.6757 67.5928 20.8434 67.6985 21.0105 67.8051C23.6702 69.5012 26.5681 70.9046 29.4819 72.1027C29.7676 72.2214 30.0504 72.3449 30.3329 72.471C30.4821 72.5348 30.6312 72.5985 30.7849 72.6641C30.9038 72.716 31.0227 72.7679 31.1452 72.8214C32.4828 73.1077 33.6501 72.5064 34.8422 71.9654C35.0233 71.8847 35.2045 71.8042 35.3857 71.7237C35.9044 71.4926 36.4213 71.2577 36.9382 71.0227C37.0658 70.9655 37.1934 70.9084 37.3249 70.8496C40.1877 69.5678 42.8476 67.9573 45.4233 66.174C45.5148 66.1114 45.6062 66.0487 45.7005 65.9841C46.8826 65.1728 47.9795 64.2876 49.0597 63.3457C49.1608 63.2598 49.2618 63.1738 49.3659 63.0853C50.0629 62.4888 50.7066 61.8447 51.3494 61.1908C52.0228 60.5173 52.0228 60.5173 52.2506 60.3037C53.631 58.9819 54.7416 57.3908 55.7939 55.8034C55.8806 55.6748 55.9672 55.5461 56.0565 55.4136C57.5093 53.1651 58.5492 50.6901 59.2957 48.1264C59.3236 48.032 59.3515 47.9375 59.3802 47.8402C60.1421 45.2067 60.2988 42.5506 60.3027 39.8239C60.3046 39.5083 60.3067 39.1926 60.309 38.877C60.3146 38.0498 60.318 37.2227 60.3208 36.3956C60.3256 35.0902 60.3339 33.7849 60.3419 32.4796C60.3438 32.1568 60.3456 31.8341 60.3474 31.5114C60.3621 28.8338 60.4085 26.1578 60.4693 23.481C60.4735 23.2933 60.4735 23.2933 60.4779 23.1018C60.482 22.9196 60.482 22.9196 60.4862 22.7338C60.5154 21.4292 60.5329 20.1248 60.5328 18.8198C60.5331 18.4701 60.5357 18.1205 60.5381 17.7708C60.6376 15.1716 60.6376 15.1716 59.7282 12.8425C56.4974 9.88571 50.3644 8.40867 46.2889 7.02529C45.9067 6.89425 45.5267 6.75772 45.1467 6.62042C35.7544 3.23835 29.841 2.91275 20.3477 6.11106Z" fill="#AD080F"/>
<path d="M35.3205 30.3477C35.5174 30.4095 35.5174 30.4095 35.7183 30.4726C37.363 30.9941 38.9914 31.5494 40.59 32.1996C40.7071 32.247 40.8241 32.2944 40.9447 32.3433C42.4383 32.9661 43.7938 33.5928 44.4708 35.1377C44.7559 36.0607 44.7099 37.0162 44.7032 37.9731C44.7036 38.2028 44.7043 38.4324 44.7051 38.6621C44.7061 39.1423 44.7047 39.6224 44.7015 40.1027C44.6977 40.7096 44.6999 41.3163 44.7038 41.9233C44.7301 46.7424 44.0118 50.584 40.6069 54.212C38.6183 56.1074 34.9908 58.7558 32.1497 58.7091C30.5861 58.4476 28.9841 57.5633 27.6436 56.7457C27.4545 56.6306 27.4545 56.6306 27.2616 56.5132C24.6132 54.824 22.483 52.6079 21.1956 49.7253C21.1587 49.6434 21.1218 49.5615 21.0837 49.4772C20.3651 47.7843 20.3067 46.1496 20.3075 44.3406C20.3066 44.0801 20.3055 43.8196 20.3044 43.559C20.3026 43.0158 20.3024 42.4726 20.3032 41.9293C20.304 41.2355 20.2998 40.5419 20.2944 39.8481C20.2909 39.3112 20.2905 38.7742 20.291 38.2373C20.2908 37.9815 20.2895 37.7258 20.2871 37.47C20.2652 34.8543 20.2652 34.8543 21.0441 33.9841C24.1754 31.018 31.319 29.0805 35.3205 30.3477Z" fill="#FDFAFA"/>
<path d="M38.9588 9.87609C39.2727 9.97961 39.5866 10.0831 39.9005 10.1865C40.7999 10.4837 41.698 10.7845 42.5953 11.0882C42.707 11.1261 42.8188 11.1639 42.934 11.2029C44.292 11.6651 45.6236 12.1832 46.953 12.7218C47.4538 12.9245 47.9569 13.1198 48.4624 13.3105C50.023 13.9088 51.5681 14.5481 53.0669 15.2887C53.1519 15.3302 53.2368 15.3718 53.3243 15.4146C53.7451 15.6271 54.1537 15.8575 54.5505 16.1121C54.6245 16.159 54.6985 16.2059 54.7748 16.2543C55.5531 17.0693 55.4451 18.1153 55.4344 19.1677C55.4342 19.3396 55.434 19.5115 55.4338 19.6887C55.4331 20.1522 55.4299 20.6158 55.426 21.0793C55.4232 21.4623 55.4218 21.8454 55.4205 22.2284C55.4091 25.3398 55.3555 28.4503 55.2555 31.5602C54.6594 31.0541 54.071 30.5415 53.4962 30.0113C53.4223 29.9432 53.3484 29.8751 53.2723 29.805C52.6149 29.1944 51.9799 28.5628 51.3526 27.9216C50.9655 27.5285 50.571 27.1541 50.1528 26.7942C49.4528 26.1895 48.8129 25.5281 48.1652 24.8686C47.6263 24.3238 47.0753 23.8076 46.4945 23.3079C45.961 22.8353 45.4701 22.3188 44.9717 21.8098C44.5541 21.387 44.1318 20.9796 43.6811 20.5919C42.983 19.9899 42.3458 19.3304 41.7003 18.6731C41.161 18.1279 40.6093 17.6114 40.0279 17.1113C39.5914 16.7239 39.1892 16.304 38.782 15.8864C36.8605 13.9491 34.8709 12.414 32.031 12.3846C29.4018 12.4174 27.5637 13.5994 25.7598 15.3981C25.6502 15.5073 25.5407 15.6165 25.4278 15.729C25.2377 15.9198 25.0486 16.1117 24.8612 16.3051C24.5958 16.5634 24.3252 16.8045 24.0447 17.0459C23.4424 17.5687 22.884 18.1291 22.3254 18.6979C21.78 19.2532 21.2366 19.8023 20.646 20.3099C20.0288 20.8409 19.4615 21.4173 18.8909 21.9976C18.2328 22.667 17.5695 23.3144 16.8575 23.9263C16.4382 24.2965 16.0494 24.6956 15.6585 25.0954C15.1833 25.5814 14.7051 26.0534 14.1896 26.4969C13.5941 27.0109 13.0444 27.5647 12.4934 28.1257C11.8546 28.7763 11.2084 29.4028 10.5171 29.9974C10.174 30.2986 9.85764 30.6189 9.53883 30.9457C9.33648 31.153 9.13238 31.3586 8.92433 31.5602C8.87989 31.5602 8.83544 31.5602 8.78965 31.5602C8.66569 28.6976 8.62571 25.8383 8.62261 22.9733C8.62185 22.3836 8.61858 21.7939 8.6148 21.2042C8.6123 20.744 8.61159 20.2838 8.61139 19.8236C8.61098 19.6058 8.60991 19.3881 8.60813 19.1704C8.60583 18.8687 8.60608 18.5671 8.60696 18.2654C8.60647 18.0948 8.60597 17.9241 8.60547 17.7483C8.66947 17.1475 8.84538 16.6789 9.28787 16.2578C12.1939 14.4194 15.512 13.2927 18.7074 12.07C19.0605 11.9346 19.4131 11.7982 19.7653 11.6607C21.4437 11.0143 23.1568 10.4627 24.8654 9.90227C25.1721 9.80167 25.4786 9.70079 25.785 9.59949C30.8255 7.93554 33.9341 8.20415 38.9588 9.87609Z" fill="#AE070E"/>
<path d="M34.1094 43.9512C36.4205 43.9512 38.7317 43.9512 41.1129 43.9512C41.1129 47.1121 40.6363 49.0069 38.5539 51.3588C38.481 51.443 38.4081 51.5272 38.333 51.6139C37.2714 52.7586 35.7628 53.753 34.3787 54.4565C34.2899 54.4565 34.201 54.4565 34.1094 54.4565C34.1094 50.9897 34.1094 47.523 34.1094 43.9512Z" fill="#AE0B12"/>
<path d="M23.7383 43.9512C26.0495 43.9512 28.3606 43.9512 30.7418 43.9512C30.7418 47.3735 30.7418 50.7958 30.7418 54.3218C28.497 53.8728 26.4147 51.787 25.1693 49.953C23.9046 48.0213 23.7383 46.273 23.7383 43.9512Z" fill="#AD0B11"/>
<path d="M30.7418 33.7148C30.7418 35.9816 30.7418 38.2483 30.7418 40.5837C28.4307 40.5837 26.1195 40.5837 23.7383 40.5837C23.7383 39.117 23.7383 37.6503 23.7383 36.1392C26.6721 34.8603 26.6721 34.8603 27.7998 34.5103C28.4238 34.3115 29.0345 34.0746 29.647 33.8432C30.0684 33.7148 30.0684 33.7148 30.7418 33.7148Z" fill="#AD0A11"/>
<path d="M34.1094 33.7148C35.1719 33.8666 35.1719 33.8666 35.6824 34.0358C35.7954 34.0731 35.9083 34.1103 36.0246 34.1488C36.1426 34.1889 36.2606 34.229 36.3822 34.2704C36.5055 34.312 36.6289 34.3535 36.756 34.3963C37.9157 34.793 39.0449 35.2505 40.1701 35.7351C40.4813 35.8684 40.7924 36.0018 41.1129 36.1392C41.1129 37.6059 41.1129 39.0726 41.1129 40.5837C38.8018 40.5837 36.4906 40.5837 34.1094 40.5837C34.1094 38.317 34.1094 36.0503 34.1094 33.7148Z" fill="#AD0910"/>
<path d="M38.8232 50.9551C38.8677 51.0884 38.9121 51.2218 38.9579 51.3591C38.4641 51.853 37.9702 52.3468 37.4764 52.8406C37.3875 52.7073 37.2986 52.574 37.207 52.4366C37.3011 52.3522 37.3952 52.2678 37.4922 52.1809C37.6148 52.0708 37.7373 51.9608 37.8636 51.8474C38.0464 51.6833 38.0464 51.6833 38.2329 51.5159C38.4339 51.3334 38.6313 51.147 38.8232 50.9551Z" fill="#FCE7E5"/>
<path d="M52.9644 50.6855C53.0088 50.6855 53.0532 50.6855 53.099 50.6855C53.099 50.9078 53.099 51.13 53.099 51.359C52.9657 51.4034 52.8324 51.4479 52.695 51.4936C52.695 51.7603 52.695 52.027 52.695 52.3018C52.5172 52.3462 52.3394 52.3906 52.1562 52.4364C52.3834 51.8306 52.6703 51.2608 52.9644 50.6855Z" fill="#F9D7D9"/>
</svg>
