<svg width="24" height="24" viewBox="0 0 24 24" fill="none" xmlns="http://www.w3.org/2000/svg">
<path d="M22.9998 15.3695V17.5595C22.9998 19.9995 21.2198 22.2995 18.7998 22.9695C18.6298 23.0095 18.4498 23.0095 18.2898 22.9695C17.1098 22.6495 16.0698 21.9295 15.3398 20.9995C14.5498 20.0195 14.0898 18.8095 14.0898 17.5595V15.3695C14.0898 14.9495 14.3998 14.4895 14.7798 14.3295L17.5598 13.1895C18.1898 12.9395 18.8898 12.9395 19.5198 13.1895L20.5198 13.5995L22.3098 14.3295C22.6898 14.4895 22.9998 14.9495 22.9998 15.3695Z" fill="#AE070D"/>
<path d="M20.9493 11.0093L20.7693 12.0793L20.0693 11.7993C19.0793 11.3993 17.9993 11.3993 16.9893 11.7993L14.1993 12.9493C13.2493 13.3493 12.5893 14.3393 12.5893 15.3693V17.5593C12.5893 18.7493 12.9193 19.9393 13.5293 20.9993H6.1793C4.8093 20.9993 3.5193 19.9093 3.2893 18.5593L2.0293 11.0093C1.8693 10.0793 2.3393 8.8293 3.0793 8.2393L9.6593 2.9793C10.6693 2.1693 12.3093 2.1693 13.3193 2.9893L19.8993 8.2393C20.6293 8.8293 21.1093 10.0793 20.9493 11.0093Z" fill="#AE070D"/>
</svg>
