<svg width="32" height="31" viewBox="0 0 32 31" fill="none" xmlns="http://www.w3.org/2000/svg">
<path fill-rule="evenodd" clip-rule="evenodd" d="M16.4751 0.0927751C16.3265 0.025199 16.1652 -0.00976562 16.0019 -0.00976562C15.8387 -0.00976563 15.6774 0.025199 15.5288 0.0927751L9.53337 2.82192L15.9974 5.76592L22.4659 2.81963L16.4751 0.0927751ZM8.45909 11.8231V4.84249L14.8591 7.75678V15.4711L9.12423 12.8631C8.92457 12.7723 8.75526 12.6259 8.63651 12.4415C8.51776 12.2571 8.45458 12.0424 8.45452 11.8231H8.45909ZM17.1448 27.1648V19.5305L23.2065 22.2916V30.0059L17.4785 27.3979C17.3534 27.341 17.2419 27.2621 17.1448 27.1648ZM25.4922 30.0105V22.2916L31.8991 19.3751V26.3579C31.899 26.5773 31.8358 26.7919 31.7171 26.9764C31.5983 27.1608 31.429 27.3071 31.2294 27.3979L25.4922 30.0105ZM14.8545 19.5305V27.1739C14.7594 27.267 14.6488 27.3429 14.5277 27.3979L8.79052 30.0105V22.2916L14.8545 19.5305ZM6.5048 22.2916V30.0059L0.779089 27.3979C0.57943 27.3071 0.410119 27.1608 0.291366 26.9764C0.172613 26.7919 0.109436 26.5773 0.109375 26.3579V19.3773L6.50937 22.2916H6.5048ZM17.1402 15.4756V7.75449L23.5471 4.83792V11.8231C23.547 12.0424 23.4839 12.2571 23.3651 12.4415C23.2463 12.6259 23.077 12.7723 22.8774 12.8631L17.1402 15.4756ZM23.8785 14.6299C24.0271 14.5623 24.1884 14.5274 24.3517 14.5274C24.5149 14.5274 24.6762 14.5623 24.8248 14.6299L30.8134 17.3545L24.3448 20.3008L17.8877 17.3545L23.8808 14.6253L23.8785 14.6299ZM7.17909 14.6299C7.32767 14.5623 7.489 14.5274 7.65223 14.5274C7.81546 14.5274 7.97679 14.5623 8.12537 14.6299L14.1139 17.3545L7.64766 20.3031L1.18595 17.3545L7.17909 14.6299Z" fill="#4963E0"/>
</svg>
