<svg width="32" height="32" viewBox="0 0 32 32" fill="none" xmlns="http://www.w3.org/2000/svg">
<path d="M22.0013 17.7162C18.7013 14.0949 14.668 16.7669 14.668 20.5322C14.668 23.9456 17.0866 25.9122 19.1453 27.5882L19.204 27.6362L19.7733 28.1029C20.5346 28.7362 21.268 29.3336 22.0013 29.3336C22.7346 29.3336 23.468 28.7362 24.2293 28.1029C26.3866 26.3069 29.3346 24.2989 29.3346 20.5322C29.3346 19.2962 28.9 18.1762 28.1973 17.3589C26.764 15.6909 24.2173 15.2842 22.0013 17.7162Z" fill="#D30008"/>
<path d="M10.8093 24.3295C7.0653 21.4442 2.66797 18.0562 2.66797 12.1829C2.66797 5.69885 10.0013 1.10018 16.0013 7.33485C22.0013 1.10018 29.3346 5.69885 29.3346 12.1829C29.3346 13.2949 29.1773 14.3162 28.896 15.2628C27.9093 14.4573 26.6776 14.012 25.404 14.0002C24.2173 13.9935 23.06 14.3655 22 15.0802C20.1466 13.8362 18.0586 13.6695 16.2266 14.5535C14.0466 15.6069 12.668 17.9615 12.668 20.5322C12.668 23.6068 14.2 25.7628 15.7906 27.3255C14.5266 27.2242 13.2613 26.2482 11.9506 25.2148C11.5813 24.9228 11.1986 24.6282 10.8093 24.3295Z" fill="#D30008"/>
</svg>
