<svg width="34" height="28" viewBox="0 0 34 28" fill="none" xmlns="http://www.w3.org/2000/svg">
<path d="M5.1 12.125C6.97531 12.125 8.5 10.4434 8.5 8.375C8.5 6.30664 6.97531 4.625 5.1 4.625C3.22469 4.625 1.7 6.30664 1.7 8.375C1.7 10.4434 3.22469 12.125 5.1 12.125ZM28.9 12.125C30.7753 12.125 32.3 10.4434 32.3 8.375C32.3 6.30664 30.7753 4.625 28.9 4.625C27.0247 4.625 25.5 6.30664 25.5 8.375C25.5 10.4434 27.0247 12.125 28.9 12.125ZM30.6 14H27.2C26.265 14 25.4203 14.416 24.8041 15.0898C26.945 16.3848 28.4644 18.7227 28.7938 21.5H32.3C33.2403 21.5 34 20.6621 34 19.625V17.75C34 15.6816 32.4753 14 30.6 14ZM17 14C20.2884 14 22.95 11.0645 22.95 7.4375C22.95 3.81055 20.2884 0.875 17 0.875C13.7116 0.875 11.05 3.81055 11.05 7.4375C11.05 11.0645 13.7116 14 17 14ZM21.08 15.875H20.6391C19.5341 16.4609 18.3069 16.8125 17 16.8125C15.6931 16.8125 14.4713 16.4609 13.3609 15.875H12.92C9.54125 15.875 6.8 18.8984 6.8 22.625V24.3125C6.8 25.8652 7.94219 27.125 9.35 27.125H24.65C26.0578 27.125 27.2 25.8652 27.2 24.3125V22.625C27.2 18.8984 24.4587 15.875 21.08 15.875ZM9.19594 15.0898C8.57969 14.416 7.735 14 6.8 14H3.4C1.52469 14 0 15.6816 0 17.75V19.625C0 20.6621 0.759687 21.5 1.7 21.5H5.20094C5.53563 18.7227 7.055 16.3848 9.19594 15.0898Z" fill="#FF5F00"/>
</svg>
