<svg width="42" height="42" viewBox="0 0 42 42" fill="none" xmlns="http://www.w3.org/2000/svg">
<path d="M32.2693 19.5126C31.5894 17.9844 30.6038 16.6117 29.3731 15.4789L28.3493 14.5514C28.3152 14.5197 28.2737 14.4971 28.2286 14.4855C28.1835 14.4739 28.1362 14.4738 28.091 14.4851C28.0459 14.4964 28.0042 14.5187 27.9699 14.5502C27.9355 14.5816 27.9096 14.6211 27.8943 14.6651L27.4393 15.9689C27.0957 16.8885 26.5721 17.7303 25.8993 18.4451C25.8634 18.4857 25.8133 18.5107 25.7593 18.5151C25.7308 18.5201 25.7014 18.5179 25.674 18.5088C25.6465 18.4996 25.6217 18.4838 25.6018 18.4626C25.5574 18.4187 25.5323 18.3589 25.5318 18.2964C25.5572 15.8093 24.8972 13.3632 23.6243 11.2264C22.5505 9.1555 20.9202 7.42524 18.9168 6.23015L17.4993 5.3814C17.4559 5.35629 17.4066 5.34329 17.3564 5.34376C17.3063 5.34424 17.2572 5.35817 17.2143 5.38409C17.1714 5.41002 17.1362 5.447 17.1125 5.49116C17.0887 5.53532 17.0773 5.58505 17.0793 5.63515L17.1581 7.31515C17.2286 8.33469 17.0947 9.35804 16.7643 10.3251C16.1003 12.0924 14.9545 13.6383 13.4568 14.7876C11.9859 15.9246 10.7897 17.378 9.95683 19.0401C9.12409 20.7181 8.68991 22.5657 8.68808 24.4389C8.672 26.0728 8.99062 27.6928 9.62433 29.1989C10.9241 32.1904 13.3495 34.5498 16.3757 35.7665C19.4019 36.9832 22.7856 36.9594 25.7943 35.7001C28.7457 34.4697 31.1045 32.1422 32.3743 29.2076C33.0282 27.673 33.3587 26.02 33.3451 24.3519C33.3316 22.6839 32.9743 21.0365 32.2956 19.5126H32.2693ZM27.9993 31.3864C26.1257 33.2374 23.5981 34.2754 20.9643 34.2754C18.3306 34.2754 15.803 33.2374 13.9293 31.3864C12.477 29.9417 11.5163 28.0766 11.1834 26.0553C10.8504 24.0341 11.1621 21.9593 12.0743 20.1251C12.7382 18.7811 13.695 17.6031 14.8743 16.6776C15.6322 16.0979 16.3194 15.4313 16.9218 14.6914C17.7867 13.643 18.4753 12.4609 18.9606 11.1914C19.1539 10.6641 19.2945 10.1189 19.3806 9.5639C20.2485 10.3759 20.9732 11.3284 21.5243 12.3814C22.5787 14.1291 23.1326 16.1328 23.1256 18.1739C23.1071 18.5378 23.1646 18.9015 23.2943 19.2419C23.4241 19.5823 23.6233 19.892 23.8792 20.1513C24.1352 20.4106 24.4423 20.6137 24.7811 20.7478C25.1198 20.8819 25.4828 20.944 25.8468 20.9301C26.1819 20.9074 26.5091 20.8183 26.8096 20.6681C27.11 20.5179 27.3776 20.3096 27.5968 20.0551C28.0743 19.5615 28.5022 19.0223 28.8743 18.4451C29.3672 19.0702 29.7788 19.7553 30.0993 20.4839C30.9004 22.2989 31.1286 24.3152 30.7533 26.2634C30.3781 28.2115 29.4173 29.9988 27.9993 31.3864Z" fill="black"/>
<path d="M23.2385 28.796C23.1018 28.4943 22.9053 28.2234 22.661 27.9998L22.4597 27.816C22.4549 27.8088 22.4484 27.8029 22.4408 27.7988C22.4332 27.7947 22.4246 27.7925 22.416 27.7925C22.4073 27.7925 22.3988 27.7947 22.3912 27.7988C22.3835 27.8029 22.377 27.8088 22.3722 27.816L22.276 28.0785C22.2118 28.2627 22.1072 28.4301 21.9697 28.5685C21.9657 28.0539 21.8105 27.5519 21.5235 27.1248C21.3119 26.7128 20.9871 26.3698 20.5872 26.136L20.3072 25.961C20.2981 25.9567 20.2881 25.9547 20.278 25.9551C20.2679 25.9556 20.2581 25.9586 20.2494 25.9638C20.2407 25.969 20.2335 25.9763 20.2283 25.9849C20.2231 25.9936 20.2202 26.0034 20.2197 26.0135V26.346C20.2317 26.5504 20.205 26.7553 20.141 26.9498C20.0611 27.1532 19.9489 27.3423 19.8085 27.5098C19.7141 27.6304 19.6054 27.7391 19.4847 27.8335C19.1841 28.0643 18.9439 28.3646 18.7847 28.7085C18.629 29.021 18.5429 29.3635 18.5324 29.7124C18.5218 30.0614 18.587 30.4085 18.7235 30.7298C18.8478 31.0176 19.026 31.2789 19.2485 31.4998C19.4744 31.7179 19.7383 31.8929 20.0272 32.016C20.3291 32.1431 20.6534 32.2085 20.981 32.2085C21.3085 32.2085 21.6328 32.1431 21.9347 32.016C22.2378 31.9001 22.5145 31.7246 22.7485 31.4998C22.971 31.2789 23.1492 31.0176 23.2735 30.7298C23.4005 30.4192 23.4601 30.0851 23.4485 29.7498C23.449 29.4091 23.3774 29.0721 23.2385 28.761V28.796Z" fill="black"/>
</svg>
