<svg width="113" height="182" viewBox="0 0 113 182" fill="none" xmlns="http://www.w3.org/2000/svg">
<path d="M0.863113 2.40294C1.22966 3.04161 2.04454 3.26222 2.68321 2.89568C3.32189 2.52913 3.54249 1.71425 3.17595 1.07557C2.80941 0.436903 1.99452 0.216298 1.35585 0.58284C0.717176 0.949382 0.496571 1.76427 0.863113 2.40294ZM110.344 181.164C110.71 181.802 111.525 182.023 112.164 181.656C112.802 181.29 113.023 180.475 112.656 179.836C112.29 179.198 111.475 178.977 110.836 179.344C110.198 179.71 109.977 180.525 110.344 181.164ZM111.5 1.73926L111.75 1.73926L111.75 1.48925L111.5 1.48926L111.5 1.73926ZM111.5 85.9997L111.25 85.9997L111.5 85.9997ZM2.01953 1.98926L111.5 1.98926L111.5 1.48926L2.01953 1.48926V1.98926ZM111.25 1.73926L111.25 85.9997L111.75 85.9997L111.75 1.73926L111.25 1.73926ZM111.25 85.9997L111.25 180.5L111.75 180.5L111.75 85.9997L111.25 85.9997Z" fill="#AF060D"/>
</svg>
