<svg width="135" height="135" viewBox="0 0 135 135" fill="none" xmlns="http://www.w3.org/2000/svg">
<path d="M134.153 1.31286C134.133 0.576753 133.52 -0.00385528 132.784 0.0160396C132.048 0.0359345 131.467 0.648799 131.487 1.3849C131.507 2.12102 132.12 2.70163 132.856 2.68173C133.592 2.66184 134.173 2.04897 134.153 1.31286ZM2.83284 133.464C2.81294 132.728 2.20008 132.147 1.46397 132.167C0.727867 132.187 0.147259 132.8 0.167154 133.536C0.187048 134.272 0.799913 134.853 1.53602 134.833C2.27212 134.813 2.85273 134.2 2.83284 133.464ZM1.49824 1.34889L1.49824 1.09889L1.24824 1.09888L1.24824 1.34888L1.49824 1.34889ZM1.49823 72.9998L1.24823 72.9998L1.24823 72.9998L1.49823 72.9998ZM132.82 1.09888L1.49824 1.09889L1.49823 1.59889L132.82 1.59888L132.82 1.09888ZM1.24824 1.34888L1.24823 72.9998L1.74823 72.9998L1.74824 1.34889L1.24824 1.34888ZM1.24823 72.9998L1.25 133.5L1.74999 133.5L1.74823 72.9998L1.24823 72.9998Z" fill="#AF060D"/>
</svg>
