<svg width="19" height="20" viewBox="0 0 19 20" fill="none" xmlns="http://www.w3.org/2000/svg">
<path fill-rule="evenodd" clip-rule="evenodd" d="M13.5285 0.366211H5.22251C2.35546 0.366211 0.03125 2.69042 0.03125 5.55747V13.8635C0.03125 16.7305 2.35546 19.0547 5.22251 19.0547H13.5285C16.3956 19.0547 18.7198 16.7305 18.7198 13.8635V5.55747C18.7198 2.69042 16.3956 0.366211 13.5285 0.366211ZM16.9028 13.8635C16.8971 15.7247 15.3897 17.2321 13.5285 17.2378H5.22251C3.36129 17.2321 1.85389 15.7247 1.84819 13.8635V5.55747C1.85389 3.69625 3.36129 2.18885 5.22251 2.18315H13.5285C15.3897 2.18885 16.8971 3.69625 16.9028 5.55747V13.8635ZM14.3072 5.81703C14.8806 5.81703 15.3455 5.35219 15.3455 4.77878C15.3455 4.20538 14.8806 3.74053 14.3072 3.74053C13.7338 3.74053 13.269 4.20538 13.269 4.77878C13.269 5.35219 13.7338 5.81703 14.3072 5.81703ZM9.37552 5.03834C6.79517 5.03834 4.70338 7.13013 4.70338 9.71048C4.70338 12.2908 6.79517 14.3826 9.37552 14.3826C11.9559 14.3826 14.0476 12.2908 14.0476 9.71048C14.0505 8.47049 13.559 7.28052 12.6822 6.40373C11.8054 5.52693 10.6155 5.03558 9.37552 5.03834ZM6.52032 9.71048C6.52032 11.2874 7.79862 12.5657 9.37552 12.5657C10.9524 12.5657 12.2307 11.2874 12.2307 9.71048C12.2307 8.13358 10.9524 6.85528 9.37552 6.85528C7.79862 6.85528 6.52032 8.13358 6.52032 9.71048Z" fill="white"/>
</svg>
