<svg width="20" height="20" viewBox="0 0 20 20" fill="none" xmlns="http://www.w3.org/2000/svg">
<path fill-rule="evenodd" clip-rule="evenodd" d="M2.42457 0.366211C1.56445 0.366211 0.867188 1.06347 0.867188 1.92359V17.4974C0.867188 18.3575 1.56445 19.0547 2.42457 19.0547H17.9983C18.8584 19.0547 19.5557 18.3575 19.5557 17.4974V1.92359C19.5557 1.06347 18.8584 0.366211 17.9983 0.366211H2.42457ZM6.59913 4.52204C6.60497 5.51487 5.86181 6.12663 4.97994 6.12225C4.14917 6.11787 3.42499 5.45647 3.42937 4.52351C3.43376 3.64602 4.12728 2.94082 5.02813 2.96126C5.94211 2.9817 6.60497 3.65186 6.59913 4.52204ZM10.5019 7.38662H7.88547H7.884V16.2739H10.6493V16.0666C10.6493 15.6721 10.649 15.2776 10.6487 14.8829C10.6478 13.8304 10.6469 12.7766 10.6523 11.7244C10.6537 11.4689 10.6654 11.2032 10.7311 10.9593C10.9778 10.0482 11.797 9.45984 12.7109 9.60447C13.2979 9.69636 13.6862 10.0366 13.8497 10.59C13.9505 10.9359 13.9958 11.3082 14.0001 11.6689C14.012 12.7566 14.0103 13.8443 14.0087 14.9321C14.008 15.316 14.0074 15.7002 14.0074 16.0841V16.2724H16.7815V16.0593C16.7815 15.59 16.7813 15.1208 16.781 14.6516C16.7805 13.4789 16.7798 12.3062 16.783 11.1331C16.7844 10.6031 16.7275 10.0804 16.5975 9.56793C16.4034 8.80574 16.0019 8.17501 15.3492 7.71953C14.8864 7.39537 14.3783 7.18659 13.8103 7.16323C13.7457 7.16054 13.6805 7.15702 13.6149 7.15348C13.3245 7.13778 13.0294 7.12184 12.7517 7.17783C11.9575 7.33697 11.2597 7.70053 10.7326 8.34144C10.6713 8.41495 10.6114 8.4896 10.522 8.601L10.5019 8.62623V7.38662ZM3.65141 16.2768H6.40358V7.3924H3.65141V16.2768Z" fill="white"/>
</svg>
