<svg width="24" height="24" viewBox="0 0 24 24" fill="none" xmlns="http://www.w3.org/2000/svg">
<path d="M15.22 6.5498H5.78C5.5 6.5498 5.24 6.5598 5 6.5698C2.63 6.7098 2 7.5798 2 10.2798V10.8598C2 11.4098 2.45 11.8598 3 11.8598H18C18.55 11.8598 19 11.4098 19 10.8598V10.2798C19 7.2998 18.24 6.5498 15.22 6.5498Z" fill="#AF060D"/>
<path d="M3 13.3604C2.45 13.3604 2 13.8104 2 14.3604V17.2704C2 20.2504 2.76 21.0004 5.78 21.0004H15.22C18.19 21.0004 18.97 20.2804 19 17.4304V14.3604C19 13.8104 18.55 13.3604 18 13.3604H3ZM6.96 18.5604H5.25C4.84 18.5604 4.5 18.2204 4.5 17.8104C4.5 17.4004 4.84 17.0604 5.25 17.0604H6.97C7.38 17.0604 7.72 17.4004 7.72 17.8104C7.72 18.2204 7.38 18.5604 6.96 18.5604ZM12.55 18.5604H9.11C8.7 18.5604 8.36 18.2204 8.36 17.8104C8.36 17.4004 8.7 17.0604 9.11 17.0604H12.55C12.96 17.0604 13.3 17.4004 13.3 17.8104C13.3 18.2204 12.97 18.5604 12.55 18.5604Z" fill="#AF060D"/>
<path d="M21.9996 13.3296V8.08961C21.9996 4.95961 20.2096 3.59961 17.5096 3.59961H8.57962C7.81962 3.59961 7.13962 3.70961 6.53962 3.93961C6.06962 4.10961 5.64962 4.35961 5.30962 4.68961C5.12962 4.85961 5.26962 5.13961 5.52962 5.13961H16.3996C18.6496 5.13961 20.4696 6.95961 20.4696 9.20961V16.3796C20.4696 16.6296 20.7396 16.7696 20.9196 16.5896C21.6096 15.8596 21.9996 14.7896 21.9996 13.3296Z" fill="#AF060D"/>
</svg>
