<svg width="24" height="25" viewBox="0 0 24 25" fill="none" xmlns="http://www.w3.org/2000/svg">
<path d="M4.78875 12.7297L4.155 9.66599C4.11052 9.48731 4.00186 9.33123 3.84971 9.22749C3.69757 9.12376 3.51259 9.07962 3.33 9.10349H0.3975L0.375 9.24974C2.655 9.79724 4.1625 11.1247 4.78875 12.7297ZM6.91875 9.17099L5.06625 13.8997L4.875 13.1872C4.27137 12.0131 3.36516 11.0214 2.25 10.3147L3.94125 16.0935H5.94L8.9175 9.17099H6.91875ZM9.68625 9.17099L8.505 16.1085H10.38L11.565 9.17099H9.68625ZM22.095 9.17099H20.625C20.4193 9.14419 20.2106 9.18634 20.0315 9.29084C19.8523 9.39534 19.7129 9.55629 19.635 9.74849L16.8412 16.101H18.825C18.825 16.101 19.1475 15.246 19.2225 15.0585H21.6413C21.6975 15.2985 21.87 16.0935 21.87 16.0935H23.625L22.095 9.17099ZM19.7663 13.641C19.9237 13.2435 20.5163 11.7022 20.5163 11.7022C20.5163 11.7022 20.6737 11.3047 20.7675 11.0422L20.8988 11.6385L21.3337 13.641H19.7663ZM15.375 11.9497C14.7188 11.631 14.3138 11.4135 14.3175 11.091C14.3212 10.7685 14.6588 10.4947 15.3975 10.4947C15.8823 10.4818 16.3643 10.5726 16.8113 10.761L16.9837 10.8397L17.2388 9.33974C16.6967 9.14341 16.124 9.04562 15.5475 9.05099C13.6725 9.05099 12.3637 9.98849 12.3525 11.3385C12.3525 12.3322 13.29 12.891 14.0062 13.2135C14.7225 13.536 15 13.7722 15 14.076C15 14.541 14.4113 14.7547 13.875 14.7547C13.2615 14.7689 12.653 14.6405 12.0975 14.3797L11.8538 14.2672L11.5875 15.8197C12.2616 16.0711 12.9756 16.1981 13.695 16.1947C15.6788 16.1947 16.9688 15.2647 16.9837 13.8247C16.98 13.0447 16.4775 12.4447 15.375 11.9497Z" fill="#273991"/>
<path d="M4.155 9.66551C4.11052 9.48682 4.00186 9.33074 3.84971 9.22701C3.69757 9.12328 3.51259 9.07914 3.33 9.10301H0.3975L0.375 9.24926C2.655 9.80051 4.1625 11.1243 4.78875 12.733L4.155 9.66551Z" fill="#F99F1B"/>
</svg>
